<svg width="213" height="43" viewBox="0 0 213 43" fill="none" xmlns="http://www.w3.org/2000/svg">
<path fill-rule="evenodd" clip-rule="evenodd" d="M32.4189 7.71022C34.5281 7.72635 36.3018 5.9359 36.2379 3.85511C36.2379 1.72593 34.5441 0 32.4509 0C30.3577 0.0161302 28.616 1.64528 28.616 3.85511C28.616 6.11333 30.3896 7.69409 32.4189 7.71022ZM38.6633 16.8538C38.7323 16.9096 38.8014 16.9653 38.9381 16.9528C39.0819 16.9186 39.2346 16.8755 39.3939 16.8304L39.394 16.8304C39.5357 16.7903 39.6825 16.7488 39.8329 16.7108C40.9503 16.4047 42.0717 16.1025 43.1932 15.8004L43.1957 15.7997L43.1963 15.7995L43.1976 15.7992L43.1977 15.7991C44.3198 15.4968 45.4418 15.1945 46.5599 14.8881C47.7501 14.5656 48.9442 14.2471 50.1384 13.9286L50.1384 13.9286L50.1392 13.9284C51.3336 13.6098 52.528 13.2912 53.7184 12.9686C53.99 12.9041 54.022 12.8396 53.9101 12.5815C52.9035 10.2588 51.5133 8.19412 49.7557 6.37141C48.765 5.32295 47.6625 4.41966 46.464 3.61315C45.4574 2.93568 44.3868 2.33887 43.2683 1.85496C43.0766 1.77431 42.9487 1.79044 42.8209 1.93561C42.6931 2.08078 42.5493 2.20982 42.4055 2.33887C41.8385 2.84673 41.2675 3.35056 40.6965 3.85439L40.6958 3.85506C40.1245 4.35914 39.5533 4.86322 38.986 5.37134C38.5626 5.7504 38.1391 6.12542 37.7157 6.50045L37.7155 6.50058C37.2922 6.87556 36.8688 7.25055 36.4454 7.62956C35.8701 8.14573 35.2949 8.65787 34.7197 9.17001C34.1444 9.68214 33.5692 10.1943 32.994 10.7104L32.9485 10.7496C32.8178 10.8624 32.7496 10.9213 32.6824 10.9201C32.6092 10.9188 32.5372 10.8462 32.3868 10.6943C29.9101 8.19412 27.4334 5.69394 24.9567 3.17763C24.7809 2.98407 24.6531 2.98407 24.4454 3.11311C23.7583 3.56476 23.0712 4.0164 22.4161 4.53257C21.4414 5.30682 20.5306 6.14559 19.7157 7.08113C19.6198 7.19405 19.5559 7.30696 19.6997 7.436C19.8233 7.55116 19.9355 7.67202 20.05 7.79521C20.1279 7.87907 20.2068 7.96401 20.2909 8.04894L30.0699 17.9206C30.3415 18.1948 30.3575 18.1948 30.5652 17.8722C31.7956 16.0172 33.9847 15.0817 36.2377 15.5817C37.1325 15.7753 37.8995 16.2108 38.6025 16.8076C38.6238 16.822 38.6436 16.8379 38.6633 16.8538ZM33.5905 41.5961C34.0671 41.6381 34.5273 41.6788 34.9426 41.6481C36.4446 41.6642 37.8028 41.5029 39.145 41.2448C40.9506 40.8738 42.6923 40.2609 44.3541 39.406C45.3288 38.906 46.2555 38.3091 47.1503 37.6639C47.3261 37.5349 47.438 37.3897 47.39 37.1316C47.2463 36.4305 47.1066 35.7294 46.9669 35.0283L46.9666 35.0267C46.8268 34.325 46.687 33.6233 46.5432 32.9217C46.3915 32.1483 46.2359 31.375 46.0803 30.6017L46.0803 30.6014L46.0798 30.599C45.924 29.8247 45.7682 29.0505 45.6164 28.2762L45.6164 28.2761L45.6163 28.276C45.3447 26.8727 45.0731 25.4695 44.7855 24.0662C44.7216 23.8081 44.7855 23.7436 45.0252 23.6791C45.5765 23.5339 46.1237 23.3847 46.671 23.2355C47.2183 23.0863 47.7655 22.9371 48.3168 22.7919C49.0218 22.5998 49.7269 22.4107 50.4305 22.2221L50.4313 22.2219L50.4313 22.2219L50.4314 22.2219C51.3222 21.983 52.2108 21.7448 53.0944 21.5015C53.4699 21.4047 53.8454 21.2999 54.2209 21.195C54.5964 21.0902 54.9719 20.9853 55.3474 20.8886C55.5392 20.8402 55.6031 20.7273 55.6031 20.5337C55.6031 19.973 55.5456 19.4122 55.4892 18.8613L55.4892 18.8612L55.489 18.8595C55.479 18.7613 55.4689 18.6634 55.4593 18.5658C55.3155 17.2109 55.0438 15.8721 54.6284 14.5655C54.4846 14.1139 54.4686 14.0978 54.0212 14.2268C52.7269 14.5817 51.4167 14.9365 50.1064 15.2914C48.4127 15.7592 46.7191 16.2108 45.0254 16.6624L45.0252 16.6625L40.0398 18.0174C39.6723 18.1142 39.6723 18.1303 39.8321 18.4529C40.4393 19.6788 40.5671 20.9692 40.2156 22.2758C39.7202 24.1307 38.5378 25.3728 36.7482 26.018C36.5724 26.0986 36.4766 26.1954 36.4286 26.389C36.157 27.4535 35.8854 28.502 35.5977 29.5505L34.2076 34.7282C33.8081 36.1961 33.4246 37.6478 33.0411 39.1157C32.8494 39.7931 32.6736 40.4706 32.4979 41.1481C32.434 41.4223 32.4979 41.5191 32.7535 41.5352C33.0343 41.547 33.3151 41.5718 33.5905 41.5961ZM47.1349 27.1148C47.1189 29.2924 48.8446 30.97 50.9378 30.9538C53.047 30.97 54.7887 29.2763 54.7727 27.0826C54.7567 24.8889 53.079 23.2597 50.9538 23.2597C48.7967 23.2597 47.1349 24.905 47.1349 27.1148ZM5.36598 1.6453H9.37663C9.76012 1.6453 9.7761 1.67756 9.80806 2.08081C9.84002 2.40342 9.87597 2.73005 9.91192 3.05669C9.94787 3.38332 9.98382 3.70996 10.0158 4.03256L10.0413 4.24882L10.0413 4.24892C10.1125 4.85118 10.1824 5.44194 10.2395 6.0327C10.3194 6.7263 10.3993 7.4199 10.4632 8.12962C10.5223 8.64108 10.5769 9.15254 10.6318 9.66638L10.6319 9.66648C10.6808 10.1249 10.73 10.5853 10.7828 11.0492C10.8147 11.3557 10.8507 11.6621 10.8866 11.9686C10.9226 12.2751 10.9585 12.5815 10.9905 12.888L10.9905 12.888C11.0704 13.5655 11.1503 14.243 11.2142 14.9204C11.2781 15.5656 11.342 16.2108 11.4219 16.8399C11.4618 17.1701 11.5017 17.5043 11.5416 17.8385L11.5418 17.84C11.5817 18.1747 11.6216 18.5094 11.6616 18.8401C11.7175 19.3563 11.7734 19.8684 11.8294 20.3806C11.8853 20.8927 11.9412 21.4048 11.9971 21.9209L11.9974 21.9233C12.1251 23.1 12.2529 24.2767 12.3806 25.4373L12.3807 25.4375C12.4925 26.3891 12.6043 27.3407 12.7002 28.2923C12.7721 28.9536 12.848 29.619 12.9239 30.2843L12.9239 30.2844C12.9998 30.9498 13.0757 31.6151 13.1476 32.2765C13.3074 33.7766 13.4672 35.2606 13.643 36.7607C13.6989 37.2528 13.7548 37.7489 13.8108 38.245C13.8667 38.7409 13.9226 39.2368 13.9785 39.7286C14.0184 40.1077 14.0584 40.4827 14.0983 40.8577C14.1383 41.2328 14.1782 41.6078 14.2182 41.9868C14.2342 42.132 14.1702 42.2127 14.0264 42.2127H13.8347H7.15559C6.75857 42.2127 6.75614 42.1967 6.69337 41.7848L6.69221 41.7771C6.53243 40.5997 6.35667 39.4384 6.18091 38.277L6.18089 38.2769C5.98915 36.8897 5.7974 35.5186 5.58968 34.1315C5.44881 33.1218 5.29553 32.1248 5.14078 31.1181L5.14077 31.1181L5.07836 30.7119C4.91857 29.5666 4.75878 28.4214 4.599 27.2923C4.53508 26.8406 4.46717 26.389 4.39926 25.9373C4.33135 25.4857 4.26344 25.034 4.19953 24.5824L4.12843 24.0735L4.12842 24.0734C3.96015 22.8685 3.79037 21.6527 3.60832 20.4369C3.53139 19.8856 3.44706 19.3343 3.36245 18.7811C3.27132 18.1853 3.17986 17.5874 3.097 16.9851C3.0171 16.4205 2.94121 15.8519 2.86531 15.2834C2.78941 14.7148 2.71351 14.1462 2.63362 13.5816C2.49275 12.572 2.33947 11.5749 2.18472 10.5683L2.1223 10.162C2.05838 9.71845 1.99846 9.27487 1.93854 8.83129C1.87862 8.38771 1.8187 7.94413 1.75479 7.50055C1.67855 6.92337 1.59095 6.33472 1.50215 5.73802L1.50215 5.738C1.44205 5.33416 1.3814 4.92663 1.32336 4.51647C1.25945 4.09708 1.19953 3.6777 1.13961 3.25832L1.13961 3.25831C1.07969 2.83893 1.01976 2.41955 0.95585 2.00016C0.923893 1.74208 1.00379 1.6453 1.27542 1.66143C1.95452 1.66143 2.63761 1.6574 3.3207 1.65336L3.32076 1.65336C4.00383 1.64933 4.6869 1.6453 5.36598 1.6453ZM29.7972 19.6467L29.7972 19.6466C29.8123 19.4792 29.6851 19.3836 29.5633 19.292L29.5415 19.2756C26.0102 15.6947 22.4789 12.1299 18.9476 8.56517C18.676 8.29096 18.66 8.29096 18.4363 8.61356C17.5735 9.85559 16.8065 11.1621 16.1993 12.5493C15.0648 15.1785 14.5056 17.9207 14.4736 20.7757C14.4736 21.4148 14.5137 22.0438 14.5542 22.6787L14.5543 22.6793C14.5649 22.8454 14.5755 23.0119 14.5854 23.1791C14.6014 23.4049 14.7133 23.5017 14.905 23.5662L14.9053 23.5663C15.9279 23.905 16.9504 24.2437 17.9729 24.5986C21.1207 25.6793 24.2685 26.76 27.4323 27.8246C27.6401 27.8891 27.704 27.9698 27.6401 28.1956C27.4483 28.8892 27.2725 29.5666 27.0968 30.2602C26.8251 31.341 26.5375 32.4217 26.2499 33.5024C25.8025 35.1961 25.3551 36.8897 24.8917 38.5834C24.8278 38.8092 24.8757 38.9383 25.0835 39.0512C26.921 40.0835 28.8544 40.7932 30.8837 41.2288C31.0595 41.2771 31.1394 41.2288 31.1873 41.0352C31.395 40.2127 31.6187 39.3901 31.8424 38.5676L31.8425 38.5673C32.0569 37.7374 32.2763 36.9127 32.4952 36.0901L32.4956 36.0887L32.4956 36.0885C32.668 35.4406 32.84 34.7941 33.0089 34.1476C33.1605 33.5837 33.3081 33.0239 33.4558 32.4641L33.4563 32.4619L33.4569 32.4597C33.6045 31.8999 33.7521 31.3402 33.9037 30.7764L33.9037 30.7763L33.9038 30.7761C34.2713 29.4213 34.6387 28.0665 34.9903 26.7116C35.0861 26.3567 35.0382 26.3084 34.6707 26.2922C33.7599 26.2438 32.913 25.9858 32.162 25.4696C30.3085 24.1953 29.4616 22.421 29.7333 20.1466C29.7652 19.9692 29.7812 19.8079 29.7972 19.6467ZM21.7445 27.8407C19.6513 27.8407 17.9415 29.5667 17.9415 31.6797C17.9256 33.7766 19.6033 35.5348 21.7445 35.5509C23.9016 35.5509 25.5634 33.8411 25.5634 31.6797C25.5634 29.5021 23.8217 27.8407 21.7445 27.8407Z" fill="#DCDCDC"/>
<g clip-path="url(#clip0)">
<path d="M75.4766 13.6317C76.5266 13.6317 77.4812 13.6317 78.4836 13.6317C78.4836 13.8769 78.5313 14.073 78.5313 14.2691C78.5313 16.1322 78.5313 17.9463 78.5313 19.8093C78.5313 20.2996 78.6745 20.4467 79.1518 20.4467C79.9155 20.3977 80.6314 20.4467 81.3951 20.4467C81.7769 20.4467 81.9201 20.3487 81.9201 19.9564C81.8724 19.4171 81.9201 18.8778 81.9201 18.2895C81.7769 15.6909 84.1634 13.6808 86.2636 13.6317C89.8911 13.5827 93.5663 13.5827 97.2415 13.6317C99.2462 13.6808 101.633 15.5929 101.585 18.2404C101.537 20.6428 101.489 23.0452 101.585 25.3986C101.68 28.4384 99.4371 30.2034 97.146 30.2524C93.5185 30.3015 89.9388 30.3015 86.3113 30.2524C84.068 30.2034 82.3497 28.7816 81.9679 26.6733C81.8247 25.8889 81.8724 25.0554 81.8724 24.2709C81.8724 23.4375 81.8724 23.4375 81.061 23.4375C80.3928 23.4375 79.7723 23.4375 79.1041 23.4375C78.6745 23.4375 78.5313 23.5845 78.5313 24.0258C78.5313 25.8889 78.5313 27.752 78.5313 29.6151C78.5313 30.1053 78.3881 30.3015 77.9108 30.2524C77.2903 30.2034 76.6698 30.2034 76.0971 30.2524C75.6198 30.3015 75.4766 30.1544 75.4766 29.6151C75.5243 27.4578 75.4766 25.3496 75.4766 23.1923C75.4766 20.2506 75.4766 17.2599 75.4766 14.3181C75.4766 14.1711 75.4766 13.9259 75.4766 13.6317ZM91.7525 16.5735C90.082 16.5735 88.4114 16.5735 86.7886 16.5735C85.5953 16.5735 84.9271 17.2599 84.9271 18.4856C84.9271 20.8389 84.9271 23.1433 84.9271 25.4967C84.9271 26.8204 85.4044 27.2617 86.6454 27.2617C90.0342 27.2617 93.4231 27.2617 96.8119 27.2617C98.0529 27.2617 98.4825 26.7714 98.5302 25.4967C98.5302 23.2413 98.5302 20.937 98.5302 18.6817C98.5302 17.1618 97.9575 16.5735 96.4301 16.5735C94.855 16.5735 93.3276 16.5735 91.7525 16.5735Z" fill="#DCDCDC"/>
<path d="M152.657 13.5828C153.182 13.5828 153.612 13.5828 154.089 13.5828C157.382 13.5828 160.676 13.5828 163.969 13.5828C166.069 13.5828 167.979 15.1027 168.504 17.1619C168.599 17.5051 168.599 17.8483 168.599 18.1915C168.599 20.5448 168.504 22.9472 168.647 25.3006C168.79 28.3894 166.499 30.2525 163.826 30.2525C161.392 30.2525 158.958 30.2525 156.571 30.2525C155.473 30.2525 154.328 30.2525 153.278 30.1054C151.034 29.7622 149.602 27.9481 149.602 25.6438C149.555 22.4079 151.464 20.4468 154.614 20.4468C158.051 20.4468 161.535 20.4468 164.972 20.4468C165.497 20.4468 165.687 20.2997 165.64 19.7604C165.592 19.2701 165.64 18.8288 165.64 18.3385C165.64 17.358 165.067 16.6716 164.112 16.5735C163.874 16.5245 163.635 16.5245 163.444 16.5245C160.103 16.5245 156.714 16.5245 153.373 16.5245C152.896 16.5245 152.753 16.3774 152.753 15.8871C152.657 15.2007 152.657 14.4653 152.657 13.5828ZM159.721 23.4375C157.955 23.4375 156.189 23.4375 154.471 23.4375C153.182 23.4375 152.562 24.1239 152.609 25.4967C152.609 26.8205 153.039 27.2617 154.423 27.2617C156.141 27.2617 157.812 27.2617 159.53 27.2617C160.962 27.2617 162.442 27.2617 163.874 27.2617C165.115 27.2617 165.592 26.7715 165.592 25.4967C165.592 25.0064 165.544 24.5652 165.592 24.0749C165.64 23.5846 165.449 23.3885 164.972 23.3885C163.206 23.4375 161.44 23.4375 159.721 23.4375Z" fill="#DCDCDC"/>
<path d="M190.887 27.2617C190.887 28.2423 190.887 29.1248 190.887 30.0073C190.887 30.1054 190.744 30.2034 190.649 30.2524C190.553 30.3015 190.362 30.2524 190.267 30.2524C185.78 30.2524 181.341 30.2524 176.855 30.2524C175.661 30.2524 174.564 29.9583 173.561 29.2228C172.463 28.3403 171.891 27.2617 171.891 25.8399C171.891 23.2904 171.891 20.7899 171.891 18.2404C171.891 16.0832 173.275 14.2691 175.327 13.7298C175.709 13.6317 176.139 13.5827 176.568 13.5337C181.15 13.5337 185.732 13.5337 190.314 13.5337C190.458 13.5337 190.649 13.5337 190.887 13.5827C190.887 14.4652 190.887 15.3477 190.887 16.1812C190.887 16.2793 190.696 16.4264 190.601 16.4754C190.458 16.5244 190.314 16.4754 190.124 16.4754C185.732 16.4754 181.389 16.4754 176.998 16.4754C176.52 16.4754 175.948 16.6225 175.566 16.9167C175.232 17.1618 174.993 17.7011 174.945 18.0933C174.898 20.5938 174.898 23.0943 174.945 25.6438C174.945 26.6243 175.47 27.1636 176.473 27.1636C177.857 27.1636 179.241 27.1636 180.673 27.1636C183.871 27.1636 187.069 27.1636 190.219 27.1636C190.41 27.2617 190.649 27.2617 190.887 27.2617Z" fill="#DCDCDC"/>
<path d="M121.776 30.3015C121.776 29.9583 121.776 29.7131 121.776 29.517C121.776 25.8399 121.776 22.1627 121.776 18.4365C121.776 17.1128 121.394 16.6225 120.105 16.6225C116.716 16.6225 113.327 16.6225 109.891 16.6225C108.554 16.6225 108.173 17.1128 108.173 18.4856C108.173 22.1627 108.173 25.8399 108.173 29.566C108.173 30.3505 108.173 30.3505 107.409 30.3505C106.645 30.3505 105.929 30.3505 105.118 30.3505C105.118 30.0563 105.118 29.8602 105.118 29.6641C105.118 25.8889 105.166 22.1137 105.118 18.3875C105.07 15.4948 107.409 13.7298 109.557 13.7298C113.184 13.6808 116.764 13.7298 120.392 13.7298C122.301 13.7298 124.878 15.2497 124.83 18.3385C124.783 22.1627 124.83 25.9869 124.83 29.8112C124.83 30.2524 124.735 30.4485 124.258 30.3995C123.446 30.2524 122.635 30.3015 121.776 30.3015Z" fill="#DCDCDC"/>
<path d="M147.071 30.3014C146.021 30.3014 145.066 30.3014 144.112 30.3014C143.969 30.3014 143.778 30.0072 143.73 29.8111C143.253 27.9971 142.823 26.183 142.346 24.369C141.868 22.4078 141.391 20.4467 140.866 18.5346C140.484 17.1618 139.816 16.6715 138.48 16.6715C137.716 16.6715 136.952 16.6715 136.189 16.6715C134.566 16.6715 133.945 17.1618 133.563 18.7797C132.609 22.4568 131.702 26.183 130.795 29.8602C130.7 30.2524 130.556 30.3504 130.175 30.3504C129.268 30.3504 128.409 30.3504 127.406 30.3504C127.693 29.2718 127.931 28.2422 128.17 27.2616C128.981 24.0748 129.745 20.8389 130.604 17.652C131.034 16.0341 131.797 14.6123 133.468 13.9749C133.993 13.7788 134.518 13.6807 135.091 13.6807C136.427 13.6317 137.764 13.6807 139.1 13.6807C141.391 13.6807 142.919 14.7103 143.682 16.9166C144.207 18.4855 144.589 20.1525 145.019 21.7704C145.687 24.418 146.355 27.1146 147.023 29.8111C147.023 29.8602 147.023 30.0072 147.071 30.3014Z" fill="#DCDCDC"/>
<path d="M194.086 16.5736C194.086 15.544 194.086 14.6124 194.086 13.6318C200.339 13.6318 206.591 13.6318 212.939 13.6318C212.939 14.5144 212.939 15.3969 212.892 16.2794C212.892 16.3774 212.557 16.5736 212.367 16.5736C210.171 16.5736 207.928 16.5736 205.732 16.5736C204.968 16.5736 204.968 16.5736 204.968 17.358C204.968 21.3784 204.968 25.4477 204.968 29.4681C204.968 30.2525 204.968 30.2525 204.157 30.2525C203.441 30.2525 202.725 30.2525 201.914 30.2525C201.914 29.9584 201.914 29.7132 201.914 29.5171C201.914 25.4477 201.914 21.3784 201.914 17.26C201.914 16.7206 201.77 16.5245 201.245 16.5245C199.098 16.5736 196.95 16.5245 194.754 16.5245C194.563 16.5736 194.372 16.5736 194.086 16.5736Z" fill="#DCDCDC"/>
</g>
<defs>
<clipPath id="clip0">
<rect width="137.463" height="16.7188" fill="white" transform="translate(75.4766 13.5828)"/>
</clipPath>
</defs>
</svg>
