<svg width="130" height="85" viewBox="0 0 130 85" fill="none" xmlns="http://www.w3.org/2000/svg">
<path d="M13.7444 0C13.1284 0.169883 11.8437 0.856211 11.6325 2.24246C11.4213 3.6287 11.0165 6.89726 10.8405 8.35825C5.62336 11.6162 2.3778 17.0214 0.394078 21.5605C-1.07611 24.9246 1.76799 28.4384 5.59972 28.4384H16.8242L20.6374 71.953C20.9163 76.336 21.6053 82.7575 21.6053 82.7575C21.7813 83.7768 22.5909 85 23.7172 85H106.283C107.409 85 108.219 83.7768 108.395 82.7575C108.395 82.7575 109.084 76.336 109.363 71.953L113.176 28.4384H124.4C128.232 28.4384 131.076 24.9246 129.606 21.5605C127.622 17.0214 124.377 11.6162 119.159 8.35825C118.983 6.89726 118.579 3.6287 118.368 2.24246C118.156 0.856211 116.872 0.169883 116.256 0H13.7444Z" fill="url(#paint0_linear)"/>
<defs>
<linearGradient id="paint0_linear" x1="0" y1="42.5" x2="130" y2="42.5" gradientUnits="userSpaceOnUse">
<stop stop-color="#B12A5B"/>
<stop offset="0.44961" stop-color="#CF556C"/>
<stop offset="1" stop-color="#FF867A"/>
</linearGradient>
</defs>
</svg>
