<svg width="130" height="85" viewBox="0 0 130 85" fill="none" xmlns="http://www.w3.org/2000/svg">
<path d="M119.317 0H65H10.6834C10.4023 0.184798 7.9282 0.997911 7.9282 2.77198C5.73529 3.32637 0 4.43516 0 4.61996V19.2101C0.112455 19.7645 6.84862 20.8732 9.95242 20.8732C15.013 63.7465 21.4792 40.2834 26.0337 78.9063C28.6246 80.8992 40.0133 84.8457 65 85C89.9867 84.8457 101.375 80.8992 103.966 78.9063C108.521 40.2834 114.987 63.7465 120.048 20.8732C123.151 20.8732 129.888 19.7645 130 19.2101V4.61996C130 4.43516 124.265 3.32637 122.072 2.77198C122.072 0.997911 119.598 0.184798 119.317 0Z" fill="url(#paint0_linear)"/>
<defs>
<linearGradient id="paint0_linear" x1="0" y1="42.5" x2="130" y2="42.5" gradientUnits="userSpaceOnUse">
<stop stop-color="#ED6944"/>
<stop offset="1" stop-color="#F1CB17"/>
</linearGradient>
</defs>
</svg>
