<svg width="0" height="0" class="hidden"> 
    <symbol fill="currentColor" xmlns="http://www.w3.org/2000/svg" viewBox="0 0 213 43" id="logo">
      <path fill-rule="evenodd" clip-rule="evenodd" d="M32.4189 7.71022C34.5281 7.72635 36.3018 5.9359 36.2379 3.85511C36.2379 1.72593 34.5441 0 32.4509 0C30.3577 0.0161302 28.616 1.64528 28.616 3.85511C28.616 6.11333 30.3896 7.69409 32.4189 7.71022ZM38.6633 16.8538C38.7323 16.9096 38.8014 16.9653 38.9381 16.9528C39.0819 16.9186 39.2346 16.8755 39.3939 16.8304L39.394 16.8304C39.5357 16.7903 39.6825 16.7488 39.8329 16.7108C40.9503 16.4047 42.0717 16.1025 43.1932 15.8004L43.1957 15.7997L43.1963 15.7995L43.1976 15.7992L43.1977 15.7991C44.3198 15.4968 45.4418 15.1945 46.5599 14.8881C47.7501 14.5656 48.9442 14.2471 50.1384 13.9286L50.1384 13.9286L50.1392 13.9284C51.3336 13.6098 52.528 13.2912 53.7184 12.9686C53.99 12.9041 54.022 12.8396 53.9101 12.5815C52.9035 10.2588 51.5133 8.19412 49.7557 6.37141C48.765 5.32295 47.6625 4.41966 46.464 3.61315C45.4574 2.93568 44.3868 2.33887 43.2683 1.85496C43.0766 1.77431 42.9487 1.79044 42.8209 1.93561C42.6931 2.08078 42.5493 2.20982 42.4055 2.33887C41.8385 2.84673 41.2675 3.35056 40.6965 3.85439L40.6958 3.85506C40.1245 4.35914 39.5533 4.86322 38.986 5.37134C38.5626 5.7504 38.1391 6.12542 37.7157 6.50045L37.7155 6.50058C37.2922 6.87556 36.8688 7.25055 36.4454 7.62956C35.8701 8.14573 35.2949 8.65787 34.7197 9.17001C34.1444 9.68214 33.5692 10.1943 32.994 10.7104L32.9485 10.7496C32.8178 10.8624 32.7496 10.9213 32.6824 10.9201C32.6092 10.9188 32.5372 10.8462 32.3868 10.6943C29.9101 8.19412 27.4334 5.69394 24.9567 3.17763C24.7809 2.98407 24.6531 2.98407 24.4454 3.11311C23.7583 3.56476 23.0712 4.0164 22.4161 4.53257C21.4414 5.30682 20.5306 6.14559 19.7157 7.08113C19.6198 7.19405 19.5559 7.30696 19.6997 7.436C19.8233 7.55116 19.9355 7.67202 20.05 7.79521C20.1279 7.87907 20.2068 7.96401 20.2909 8.04894L30.0699 17.9206C30.3415 18.1948 30.3575 18.1948 30.5652 17.8722C31.7956 16.0172 33.9847 15.0817 36.2377 15.5817C37.1325 15.7753 37.8995 16.2108 38.6025 16.8076C38.6238 16.822 38.6436 16.8379 38.6633 16.8538ZM33.5905 41.5961C34.0671 41.6381 34.5273 41.6788 34.9426 41.6481C36.4446 41.6642 37.8028 41.5029 39.145 41.2448C40.9506 40.8738 42.6923 40.2609 44.3541 39.406C45.3288 38.906 46.2555 38.3091 47.1503 37.6639C47.3261 37.5349 47.438 37.3897 47.39 37.1316C47.2463 36.4305 47.1066 35.7294 46.9669 35.0283L46.9666 35.0267C46.8268 34.325 46.687 33.6233 46.5432 32.9217C46.3915 32.1483 46.2359 31.375 46.0803 30.6017L46.0803 30.6014L46.0798 30.599C45.924 29.8247 45.7682 29.0505 45.6164 28.2762L45.6164 28.2761L45.6163 28.276C45.3447 26.8727 45.0731 25.4695 44.7855 24.0662C44.7216 23.8081 44.7855 23.7436 45.0252 23.6791C45.5765 23.5339 46.1237 23.3847 46.671 23.2355C47.2183 23.0863 47.7655 22.9371 48.3168 22.7919C49.0218 22.5998 49.7269 22.4107 50.4305 22.2221L50.4313 22.2219L50.4313 22.2219L50.4314 22.2219C51.3222 21.983 52.2108 21.7448 53.0944 21.5015C53.4699 21.4047 53.8454 21.2999 54.2209 21.195C54.5964 21.0902 54.9719 20.9853 55.3474 20.8886C55.5392 20.8402 55.6031 20.7273 55.6031 20.5337C55.6031 19.973 55.5456 19.4122 55.4892 18.8613L55.4892 18.8612L55.489 18.8595C55.479 18.7613 55.4689 18.6634 55.4593 18.5658C55.3155 17.2109 55.0438 15.8721 54.6284 14.5655C54.4846 14.1139 54.4686 14.0978 54.0212 14.2268C52.7269 14.5817 51.4167 14.9365 50.1064 15.2914C48.4127 15.7592 46.7191 16.2108 45.0254 16.6624L45.0252 16.6625L40.0398 18.0174C39.6723 18.1142 39.6723 18.1303 39.8321 18.4529C40.4393 19.6788 40.5671 20.9692 40.2156 22.2758C39.7202 24.1307 38.5378 25.3728 36.7482 26.018C36.5724 26.0986 36.4766 26.1954 36.4286 26.389C36.157 27.4535 35.8854 28.502 35.5977 29.5505L34.2076 34.7282C33.8081 36.1961 33.4246 37.6478 33.0411 39.1157C32.8494 39.7931 32.6736 40.4706 32.4979 41.1481C32.434 41.4223 32.4979 41.5191 32.7535 41.5352C33.0343 41.547 33.3151 41.5718 33.5905 41.5961ZM47.1349 27.1148C47.1189 29.2924 48.8446 30.97 50.9378 30.9538C53.047 30.97 54.7887 29.2763 54.7727 27.0826C54.7567 24.8889 53.079 23.2597 50.9538 23.2597C48.7967 23.2597 47.1349 24.905 47.1349 27.1148ZM5.36598 1.6453H9.37663C9.76012 1.6453 9.7761 1.67756 9.80806 2.08081C9.84002 2.40342 9.87597 2.73005 9.91192 3.05669C9.94787 3.38332 9.98382 3.70996 10.0158 4.03256L10.0413 4.24882L10.0413 4.24892C10.1125 4.85118 10.1824 5.44194 10.2395 6.0327C10.3194 6.7263 10.3993 7.4199 10.4632 8.12962C10.5223 8.64108 10.5769 9.15254 10.6318 9.66638L10.6319 9.66648C10.6808 10.1249 10.73 10.5853 10.7828 11.0492C10.8147 11.3557 10.8507 11.6621 10.8866 11.9686C10.9226 12.2751 10.9585 12.5815 10.9905 12.888L10.9905 12.888C11.0704 13.5655 11.1503 14.243 11.2142 14.9204C11.2781 15.5656 11.342 16.2108 11.4219 16.8399C11.4618 17.1701 11.5017 17.5043 11.5416 17.8385L11.5418 17.84C11.5817 18.1747 11.6216 18.5094 11.6616 18.8401C11.7175 19.3563 11.7734 19.8684 11.8294 20.3806C11.8853 20.8927 11.9412 21.4048 11.9971 21.9209L11.9974 21.9233C12.1251 23.1 12.2529 24.2767 12.3806 25.4373L12.3807 25.4375C12.4925 26.3891 12.6043 27.3407 12.7002 28.2923C12.7721 28.9536 12.848 29.619 12.9239 30.2843L12.9239 30.2844C12.9998 30.9498 13.0757 31.6151 13.1476 32.2765C13.3074 33.7766 13.4672 35.2606 13.643 36.7607C13.6989 37.2528 13.7548 37.7489 13.8108 38.245C13.8667 38.7409 13.9226 39.2368 13.9785 39.7286C14.0184 40.1077 14.0584 40.4827 14.0983 40.8577C14.1383 41.2328 14.1782 41.6078 14.2182 41.9868C14.2342 42.132 14.1702 42.2127 14.0264 42.2127H13.8347H7.15559C6.75857 42.2127 6.75614 42.1967 6.69337 41.7848L6.69221 41.7771C6.53243 40.5997 6.35667 39.4384 6.18091 38.277L6.18089 38.2769C5.98915 36.8897 5.7974 35.5186 5.58968 34.1315C5.44881 33.1218 5.29553 32.1248 5.14078 31.1181L5.14077 31.1181L5.07836 30.7119C4.91857 29.5666 4.75878 28.4214 4.599 27.2923C4.53508 26.8406 4.46717 26.389 4.39926 25.9373C4.33135 25.4857 4.26344 25.034 4.19953 24.5824L4.12843 24.0735L4.12842 24.0734C3.96015 22.8685 3.79037 21.6527 3.60832 20.4369C3.53139 19.8856 3.44706 19.3343 3.36245 18.7811C3.27132 18.1853 3.17986 17.5874 3.097 16.9851C3.0171 16.4205 2.94121 15.8519 2.86531 15.2834C2.78941 14.7148 2.71351 14.1462 2.63362 13.5816C2.49275 12.572 2.33947 11.5749 2.18472 10.5683L2.1223 10.162C2.05838 9.71845 1.99846 9.27487 1.93854 8.83129C1.87862 8.38771 1.8187 7.94413 1.75479 7.50055C1.67855 6.92337 1.59095 6.33472 1.50215 5.73802L1.50215 5.738C1.44205 5.33416 1.3814 4.92663 1.32336 4.51647C1.25945 4.09708 1.19953 3.6777 1.13961 3.25832L1.13961 3.25831C1.07969 2.83893 1.01976 2.41955 0.95585 2.00016C0.923893 1.74208 1.00379 1.6453 1.27542 1.66143C1.95452 1.66143 2.63761 1.6574 3.3207 1.65336L3.32076 1.65336C4.00383 1.64933 4.6869 1.6453 5.36598 1.6453ZM29.7972 19.6467L29.7972 19.6466C29.8123 19.4792 29.6851 19.3836 29.5633 19.292L29.5415 19.2756C26.0102 15.6947 22.4789 12.1299 18.9476 8.56517C18.676 8.29096 18.66 8.29096 18.4363 8.61356C17.5735 9.85559 16.8065 11.1621 16.1993 12.5493C15.0648 15.1785 14.5056 17.9207 14.4736 20.7757C14.4736 21.4148 14.5137 22.0438 14.5542 22.6787L14.5543 22.6793C14.5649 22.8454 14.5755 23.0119 14.5854 23.1791C14.6014 23.4049 14.7133 23.5017 14.905 23.5662L14.9053 23.5663C15.9279 23.905 16.9504 24.2437 17.9729 24.5986C21.1207 25.6793 24.2685 26.76 27.4323 27.8246C27.6401 27.8891 27.704 27.9698 27.6401 28.1956C27.4483 28.8892 27.2725 29.5666 27.0968 30.2602C26.8251 31.341 26.5375 32.4217 26.2499 33.5024C25.8025 35.1961 25.3551 36.8897 24.8917 38.5834C24.8278 38.8092 24.8757 38.9383 25.0835 39.0512C26.921 40.0835 28.8544 40.7932 30.8837 41.2288C31.0595 41.2771 31.1394 41.2288 31.1873 41.0352C31.395 40.2127 31.6187 39.3901 31.8424 38.5676L31.8425 38.5673C32.0569 37.7374 32.2763 36.9127 32.4952 36.0901L32.4956 36.0887L32.4956 36.0885C32.668 35.4406 32.84 34.7941 33.0089 34.1476C33.1605 33.5837 33.3081 33.0239 33.4558 32.4641L33.4563 32.4619L33.4569 32.4597C33.6045 31.8999 33.7521 31.3402 33.9037 30.7764L33.9037 30.7763L33.9038 30.7761C34.2713 29.4213 34.6387 28.0665 34.9903 26.7116C35.0861 26.3567 35.0382 26.3084 34.6707 26.2922C33.7599 26.2438 32.913 25.9858 32.162 25.4696C30.3085 24.1953 29.4616 22.421 29.7333 20.1466C29.7652 19.9692 29.7812 19.8079 29.7972 19.6467ZM21.7445 27.8407C19.6513 27.8407 17.9415 29.5667 17.9415 31.6797C17.9256 33.7766 19.6033 35.5348 21.7445 35.5509C23.9016 35.5509 25.5634 33.8411 25.5634 31.6797C25.5634 29.5021 23.8217 27.8407 21.7445 27.8407Z"></path>
      <path d="M75.4766 13.6317C76.5266 13.6317 77.4812 13.6317 78.4836 13.6317C78.4836 13.8769 78.5313 14.073 78.5313 14.2691C78.5313 16.1322 78.5313 17.9463 78.5313 19.8093C78.5313 20.2996 78.6745 20.4467 79.1518 20.4467C79.9155 20.3977 80.6314 20.4467 81.3951 20.4467C81.7769 20.4467 81.9201 20.3487 81.9201 19.9564C81.8724 19.4171 81.9201 18.8778 81.9201 18.2895C81.7769 15.6909 84.1634 13.6808 86.2636 13.6317C89.8911 13.5827 93.5663 13.5827 97.2415 13.6317C99.2462 13.6808 101.633 15.5929 101.585 18.2404C101.537 20.6428 101.489 23.0452 101.585 25.3986C101.68 28.4384 99.4371 30.2034 97.146 30.2524C93.5185 30.3015 89.9388 30.3015 86.3113 30.2524C84.068 30.2034 82.3497 28.7816 81.9679 26.6733C81.8247 25.8889 81.8724 25.0554 81.8724 24.2709C81.8724 23.4375 81.8724 23.4375 81.061 23.4375C80.3928 23.4375 79.7723 23.4375 79.1041 23.4375C78.6745 23.4375 78.5313 23.5845 78.5313 24.0258C78.5313 25.8889 78.5313 27.752 78.5313 29.6151C78.5313 30.1053 78.3881 30.3015 77.9108 30.2524C77.2903 30.2034 76.6698 30.2034 76.0971 30.2524C75.6198 30.3015 75.4766 30.1544 75.4766 29.6151C75.5243 27.4578 75.4766 25.3496 75.4766 23.1923C75.4766 20.2506 75.4766 17.2599 75.4766 14.3181C75.4766 14.1711 75.4766 13.9259 75.4766 13.6317ZM91.7525 16.5735C90.082 16.5735 88.4114 16.5735 86.7886 16.5735C85.5953 16.5735 84.9271 17.2599 84.9271 18.4856C84.9271 20.8389 84.9271 23.1433 84.9271 25.4967C84.9271 26.8204 85.4044 27.2617 86.6454 27.2617C90.0342 27.2617 93.4231 27.2617 96.8119 27.2617C98.0529 27.2617 98.4825 26.7714 98.5302 25.4967C98.5302 23.2413 98.5302 20.937 98.5302 18.6817C98.5302 17.1618 97.9575 16.5735 96.4301 16.5735C94.855 16.5735 93.3276 16.5735 91.7525 16.5735Z"></path>
      <path d="M152.657 13.5828C153.182 13.5828 153.612 13.5828 154.089 13.5828C157.382 13.5828 160.676 13.5828 163.969 13.5828C166.069 13.5828 167.979 15.1027 168.504 17.1619C168.599 17.5051 168.599 17.8483 168.599 18.1915C168.599 20.5448 168.504 22.9472 168.647 25.3006C168.79 28.3894 166.499 30.2525 163.826 30.2525C161.392 30.2525 158.958 30.2525 156.571 30.2525C155.473 30.2525 154.328 30.2525 153.278 30.1054C151.034 29.7622 149.602 27.9481 149.602 25.6438C149.555 22.4079 151.464 20.4468 154.614 20.4468C158.051 20.4468 161.535 20.4468 164.972 20.4468C165.497 20.4468 165.687 20.2997 165.64 19.7604C165.592 19.2701 165.64 18.8288 165.64 18.3385C165.64 17.358 165.067 16.6716 164.112 16.5735C163.874 16.5245 163.635 16.5245 163.444 16.5245C160.103 16.5245 156.714 16.5245 153.373 16.5245C152.896 16.5245 152.753 16.3774 152.753 15.8871C152.657 15.2007 152.657 14.4653 152.657 13.5828ZM159.721 23.4375C157.955 23.4375 156.189 23.4375 154.471 23.4375C153.182 23.4375 152.562 24.1239 152.609 25.4967C152.609 26.8205 153.039 27.2617 154.423 27.2617C156.141 27.2617 157.812 27.2617 159.53 27.2617C160.962 27.2617 162.442 27.2617 163.874 27.2617C165.115 27.2617 165.592 26.7715 165.592 25.4967C165.592 25.0064 165.544 24.5652 165.592 24.0749C165.64 23.5846 165.449 23.3885 164.972 23.3885C163.206 23.4375 161.44 23.4375 159.721 23.4375Z"></path>
      <path d="M190.887 27.2617C190.887 28.2423 190.887 29.1248 190.887 30.0073C190.887 30.1054 190.744 30.2034 190.649 30.2524C190.553 30.3015 190.362 30.2524 190.267 30.2524C185.78 30.2524 181.341 30.2524 176.855 30.2524C175.661 30.2524 174.564 29.9583 173.561 29.2228C172.463 28.3403 171.891 27.2617 171.891 25.8399C171.891 23.2904 171.891 20.7899 171.891 18.2404C171.891 16.0832 173.275 14.2691 175.327 13.7298C175.709 13.6317 176.139 13.5827 176.568 13.5337C181.15 13.5337 185.732 13.5337 190.314 13.5337C190.458 13.5337 190.649 13.5337 190.887 13.5827C190.887 14.4652 190.887 15.3477 190.887 16.1812C190.887 16.2793 190.696 16.4264 190.601 16.4754C190.458 16.5244 190.314 16.4754 190.124 16.4754C185.732 16.4754 181.389 16.4754 176.998 16.4754C176.52 16.4754 175.948 16.6225 175.566 16.9167C175.232 17.1618 174.993 17.7011 174.945 18.0933C174.898 20.5938 174.898 23.0943 174.945 25.6438C174.945 26.6243 175.47 27.1636 176.473 27.1636C177.857 27.1636 179.241 27.1636 180.673 27.1636C183.871 27.1636 187.069 27.1636 190.219 27.1636C190.41 27.2617 190.649 27.2617 190.887 27.2617Z"></path>
      <path d="M121.776 30.3015C121.776 29.9583 121.776 29.7131 121.776 29.517C121.776 25.8399 121.776 22.1627 121.776 18.4365C121.776 17.1128 121.394 16.6225 120.105 16.6225C116.716 16.6225 113.327 16.6225 109.891 16.6225C108.554 16.6225 108.173 17.1128 108.173 18.4856C108.173 22.1627 108.173 25.8399 108.173 29.566C108.173 30.3505 108.173 30.3505 107.409 30.3505C106.645 30.3505 105.929 30.3505 105.118 30.3505C105.118 30.0563 105.118 29.8602 105.118 29.6641C105.118 25.8889 105.166 22.1137 105.118 18.3875C105.07 15.4948 107.409 13.7298 109.557 13.7298C113.184 13.6808 116.764 13.7298 120.392 13.7298C122.301 13.7298 124.878 15.2497 124.83 18.3385C124.783 22.1627 124.83 25.9869 124.83 29.8112C124.83 30.2524 124.735 30.4485 124.258 30.3995C123.446 30.2524 122.635 30.3015 121.776 30.3015Z"></path>
      <path d="M147.071 30.3014C146.021 30.3014 145.066 30.3014 144.112 30.3014C143.969 30.3014 143.778 30.0072 143.73 29.8111C143.253 27.9971 142.823 26.183 142.346 24.369C141.868 22.4078 141.391 20.4467 140.866 18.5346C140.484 17.1618 139.816 16.6715 138.48 16.6715C137.716 16.6715 136.952 16.6715 136.189 16.6715C134.566 16.6715 133.945 17.1618 133.563 18.7797C132.609 22.4568 131.702 26.183 130.795 29.8602C130.7 30.2524 130.556 30.3504 130.175 30.3504C129.268 30.3504 128.409 30.3504 127.406 30.3504C127.693 29.2718 127.931 28.2422 128.17 27.2616C128.981 24.0748 129.745 20.8389 130.604 17.652C131.034 16.0341 131.797 14.6123 133.468 13.9749C133.993 13.7788 134.518 13.6807 135.091 13.6807C136.427 13.6317 137.764 13.6807 139.1 13.6807C141.391 13.6807 142.919 14.7103 143.682 16.9166C144.207 18.4855 144.589 20.1525 145.019 21.7704C145.687 24.418 146.355 27.1146 147.023 29.8111C147.023 29.8602 147.023 30.0072 147.071 30.3014Z"></path>
      <path d="M194.086 16.5736C194.086 15.544 194.086 14.6124 194.086 13.6318C200.339 13.6318 206.591 13.6318 212.939 13.6318C212.939 14.5144 212.939 15.3969 212.892 16.2794C212.892 16.3774 212.557 16.5736 212.367 16.5736C210.171 16.5736 207.928 16.5736 205.732 16.5736C204.968 16.5736 204.968 16.5736 204.968 17.358C204.968 21.3784 204.968 25.4477 204.968 29.4681C204.968 30.2525 204.968 30.2525 204.157 30.2525C203.441 30.2525 202.725 30.2525 201.914 30.2525C201.914 29.9584 201.914 29.7132 201.914 29.5171C201.914 25.4477 201.914 21.3784 201.914 17.26C201.914 16.7206 201.77 16.5245 201.245 16.5245C199.098 16.5736 196.95 16.5245 194.754 16.5245C194.563 16.5736 194.372 16.5736 194.086 16.5736Z"></path>
    </symbol>
    <symbol fill="currentColor" xmlns="http://www.w3.org/2000/svg" viewBox="0 0 35 35" id="plus">
      <path d="M32.794 14.92c1.218 0 2.206.896 2.206 2v1.16c0 1.104-.988 2-2.206 2h-9.995c-1.219 0-2.207.895-2.207 2V33c0 1.105-.988 2-2.206 2h-1.772c-1.218 0-2.206-.895-2.206-2V22.08c0-1.105-.988-2-2.207-2H2.206c-1.218 0-2.206-.896-2.206-2v-1.16c0-1.104.988-2 2.206-2h9.995c1.219 0 2.207-.895 2.207-2V2c0-1.105.988-2 2.206-2h1.772c1.218 0 2.206.895 2.206 2v10.92c0 1.105.988 2 2.207 2h9.995z"></path>
    </symbol>
    <symbol fill="currentColor" xmlns="http://www.w3.org/2000/svg" viewBox="0 0 35 35" id="percent">
      <path d="M13.547 14.128a1.076 1.076 0 01-.686.234 1.14 1.14 0 01-.685-.234 1.78 1.78 0 01-.503-.655 2.271 2.271 0 01-.183-.914c0-.327.061-.624.183-.89.122-.265.29-.476.503-.632.213-.171.441-.257.685-.257.244 0 .472.086.686.257.213.156.38.367.502.633.122.265.183.57.183.913 0 .312-.06.609-.183.89-.121.265-.29.483-.502.655zm9.3 9.858c-.213.156-.45.234-.708.234a1.14 1.14 0 01-.686-.234 1.782 1.782 0 01-.502-.656 2.27 2.27 0 01-.183-.913c0-.328.06-.624.183-.89.122-.265.29-.476.502-.632a1.11 1.11 0 01.709-.257c.228 0 .45.085.662.257.214.156.381.367.503.632.137.266.206.57.206.914 0 .312-.061.608-.183.89a1.78 1.78 0 01-.503.655z"></path>
      <path fill-rule="evenodd" clip-rule="evenodd" d="M31.792 13.67l2.27 1.854c.596.487.938 1.206.938 1.976s-.342 1.49-.937 1.976l-2.271 1.855 1.038 2.737c.276.72.21 1.517-.175 2.182a2.542 2.542 0 01-1.804 1.244l-2.89.467-.467 2.89a2.543 2.543 0 01-2.52 2.146c-.31 0-.614-.054-.906-.167l-2.737-1.038-1.855 2.27A2.541 2.541 0 0117.5 35c-.77 0-1.49-.342-1.976-.937l-1.855-2.271-2.737 1.038a2.494 2.494 0 01-.906.167 2.543 2.543 0 01-2.52-2.146l-.467-2.89-2.89-.467a2.542 2.542 0 01-1.804-1.244 2.532 2.532 0 01-.175-2.182l1.038-2.737-2.27-1.855A2.541 2.541 0 010 17.5c0-.77.342-1.49.937-1.976l2.271-1.855-1.038-2.737a2.532 2.532 0 01.175-2.182 2.542 2.542 0 011.804-1.244l2.89-.467.467-2.89a2.543 2.543 0 012.52-2.146c.31 0 .614.054.906.167l2.737 1.038 1.855-2.27A2.541 2.541 0 0117.5 0c.77 0 1.49.342 1.976.937l1.855 2.271 2.737-1.038a2.49 2.49 0 01.906-.167c1.26 0 2.318.902 2.52 2.146l.467 2.89 2.89.467a2.54 2.54 0 011.804 1.244c.385.665.451 1.462.175 2.182l-1.038 2.737zm-20.919 2.05a4.208 4.208 0 001.988.469c.731 0 1.394-.156 1.988-.469a3.69 3.69 0 001.394-1.31c.35-.563.526-1.18.526-1.85a3.31 3.31 0 00-.526-1.827 3.518 3.518 0 00-1.394-1.288 4.046 4.046 0 00-1.988-.492c-.731 0-1.394.164-1.988.492a3.732 3.732 0 00-1.394 1.288 3.312 3.312 0 00-.526 1.826c0 .672.176 1.288.526 1.85.35.547.815.984 1.394 1.311zm9.278 9.858a4.208 4.208 0 001.988.469 4.21 4.21 0 001.988-.469 3.689 3.689 0 001.394-1.311c.35-.562.526-1.179.526-1.85s-.176-1.28-.526-1.826a3.516 3.516 0 00-1.394-1.288 4.046 4.046 0 00-1.988-.492c-.731 0-1.394.164-1.988.492a3.732 3.732 0 00-1.394 1.288 3.352 3.352 0 00-.526 1.85c0 .655.175 1.264.526 1.826.35.546.815.983 1.394 1.311zm-9.002-1.803a1 1 0 00.077 1.379l.11.103a1 1 0 001.486-.131l5.41-7.251 5.622-6.669a1 1 0 00-.086-1.379l-.1-.092a1 1 0 00-1.483.141l-5.188 7.039-5.848 6.86z"></path>
    </symbol>
    <symbol fill="currentColor" xmlns="http://www.w3.org/2000/svg" viewBox="0 0 130 85" id="package4">
      <path fill-rule="evenodd" clip-rule="evenodd" d="M111.631 0H0v14.167h111.631V0zm11.341 28.333V14.167H11.34v14.166h111.632zm-4.456 0H6.884v13.785H18.37v14.55h-7.025v14.165H6.886V85h111.631V70.834h4.459V56.667H130V42.199h-11.484V28.334z"></path>
    </symbol>
    <symbol fill="currentColor" xmlns="http://www.w3.org/2000/svg" viewBox="0 0 130 85" id="package2">
      <path d="M10.946 42.692c-.935 0-1.693.734-1.693 1.684 0 .312-2.955.63-5.067.903-1.368.177-2.234 1.1-2.534 2.448L.276 53.899c-.043.192-.163.36-.23.546-.138.39.134.861.6.861h1.498c1.361 0 9.17.91 9.558 2.234.087.3.152.607.26.9L20.02 80.4c.173.473.275.97.425 1.452.574 1.846 2.27 3.148 4.234 3.148h80.642c1.963 0 3.66-1.302 4.234-3.148.15-.482.252-.98.425-1.453l8.059-21.96c.107-.292.172-.6.259-.899.387-1.325 8.197-2.234 9.558-2.234h1.498c.466 0 .738-.47.599-.861-.066-.186-.186-.354-.229-.546l-1.376-6.172c-.3-1.347-1.166-2.27-2.535-2.448-2.111-.274-5.066-.592-5.066-.903 0-.95-.758-1.684-1.693-1.684H10.946zM10.964 0c-.945 0-1.711.742-1.711 1.702 0 .314-2.974.635-5.087.911-1.357.178-2.213 1.094-2.512 2.43l-1.39 6.222c-.043.19-.162.357-.228.541-.138.392.133.862.6.862h1.486c1.374 0 9.193.918 9.58 2.256.087.3.15.606.257.9l8.07 22.27c.17.469.27.96.416 1.435.57 1.854 2.27 3.163 4.239 3.163h80.632c1.969 0 3.67-1.309 4.239-3.163.146-.476.246-.966.415-1.434l8.071-22.272c.106-.293.17-.6.256-.899.388-1.338 8.207-2.256 9.581-2.256h1.486c.466 0 .738-.47.6-.861-.066-.185-.185-.351-.227-.542l-1.392-6.223c-.298-1.335-1.154-2.251-2.511-2.429-2.113-.276-5.087-.597-5.087-.911 0-.96-.766-1.702-1.712-1.702H10.965z"></path>
    </symbol>
    <symbol fill="currentColor" xmlns="http://www.w3.org/2000/svg" viewBox="0 0 36 35" id="clock">
      <path fill-rule="evenodd" clip-rule="evenodd" d="M17.663 3.84C10.001 3.84 3.84 9.994 3.84 17.5s6.162 13.66 13.824 13.66 13.824-6.155 13.824-13.66S25.325 3.84 17.663 3.84zM0 17.5C0 7.842 7.915 0 17.663 0c9.749 0 17.663 7.842 17.663 17.5 0 9.659-7.914 17.5-17.663 17.5C7.915 35 0 27.159 0 17.5z"></path>
      <path d="M19.593 9.963a1.93 1.93 0 00-3.86 0v8.78l8.152 3.664a1.92 1.92 0 001.577-3.5l-5.869-2.65V9.963z"></path>
    </symbol>
    <symbol fill="currentColor" xmlns="http://www.w3.org/2000/svg" viewBox="0 0 130 85" id="package3">
      <path d="M119.317 0H10.683c-.28.185-2.755.998-2.755 2.772C5.735 3.326 0 4.435 0 4.62v14.59c.112.555 6.849 1.663 9.952 1.663 5.061 42.873 11.527 19.41 16.082 58.033C28.624 80.9 40.014 84.846 65 85c24.987-.154 36.375-4.1 38.966-6.094 4.555-38.623 11.021-15.16 16.082-58.033 3.103 0 9.84-1.108 9.952-1.663V4.62c0-.185-5.735-1.294-7.928-1.848 0-1.774-2.474-2.587-2.755-2.772z"></path>
    </symbol>
    <symbol fill="currentColor" xmlns="http://www.w3.org/2000/svg" viewBox="0 0 130 85" id="package1">
      <path d="M13.744 0c-.616.17-1.9.856-2.111 2.242-.212 1.387-.616 4.655-.792 6.116C5.623 11.616 2.378 17.021.394 21.561c-1.47 3.364 1.374 6.877 5.206 6.877h11.224l3.813 43.515c.28 4.383.968 10.804.968 10.804.176 1.02.986 2.243 2.112 2.243h82.566c1.126 0 1.936-1.223 2.112-2.243 0 0 .689-6.421.968-10.804l3.813-43.515H124.4c3.832 0 6.676-3.513 5.206-6.877-1.984-4.54-5.229-9.945-10.447-13.203-.176-1.46-.58-4.73-.791-6.116C118.156.856 116.872.17 116.256 0H13.744z"></path>
    </symbol>
    <symbol fill="currentColor" xmlns="http://www.w3.org/2000/svg" viewBox="0 0 24 35" id="fire">
      <path fill-rule="evenodd" clip-rule="evenodd" d="M7.908 35C-1.297 30.318-2.74 22.007 5.024 11.472c.111 2.809.333 5.501 1.886 7.023C6.466 16.037 4.58 7.375 14.784 0c-3.105 15.334 18.965 19.666 1.553 34.766 4.658-9.95-3.217-9.599-3.438-18.846-3.55 3.629-3.882 7.374-2.551 11.705-1.442-.585-2.884-2.107-3.77-4.097-1.554 4.215-.112 8.546 1.33 11.472z"></path>
    </symbol>
    <symbol fill="currentColor" xmlns="http://www.w3.org/2000/svg" viewBox="0 0 17 21" id="arrow">
      <path fill-rule="evenodd" clip-rule="evenodd" d="M.126 20.253c.308.654 1.08.93 1.725.619L14.3 14.843c3.6-1.743 3.6-6.943 0-8.686L1.851.128a1.285 1.285 0 00-1.725.62 1.321 1.321 0 00.61 1.75l12.45 6.028c1.636.792 1.636 3.156 0 3.948L.736 18.503a1.32 1.32 0 00-.61 1.75z"></path>
    </symbol>
    <symbol fill="currentColor" xmlns="http://www.w3.org/2000/svg" viewBox="0 0 12 6" id="select-arrow">
      <path d="M1 0a.498.498 0 00-.354.854L4.94 5.146a1.5 1.5 0 002.122 0L11.354.854A.5.5 0 0011 0H1z"></path>
    </symbol>
    <symbol fill="currentColor" xmlns="http://www.w3.org/2000/svg" viewBox="0 0 29 22" id="burger">
      <rect width="28.9999" height="3.51514" rx="1"></rect>
      <rect y="8.78784" width="28.9999" height="3.51514" rx="1"></rect>
      <rect y="18.4546" width="28.9999" height="3.51514" rx="1"></rect>
    </symbol>
    <symbol fill="currentColor" xmlns="http://www.w3.org/2000/svg" viewBox="0 0 33 30" id="plyonka">
      <path fill-rule="evenodd" clip-rule="evenodd" d="M20.4236 4.11254C19.8506 3.53954 19.8506 2.61052 20.4236 2.03751C20.9966 1.46451 21.9257 1.46451 22.4987 2.03751L25.6751 5.21396C26.2481 5.78696 26.2481 6.71598 25.6751 7.28899C25.1021 7.86199 24.1731 7.86199 23.6001 7.28899L20.4236 4.11254ZM18.0346 1.72355C18.3905 2.07943 18.9675 2.07943 19.3234 1.72355L20.7541 0.292893C21.1446 -0.0976313 21.7777 -0.0976308 22.1683 0.292893L27.4197 5.54437C27.8103 5.93489 27.8103 6.56806 27.4197 6.95858L26.2109 8.16739C25.7325 8.64579 25.7325 9.42143 26.2109 9.89983L26.2125 9.90138L31.9735 15.5625C32.2562 15.8404 32.1187 16.321 31.7318 16.4072L27.6143 17.3244C25.0083 17.9049 22.9074 19.827 22.0979 22.3713L21.6159 23.8865C20.6247 27.0021 17.9344 29.2731 14.6965 29.7272L13.5752 29.8845C13.4206 29.9062 13.2647 29.8544 13.1538 29.7445L9.74764 26.3695L9.74601 26.3678L9.15952 25.7814C9.12555 25.7474 9.07047 25.7474 9.0365 25.7814L6.95858 27.8593C6.56806 28.2498 5.93489 28.2498 5.54437 27.8593L0.292893 22.6078C-0.0976311 22.2173 -0.0976311 21.5841 0.292893 21.1936L2.37081 19.1157C2.40479 19.0817 2.40479 19.0266 2.37081 18.9926L1.56818 18.19C1.37292 17.9948 1.37292 17.6782 1.56818 17.4829L9.44786 9.60323L17.3275 1.72355C17.5228 1.52829 17.8394 1.52829 18.0346 1.72355ZM17.9705 3.07647C17.9713 3.07568 17.9713 3.07438 17.9705 3.07358L17.8265 2.92963C17.7462 2.84931 17.616 2.84932 17.5357 2.92963L10.155 10.3103L4.04305 16.4222C3.26201 17.2033 3.26201 18.4696 4.04305 19.2507L8.68535 23.893C9.4664 24.674 10.7327 24.674 11.5138 23.893L24.8947 10.512C25.0367 10.37 25.0367 10.1398 24.8947 9.99784L24.639 9.74216C24.6382 9.74136 24.637 9.74136 24.6362 9.74216C24.6354 9.74296 24.6341 9.74296 24.6333 9.74216L23.9276 9.0365L18.6761 3.78503L17.9705 3.07937C17.9697 3.07857 17.9697 3.07727 17.9705 3.07647ZM24.4601 12.3609C25.2363 11.5846 26.4931 11.5791 27.2761 12.3486L28.2638 13.3191C29.2778 14.3155 28.7844 16.0392 27.3969 16.3483C24.4434 17.0062 22.0623 19.1846 21.145 22.0681L20.663 23.5833C19.7884 26.3324 17.4146 28.3362 14.5577 28.7369C14.0057 28.8143 13.4492 28.6295 13.0533 28.2372L12.2355 27.4269C11.4483 26.6469 11.4454 25.3755 12.229 24.592L24.4601 12.3609ZM4.11688 20.8617C3.54308 20.2879 2.61276 20.2879 2.03896 20.8617C1.46516 21.4355 1.46516 22.3659 2.03896 22.9397L5.21251 26.1132C5.78632 26.687 6.71663 26.687 7.29043 26.1132C7.86424 25.5394 7.86424 24.6091 7.29044 24.0353L4.11688 20.8617Z"></path>
    </symbol>
    <symbol fill="currentColor" xmlns="http://www.w3.org/2000/svg" viewBox="0 0 29 27" id="bumazhnaya-upakovka">
      <path fill-rule="evenodd" clip-rule="evenodd" d="M2.04048 19.0505C1.46584 18.4759 1.46584 17.5442 2.04048 16.9695L16.9695 2.04048C17.5442 1.46584 18.4759 1.46584 19.0505 2.04048C19.6251 2.61512 19.6251 3.54679 19.0505 4.12143L4.12143 19.0505C3.54679 19.6251 2.61512 19.6251 2.04048 19.0505ZM0.292893 18.7171C-0.0976311 18.3266 -0.0976311 17.6934 0.292893 17.3029L17.3029 0.292893C17.6934 -0.0976308 18.3266 -0.0976313 18.7171 0.292893L20.7981 2.37385C21.1886 2.76437 21.1886 3.39754 20.7981 3.78806L7.36949 17.2166C6.10956 18.4766 7.00189 20.6309 8.7837 20.6309H27.648C28.2003 20.6309 28.648 21.0786 28.648 21.6309V25.6437C28.648 26.196 28.2003 26.6437 27.648 26.6437H3.59222C3.03994 26.6437 2.59222 26.196 2.59222 25.6437V21.6309V21.3253C2.59222 21.1275 2.51367 20.9379 2.37385 20.7981L0.292893 18.7171ZM18.1441 11.1284C18.3728 11.2832 18.4326 11.5941 18.2777 11.8227L17.2292 13.3708C16.9447 13.7908 17.0216 14.3577 17.4077 14.6869C18.2464 15.402 18.3467 16.6616 17.6316 17.5004L16.763 18.5191C16.5839 18.7293 16.2683 18.7544 16.0581 18.5752C15.848 18.3961 15.8229 18.0805 16.002 17.8704L16.8706 16.8516C17.2274 16.4331 17.1774 15.8046 16.7589 15.4479C15.985 14.7881 15.831 13.652 16.4013 12.81L17.4498 11.2619C17.6046 11.0333 17.9155 10.9735 18.1441 11.1284ZM27.648 23.6373C27.648 22.5327 26.7526 21.6309 25.648 21.6309H5.59222C4.48765 21.6309 3.59222 22.5327 3.59222 23.6373C3.59222 24.7419 4.48766 25.6437 5.59223 25.6437H25.648C26.7526 25.6437 27.648 24.7419 27.648 23.6373ZM21.4304 14.8985C21.5853 14.6699 21.5255 14.359 21.2968 14.2042C21.0682 14.0493 20.7573 14.1091 20.6025 14.3377L19.8742 15.413C19.4345 16.0622 19.5532 16.9383 20.15 17.447C20.3765 17.6401 20.4035 17.9803 20.2104 18.2067L19.6071 18.9143C19.428 19.1245 19.4531 19.4401 19.6632 19.6192C19.8734 19.7984 20.189 19.7733 20.3681 19.5631L20.9714 18.8555C21.5228 18.2088 21.4455 17.2375 20.7987 16.686C20.5898 16.5079 20.5482 16.2011 20.7022 15.9737L21.4304 14.8985ZM14.2818 14.2042C14.5105 14.359 14.5703 14.6699 14.4154 14.8985L13.6872 15.9737C13.5332 16.2011 13.5748 16.5079 13.7837 16.686C14.4305 17.2375 14.5078 18.2088 13.9564 18.8555L13.3531 19.5631C13.1739 19.7733 12.8584 19.7984 12.6482 19.6192C12.4381 19.4401 12.413 19.1245 12.5921 18.9143L13.1954 18.2067C13.3885 17.9803 13.3614 17.6401 13.1349 17.447C12.5382 16.9383 12.4195 16.0622 12.8592 15.413L13.5874 14.3377C13.7423 14.1091 14.0532 14.0493 14.2818 14.2042Z"></path>
    </symbol>
    <symbol fill="currentColor" xmlns="http://www.w3.org/2000/svg" viewBox="0 0 36 14" id="tortniczy">
      <path fill-rule="evenodd" clip-rule="evenodd" d="M4.51885 9.5C4.51885 6.19417 4.67064 4.22233 6.31445 2.95894C7.15615 2.31203 8.43597 1.81528 10.4135 1.48537C12.3871 1.15614 15.01 1 18.4993 1C21.9887 1 24.6119 1.15613 26.5859 1.48537C28.5639 1.81528 29.8444 2.31205 30.6867 2.95903C32.3317 4.2225 32.4846 6.19446 32.4846 9.5C32.4846 9.77614 32.7085 10 32.9846 10C33.2608 10 33.4846 9.77614 33.4846 9.5C33.4846 6.30554 33.394 3.7775 31.2959 2.16597C30.4787 1.53831 29.3862 1.07205 27.9444 0.735412C27.9819 0.665257 28.0032 0.585113 28.0032 0.5C28.0032 0.223858 27.7794 0 27.5032 0H18.7532H18.4993H10.0032C9.72708 0 9.50322 0.223858 9.50322 0.5C9.50322 0.546252 9.5095 0.591038 9.52126 0.63355C7.84643 0.975854 6.60762 1.47238 5.70507 2.16606C3.60819 3.77767 3.51885 6.30583 3.51885 9.5C3.51885 9.77614 3.74271 10 4.01885 10C4.29499 10 4.51885 9.77614 4.51885 9.5ZM0.5 14C0.223858 14 0 13.7761 0 13.5C0 13.2239 0.223858 13 0.5 13H0.719512L1.63593 12.9485C1.89366 11.809 2.90612 11 4.07433 11H31.9257C33.0939 11 34.1063 11.809 34.3641 12.9485L35.2805 13H35.5C35.7761 13 36 13.2239 36 13.5C36 13.7761 35.7761 14 35.5 14H0.5ZM4.07433 12C3.37341 12 2.81468 12.3163 2.66004 13H33.34C33.1853 12.3163 32.6266 12 31.9257 12H4.07433Z"></path>
    </symbol>
    <symbol fill="currentColor" xmlns="http://www.w3.org/2000/svg" viewBox="0 0 28 20" id="kontejnery">
      <path fill-rule="evenodd" clip-rule="evenodd" d="M6.3775 1C5.75539 1 5.19785 1.38401 4.97606 1.96524L4.22595 3.93103H23.774L23.0239 1.96524C22.8022 1.38401 22.2446 1 21.6225 1H6.3775ZM24.8444 3.93103L23.9582 1.60873C23.5886 0.640013 22.6594 0 21.6225 0H6.3775C5.34065 0 4.41141 0.640013 4.04177 1.60873L3.15563 3.93103H0.5C0.223858 3.93103 0 4.15489 0 4.43103C0 4.70718 0.223858 4.93103 0.5 4.93103H3.08973L5.6892 17.9881C5.92204 19.1577 6.94855 20 8.14108 20H19.8589C21.0514 20 22.078 19.1577 22.3108 17.9881L24.9103 4.93103H27.5C27.7761 4.93103 28 4.70718 28 4.43103C28 4.15489 27.7761 3.93103 27.5 3.93103H24.8444ZM23.8906 4.93103H4.10935L6.66995 17.7929C6.80966 18.4946 7.42556 19 8.14108 19H19.8589C20.5744 19 21.1903 18.4946 21.33 17.7929L23.8906 4.93103Z"></path>
    </symbol>
    <symbol fill="currentColor" xmlns="http://www.w3.org/2000/svg" viewBox="0 0 19 32" id="pakety">
      <path fill-rule="evenodd" clip-rule="evenodd" d="M2.5 1C1.67157 1 1 1.67157 1 2.5V29.5C1 30.3284 1.67157 31 2.5 31H16.5C17.3284 31 18 30.3284 18 29.5V2.5C18 1.67157 17.3284 1 16.5 1H15.6151C14.7867 1 14.1151 1.67157 14.1151 2.5V8.73585C14.1151 10.1166 12.9958 11.2358 11.6151 11.2358H7.38489C6.00418 11.2358 4.88489 10.1166 4.88489 8.73585V2.5C4.88489 1.67157 4.21332 1 3.38489 1H2.5ZM0 2.5C0 1.11929 1.11929 0 2.5 0H3.38489C4.7656 0 5.88489 1.11929 5.88489 2.5V8.73585C5.88489 9.56427 6.55647 10.2358 7.38489 10.2358H11.6151C12.4435 10.2358 13.1151 9.56428 13.1151 8.73585V2.5C13.1151 1.11929 14.2344 0 15.6151 0H16.5C17.8807 0 19 1.11929 19 2.5V29.5C19 30.8807 17.8807 32 16.5 32H2.5C1.11929 32 0 30.8807 0 29.5V2.5Z"></path>
    </symbol>
    <symbol fill="currentColor" xmlns="http://www.w3.org/2000/svg" viewBox="0 0 39 14" id="lotok-pod-zapajku">
      <path fill-rule="evenodd" clip-rule="evenodd" d="M0 0.5C0 0.223858 0.223858 0 0.5 0H38.5C38.7761 0 39 0.223858 39 0.5C39 0.776142 38.7761 1 38.5 1H35.0368V11.5C35.0368 12.8807 33.9175 14 32.5368 14H6.46319C5.08248 14 3.96319 12.8807 3.96319 11.5V1H0.5C0.223858 1 0 0.776142 0 0.5ZM4.96319 1V11.5C4.96319 12.3284 5.63476 13 6.46319 13H32.5368C33.3652 13 34.0368 12.3284 34.0368 11.5V1H4.96319ZM9.59202 4.18644C9.86817 4.18644 10.092 4.4103 10.092 4.68644V9.75424C10.092 10.0304 9.86817 10.2542 9.59202 10.2542C9.31588 10.2542 9.09202 10.0304 9.09202 9.75424V4.68644C9.09202 4.4103 9.31588 4.18644 9.59202 4.18644ZM16.1196 4.18644C16.3958 4.18644 16.6196 4.4103 16.6196 4.68644V9.75424C16.6196 10.0304 16.3958 10.2542 16.1196 10.2542C15.8435 10.2542 15.6196 10.0304 15.6196 9.75424V4.68644C15.6196 4.4103 15.8435 4.18644 16.1196 4.18644ZM22.8804 4.18644C23.1565 4.18644 23.3804 4.4103 23.3804 4.68644V9.75424C23.3804 10.0304 23.1565 10.2542 22.8804 10.2542C22.6042 10.2542 22.3804 10.0304 22.3804 9.75424V4.68644C22.3804 4.4103 22.6042 4.18644 22.8804 4.18644ZM28.9417 4.18644C29.2179 4.18644 29.4417 4.4103 29.4417 4.68644V9.75424C29.4417 10.0304 29.2179 10.2542 28.9417 10.2542C28.6656 10.2542 28.4417 10.0304 28.4417 9.75424V4.68644C28.4417 4.4103 28.6656 4.18644 28.9417 4.18644Z"></path>
    </symbol>
    <symbol fill="currentColor" xmlns="http://www.w3.org/2000/svg" viewBox="0 0 18 24" id="odnorazovaya-posuda">
      <path fill-rule="evenodd" clip-rule="evenodd" d="M1.31706 2.04108C1.31706 0.913824 2.23088 0 3.35814 0H13.7443C14.8716 0 15.7854 0.913824 15.7854 2.04108V2.387C15.7854 2.60701 15.9203 2.80454 16.1252 2.88467C17.7048 3.50242 17.2624 5.84804 15.5663 5.84804H1.53616C-0.159926 5.84804 -0.602282 3.50242 0.977307 2.88467C1.18221 2.80454 1.31706 2.60701 1.31706 2.387V2.04108ZM3.35814 1C2.78316 1 2.31706 1.46611 2.31706 2.04108V2.387C2.31706 3.01873 1.92987 3.5859 1.34153 3.81598C0.791403 4.03113 0.945459 4.84804 1.53616 4.84804H15.5663C16.157 4.84804 16.3111 4.03113 15.7609 3.81598C15.1726 3.5859 14.7854 3.01873 14.7854 2.387V2.04108C14.7854 1.46611 14.3193 1 13.7443 1H3.35814ZM1.7594 7.42981C2.0337 7.39796 2.28188 7.59452 2.31372 7.86882L3.6597 19.464C3.68575 19.6885 3.87588 19.8578 4.10187 19.8578H13.0006C13.2266 19.8578 13.4167 19.6885 13.4428 19.464L14.7887 7.86882C14.8206 7.59452 15.0688 7.39796 15.3431 7.42981C15.6174 7.46165 15.8139 7.70982 15.7821 7.98412L14.4361 19.5793C14.3717 20.1341 13.9987 20.5851 13.5006 20.7688V21.5C13.5006 22.8807 12.3813 24 11.0006 24H6.10187C4.72115 24 3.60187 22.8807 3.60187 21.5V20.7688C3.10379 20.5851 2.73076 20.1341 2.66637 19.5793L1.32039 7.98412C1.28855 7.70982 1.4851 7.46165 1.7594 7.42981ZM4.60187 20.8578V21.5C4.60187 22.3284 5.27344 23 6.10187 23H11.0006C11.829 23 12.5006 22.3284 12.5006 21.5V20.8578H4.60187Z"></path>
    </symbol>
    <symbol fill="currentColor" xmlns="http://www.w3.org/2000/svg" viewBox="0 0 39 7" id="yomkosti-iz-vps">
      <path fill-rule="evenodd" clip-rule="evenodd" d="M0 0.5C0 0.223858 0.223858 0 0.5 0H38.5C38.7761 0 39 0.223858 39 0.5C39 0.776142 38.7761 1 38.5 1H35.2805L34.3641 5.05154C34.1063 6.19097 33.0939 7 31.9257 7H7.07433C5.90612 7 4.89366 6.19097 4.63593 5.05154L3.71951 1H0.5C0.223858 1 0 0.776142 0 0.5ZM4.74477 1L5.61129 4.83092C5.76593 5.51458 6.37341 6 7.07433 6H31.9257C32.6266 6 33.2341 5.51458 33.3887 4.83092L34.2552 1H4.74477Z"></path>
    </symbol>
    <symbol fill="currentColor" xmlns="http://www.w3.org/2000/svg" viewBox="0 0 19 35" id="khozyajstvennye-tovary">
      <path fill-rule="evenodd" clip-rule="evenodd" d="M5.08716 1C4.25873 1 3.58716 1.67157 3.58716 2.5V4.10802C3.58716 4.79458 4.14372 5.35114 4.83028 5.35114C6.06912 5.35114 7.07339 6.35542 7.07339 7.59426V9.81043H10.2936V7.63486C10.2936 7.35871 10.5174 7.13486 10.7936 7.13486C11.0697 7.13486 11.2936 7.35871 11.2936 7.63486V10.0992L13.472 12.2168C13.9562 12.6875 14.2294 13.3341 14.2294 14.0094V14.413C14.2294 14.6891 14.0055 14.913 13.7294 14.913C13.4532 14.913 13.2294 14.6891 13.2294 14.413V14.0094C13.2294 13.6042 13.0654 13.2163 12.7749 12.9339L10.5906 10.8104H6.57339C5.93751 10.8104 5.42202 11.3259 5.42202 11.9618V14.413C5.42202 14.6891 5.19816 14.913 4.92202 14.913C4.64588 14.913 4.42202 14.6891 4.42202 14.413V11.9618C4.42202 10.9458 5.12635 10.0942 6.07339 9.86883V7.59426C6.07339 6.9077 5.51683 6.35114 4.83028 6.35114C3.59144 6.35114 2.58716 5.34686 2.58716 4.10802V2.5C2.58716 1.11929 3.70644 0 5.08716 0H16.5C17.8807 0 19 1.11929 19 2.5V3.85114C19 5.23185 17.8807 6.35114 16.5 6.35114H13.79L17.2118 9.96674C17.4016 10.1673 17.3929 10.4838 17.1923 10.6736C16.9917 10.8634 16.6753 10.8547 16.4855 10.6541L12.4132 6.35114H9.69266C9.41652 6.35114 9.19266 6.12728 9.19266 5.85114C9.19266 5.575 9.41652 5.35114 9.69266 5.35114H15.0642V1H5.08716ZM16.0642 1V5.35114H16.5C17.3284 5.35114 18 4.67957 18 3.85114V2.5C18 1.67157 17.3284 1 16.5 1H16.0642ZM0 18.344C0 16.9633 1.11929 15.844 2.5 15.844H14.4817C15.8624 15.844 16.9817 16.9633 16.9817 18.344V32.5C16.9817 33.8807 15.8624 35 14.4817 35H2.5C1.11929 35 0 33.8807 0 32.5V18.344ZM2.5 16.844C1.67157 16.844 1 17.5156 1 18.344V32.5C1 33.3284 1.67157 34 2.5 34H14.4817C15.3101 34 15.9817 33.3284 15.9817 32.5V18.344C15.9817 17.5156 15.3101 16.844 14.4817 16.844H2.5Z"></path>
    </symbol>
    <symbol fill="currentColor" xmlns="http://www.w3.org/2000/svg" viewBox="0 0 30 19" id="vyodra-banki-yomkosti">
      <path fill-rule="evenodd" clip-rule="evenodd" d="M2.57528 2.36009C2.64785 1.04446 3.73767 0 5.07143 0H24.9286C26.2623 0 27.3521 1.04446 27.4247 2.36009L28.8036 3.20275C29.5468 3.65689 30 4.46504 30 5.33595V6.52872C30 7.19176 29.7366 7.82764 29.2678 8.29648L23.7251 13.8392C23.2562 14.308 22.6203 14.5714 21.9573 14.5714H18.7862C18.57 15.3143 17.8841 15.8571 17.0714 15.8571H12.9286C12.1159 15.8571 11.43 15.3143 11.2138 14.5714H8.04271C7.37967 14.5714 6.74379 14.308 6.27495 13.8392L0.732234 8.29648C0.263393 7.82764 0 7.19176 0 6.52872V5.33595C0 4.46504 0.453239 3.65689 1.19638 3.20275L2.57528 2.36009ZM2.57143 3.53439L1.71783 4.05603C1.27194 4.32852 1 4.8134 1 5.33595V6.52872C1 6.92654 1.15804 7.30807 1.43934 7.58938L6.98205 13.1321C7.26336 13.4134 7.64489 13.5714 8.04271 13.5714H11.2138C11.43 12.8286 12.1159 12.2857 12.9286 12.2857H17.0714C17.8841 12.2857 18.57 12.8286 18.7862 13.5714H21.9573C22.3551 13.5714 22.7366 13.4134 23.0179 13.1321L28.5607 7.58938C28.842 7.30807 29 6.92654 29 6.52872V5.33595C29 4.81341 28.7281 4.32852 28.2822 4.05603L27.4286 3.53439V3.64286C27.4286 4.38224 26.9401 5.00754 26.2683 5.21369L26.1305 8.52081C26.119 8.79672 25.886 9.01106 25.6101 8.99957C25.3342 8.98807 25.1199 8.75509 25.1314 8.47919L25.2644 5.28571H4.73555L4.86861 8.47919C4.88011 8.75509 4.66577 8.98807 4.38986 8.99957C4.11396 9.01106 3.88098 8.79672 3.86948 8.52081L3.73168 5.21369C3.05987 5.00754 2.57143 4.38224 2.57143 3.64286V3.53439ZM25.7857 4.28571C26.1408 4.28571 26.4286 3.9979 26.4286 3.64286V2.5C26.4286 1.67157 25.757 1 24.9286 1H5.07143C4.243 1 3.57143 1.67157 3.57143 2.5V3.64286C3.57143 3.9979 3.85925 4.28571 4.21429 4.28571H25.7857ZM12.9286 13.2857C12.4946 13.2857 12.1429 13.6375 12.1429 14.0714C12.1429 14.5054 12.4946 14.8571 12.9286 14.8571H17.0714C17.5054 14.8571 17.8571 14.5054 17.8571 14.0714C17.8571 13.6375 17.5054 13.2857 17.0714 13.2857H12.9286ZM4.59823 14.0004C4.87414 13.9889 5.10712 14.2033 5.11861 14.4792L5.20542 16.5624C5.23889 17.3659 5.89998 18 6.70412 18H23.2959C24.1 18 24.7611 17.3659 24.7946 16.5624L24.8814 14.4792C24.8929 14.2033 25.1259 13.9889 25.4018 14.0004C25.6777 14.0119 25.892 14.2449 25.8805 14.5208L25.7937 16.6041C25.7379 17.9431 24.6361 19 23.2959 19H6.70412C5.36389 19 4.26208 17.9431 4.20628 16.6041L4.11948 14.5208C4.10799 14.2449 4.32233 14.0119 4.59823 14.0004Z"></path>
    </symbol>
    <symbol fill="currentColor" xmlns="http://www.w3.org/2000/svg" viewBox="0 0 16 16" id="close-button">
      <path fill-rule="evenodd" clip-rule="evenodd" d="M14.9538 15.6936C14.5452 16.1021 13.8827 16.1021 13.4742 15.6936L0.306436 2.52584C-0.102145 2.11726 -0.102145 1.45482 0.306436 1.04624L1.04624 0.306437C1.45482 -0.102145 2.11726 -0.102146 2.52584 0.306435L15.6936 13.4742C16.1021 13.8827 16.1021 14.5452 15.6936 14.9538L14.9538 15.6936Z"></path>
      <path fill-rule="evenodd" clip-rule="evenodd" d="M1.04624 15.6936C1.45482 16.1021 2.11726 16.1021 2.52584 15.6936L15.6936 2.52584C16.1021 2.11726 16.1021 1.45482 15.6936 1.04624L14.9538 0.306437C14.5452 -0.102145 13.8827 -0.102146 13.4742 0.306435L0.306436 13.4742C-0.102145 13.8827 -0.102145 14.5452 0.306436 14.9538L1.04624 15.6936Z"></path>
    </symbol>
    <symbol fill="currentColor" xmlns="http://www.w3.org/2000/svg" viewBox="0 0 27 26" id="phone">
      <path d="M4.71956 0C4.99652 0.068459 5.27885 0.120228 5.54958 0.208206C6.46495 0.505522 7.10506 1.13155 7.57391 1.95193C7.79378 2.33779 7.86358 2.77429 7.98115 3.19381C8.22721 4.07152 8.4678 4.95093 8.70293 5.83203C8.89143 6.53133 8.80608 7.21224 8.54919 7.87986C8.39337 8.28516 8.15065 8.65133 7.83815 8.95257C7.48743 9.29459 7.14604 9.64622 6.79674 9.98936C6.73824 10.0459 6.72411 10.0923 6.74756 10.173C6.96218 10.9281 7.2414 11.6633 7.58211 12.3704C8.63333 14.5335 10.2581 16.3658 12.2791 17.6672C13.3202 18.3394 14.4376 18.8415 15.6192 19.2118C15.8736 19.2913 16.0211 19.2455 16.1935 19.0568C16.5243 18.6886 16.8743 18.3382 17.2419 18.007C17.9044 17.4206 18.7036 17.1781 19.5754 17.2282C19.9454 17.2494 20.3128 17.36 20.6748 17.4545C21.6142 17.7023 22.5558 17.9442 23.4856 18.2254C24.5429 18.545 25.2757 19.2559 25.7146 20.2588C25.8446 20.5555 25.8906 20.8893 25.9754 21.2059C25.9839 21.2376 25.9926 21.269 26.0011 21.3007V21.6967C25.9918 21.7471 25.9794 21.7974 25.9729 21.8483C25.8999 22.5556 25.6448 23.1779 25.1363 23.6851C24.59 24.232 24.0436 24.779 23.4972 25.3259C23.045 25.7833 22.4756 25.9796 21.8561 25.9955C21.251 26.0108 20.6429 25.9799 20.0386 25.9335C18.6324 25.8224 17.2408 25.5714 15.8843 25.1842C14.6543 24.8367 13.4573 24.3811 12.3073 23.8229C9.84696 22.6278 7.63209 20.9819 5.77737 18.9702C3.96857 17.0006 2.53537 14.716 1.5487 12.2296C1.08415 11.0583 0.722086 9.8488 0.466587 8.61481C0.21381 7.40725 0.0662995 6.17999 0.0257174 4.94687C0.020913 4.78789 0.00876087 4.62862 0 4.46964V3.93215C0.0262826 3.84276 0.0539782 3.75365 0.0788478 3.66397C0.209696 3.19664 0.399043 2.77061 0.768695 2.42577C1.28446 1.94486 1.7728 1.43396 2.26652 0.92844C2.63674 0.548238 3.068 0.275816 3.58122 0.142859C3.81522 0.0820377 4.05685 0.0469595 4.29565 0H4.71956Z"></path>
    </symbol>
    <symbol fill="currentColor" xmlns="http://www.w3.org/2000/svg" viewBox="0 0 31 30" id="cart">
      <path fill-rule="evenodd" clip-rule="evenodd" d="M0 1.73789C0 1.24083 0.402944 0.837891 0.9 0.837891H4.12625C4.5321 0.837891 4.88775 1.10953 4.99454 1.50108L6.14553 5.72138L29.9954 7.29233C30.4685 7.32349 30.8362 7.71629 30.8362 8.19039V17.8691C30.8362 18.3394 30.4742 18.7304 30.0053 18.7665L9.03465 20.3796C8.60423 20.4127 8.21092 20.1355 8.09733 19.7191L4.57779 6.81407L3.43883 2.63789H0.9C0.402944 2.63789 0 2.23495 0 1.73789ZM11.4517 9.58543C11.3312 9.10321 10.8425 8.81003 10.3603 8.93058C9.87812 9.05114 9.58493 9.53978 9.70549 10.022L11.3186 16.4745C11.4392 16.9567 11.9278 17.2499 12.41 17.1293C12.8922 17.0088 13.1854 16.5201 13.0649 16.0379L11.4517 9.58543ZM17.7091 9.31559C18.2012 9.24529 18.6571 9.5872 18.7274 10.0793L19.5339 15.7252C19.6042 16.2173 19.2623 16.6731 18.7703 16.7434C18.2782 16.8137 17.8223 16.4718 17.752 15.9798L16.9455 10.3338C16.8752 9.84176 17.2171 9.38588 17.7091 9.31559ZM25.9962 10.6099C25.9962 10.1128 25.5932 9.70986 25.0962 9.70986C24.5991 9.70986 24.1962 10.1128 24.1962 10.6099V15.4492C24.1962 15.9463 24.5991 16.3492 25.0962 16.3492C25.5932 16.3492 25.9962 15.9463 25.9962 15.4492V10.6099ZM15.4169 25.9347C15.4169 27.7165 13.9724 29.161 12.1906 29.161C10.4088 29.161 8.96436 27.7165 8.96436 25.9347C8.96436 24.1529 10.4088 22.7085 12.1906 22.7085C13.9724 22.7085 15.4169 24.1529 15.4169 25.9347ZM25.0939 29.161C26.8757 29.161 28.3201 27.7165 28.3201 25.9347C28.3201 24.1529 26.8757 22.7085 25.0939 22.7085C23.3121 22.7085 21.8677 24.1529 21.8677 25.9347C21.8677 27.7165 23.3121 29.161 25.0939 29.161Z"></path>
    </symbol>
    <symbol fill="currentColor" xmlns="http://www.w3.org/2000/svg" viewBox="0 0 21 28" id="placemark">
      <path fill-rule="evenodd" clip-rule="evenodd" d="M8.64107 27.0245C4.98342 22.3327 0 15.7656 0 10.3688C0 4.66597 4.29565 0 10.2022 0C15.5717 0 20.4044 4.14753 20.4044 10.8873C20.4044 15.8429 15.5358 22.3645 11.7962 27.0501C10.9878 28.063 9.43791 28.0466 8.64107 27.0245ZM10 14.4828C12.7614 14.4828 15 12.3214 15 9.65517C15 6.98897 12.7614 4.82759 10 4.82759C7.23858 4.82759 5 6.98897 5 9.65517C5 12.3214 7.23858 14.4828 10 14.4828Z"></path>
    </symbol>
    <symbol fill="currentColor" xmlns="http://www.w3.org/2000/svg" viewBox="0 0 27 27" id="magnifier">
      <path fill-rule="evenodd" clip-rule="evenodd" d="M11.1023 3.77507C6.91727 3.77507 3.65319 7.12162 3.65319 11.0893C3.65319 15.0569 6.91727 18.4035 11.1023 18.4035C13.1838 18.4035 15.0517 17.568 16.3962 16.2342C17.7394 14.9017 18.5514 13.0837 18.5514 11.0893C18.5514 7.12162 15.2873 3.77507 11.1023 3.77507ZM0 11.0893C0 4.89295 5.04165 0 11.1023 0C17.1629 0 22.2046 4.89295 22.2046 11.0893C22.2046 12.8256 21.8047 14.4655 21.0965 15.9236C20.6412 16.8611 20.7172 18.0263 21.4464 18.7559L26.444 23.7564C27.1688 24.4816 27.1874 25.6766 26.4856 26.4255C25.7839 27.1744 24.6275 27.1936 23.9028 26.4685L18.7518 21.3145C18.0551 20.6174 16.9865 20.5452 16.1155 20.986C14.6066 21.7498 12.902 22.1785 11.1023 22.1785C5.04165 22.1785 0 17.2856 0 11.0893Z"></path>
    </symbol>
    <symbol fill="currentColor" xmlns="http://www.w3.org/2000/svg" viewBox="0 0 67 67" id="boxes">
      <path d="M4 38C4 36.8954 4.89543 36 6 36H19C20.1046 36 21 36.8954 21 38V49C21 50.1046 20.1046 51 19 51H6C4.89543 51 4 50.1046 4 49V38Z"></path>
      <path d="M25 38C25 36.8954 25.8954 36 27 36H40C41.1046 36 42 36.8954 42 38V49C42 50.1046 41.1046 51 40 51H27C25.8954 51 25 50.1046 25 49V38Z"></path>
      <path d="M46 38C46 36.8954 46.8954 36 48 36H61C62.1046 36 63 36.8954 63 38V49C63 50.1046 62.1046 51 61 51H48C46.8954 51 46 50.1046 46 49V38Z"></path>
      <path d="M36 19C36 17.8954 36.8954 17 38 17H51C52.1046 17 53 17.8954 53 19V30C53 31.1046 52.1046 32 51 32H38C36.8954 32 36 31.1046 36 30V19Z"></path>
      <path d="M15 19C15 17.8954 15.8954 17 17 17H30C31.1046 17 32 17.8954 32 19V30C32 31.1046 31.1046 32 30 32H17C15.8954 32 15 31.1046 15 30V19Z"></path>
    </symbol>
    <symbol fill="currentColor" xmlns="http://www.w3.org/2000/svg" viewBox="0 0 67 67" id="earth">
      <path d="M33.5012 14C22.7331 14.0031 14.0039 22.7296 14 33.4996C14.0039 44.27 22.7331 52.9973 33.5012 53C44.2712 52.9969 52.9973 44.27 52.9973 33.4996C52.9977 22.7296 44.2712 14.0031 33.5012 14ZM17.1266 33.4996C17.1337 30.0113 18.2339 26.7867 20.0926 24.1333C20.1078 25.6775 20.6801 27.6306 22.5634 29.8907C24.7517 32.5157 27.0481 33.6112 30.6601 35.7991C34.2702 37.9848 33.7212 38.9703 32.8438 39.9562C31.9694 40.9393 29.8927 44.5463 33.1719 46.5177C35.6993 48.0315 36.1296 48.1563 35.6899 49.4688C35.6583 49.5647 35.6236 49.6334 35.59 49.722C34.9049 49.8105 34.2116 49.8714 33.502 49.8734C24.4591 49.8585 17.1434 42.5444 17.1266 33.4996ZM40.7938 48.1352C41.5343 47.0428 42.3283 45.5856 43.0138 43.6735C44.5494 39.41 45.3121 33.8305 42.3607 34.4871C39.7603 35.0641 36.565 35.6891 35.0302 35.9064C33.5012 36.1257 32.7369 34.015 30.6601 32.9222C28.5834 31.8294 27.9252 29.8326 29.5638 28.6306C31.2059 27.4281 33.9327 31.2032 35.0302 29.8907C36.1198 28.5783 34.2698 28.4683 35.6887 25.6272C37.1097 22.7826 37.245 23.3046 38.3137 20.924C38.8517 19.7239 38.7471 18.6974 38.4112 17.8843C45.0496 19.9747 49.8617 26.1672 49.8745 33.4992C49.8632 39.9179 46.1658 45.4514 40.7938 48.1352Z"></path>
    </symbol>
    <symbol fill="currentColor" xmlns="http://www.w3.org/2000/svg" viewBox="0 0 67 67" id="handshake">
      <path d="M30.4296 15H28.7151C28.4563 15.0704 28.1956 15.1354 27.9348 15.2005C27.3572 15.3447 26.7794 15.4889 26.222 15.6907C24.4714 16.3219 22.8638 17.2445 21.2952 18.238C21.2331 18.2773 21.1709 18.3171 21.1086 18.3569C20.4065 18.8057 19.6887 19.2647 18.8335 19.2865C18.159 19.3036 17.4507 19.2243 16.809 19.0232C15.6924 18.6738 14.5902 18.2777 13.488 17.8815C13.0156 17.7117 12.5431 17.5418 12.0695 17.3757C11.8486 17.2984 11.6259 17.2255 11.398 17.151C11.2954 17.1174 11.1916 17.0835 11.0865 17.0487L11.0552 17.5496C11.0363 17.8524 11.0183 18.1415 11 18.4305V34.3593L14.4119 35.5985C14.5108 35.6341 14.6092 35.6698 14.7309 35.714C15.1216 34.6968 15.7443 33.8721 16.6227 33.2565C20.2869 30.6886 31.9739 41.3788 31.7069 45.7463C31.6874 46.0634 31.7972 46.2293 32.023 46.388C32.5753 46.7759 33.1642 47.0806 33.8449 47.1467C35.4553 47.3026 36.7012 46.215 36.7777 44.5979C36.7815 44.5195 36.7807 44.4408 36.7797 44.3485C36.7792 44.3022 36.7786 44.2522 36.7786 44.1972C37.7778 44.7748 38.7788 44.8494 39.748 44.2742C40.7458 43.682 40.9806 42.7033 40.9169 41.5772C41.9526 41.996 42.9603 42.0383 43.8782 41.389C44.8308 40.715 45.0256 39.7258 44.8754 38.6254C44.9847 38.6348 45.094 38.6468 45.2032 38.6588C45.4396 38.6847 45.6762 38.7106 45.9121 38.711C46.9107 38.7124 47.7966 38.1062 48.2043 37.2336L48.1529 37.2754L39.5069 27.162C39.3561 26.9856 39.1516 26.8605 38.9231 26.8048C38.7001 26.7505 38.4654 26.7649 38.2512 26.8461L31.6466 29.3497C30.7468 29.6908 29.7634 29.7639 28.821 29.5598C25.9978 28.9482 24.3376 26.09 25.2522 23.4157L25.2836 23.3238C25.5936 22.4171 26.1721 21.6201 26.9461 21.0333L33.1846 16.3036C32.479 15.6849 31.6523 15.2533 30.6564 15.0746C30.604 15.0653 30.5534 15.046 30.5027 15.0267C30.4784 15.0174 30.4541 15.0082 30.4296 15Z"></path>
      <path d="M50.9909 34.9521L42.354 24.8493C41.6999 24.0842 40.8132 23.5416 39.8219 23.3001C38.855 23.0644 37.8368 23.127 36.9079 23.4791L30.3033 25.9828C30.0873 26.0646 29.8512 26.0822 29.6249 26.0332C28.9471 25.8864 28.5486 25.2001 28.7681 24.5581L28.7995 24.4662C28.8782 24.2361 29.025 24.0339 29.2215 23.8849L35.4331 18.2442C36.017 17.9203 36.6007 17.596 37.184 17.2711C37.7758 16.9417 38.3514 16.5818 38.9256 16.2225C40.8308 15.0308 42.7606 15.1516 44.6886 16.1369C45.1299 16.3627 45.562 16.6073 45.9941 16.8519C46.5964 17.1929 47.1984 17.5337 47.8248 17.8229C48.5264 18.1471 49.3012 18.3539 50.0655 18.4903C51.0761 18.6705 52.0823 18.4513 53.0553 18.169C53.7435 17.9695 54.4232 17.7407 55.103 17.5119C55.4017 17.4113 55.7005 17.3107 56 17.2126C56.0005 22.9047 56.0005 28.5949 56.0005 34.2856C55.7604 34.3579 55.5207 34.4316 55.2811 34.5054C54.763 34.6648 54.245 34.8241 53.7227 34.9691C52.7705 35.2337 51.8486 35.2523 50.9909 34.9521Z"></path>
      <path d="M25.1963 40.6429C28.3568 43.7992 29.8115 47.4666 28.4456 48.8343C27.0797 50.2021 23.4103 48.7522 20.2498 45.5959C17.0894 42.4395 15.6347 38.7721 17.0006 37.4044C18.3665 36.0366 22.0359 37.4865 25.1963 40.6429Z"></path>
    </symbol>
    <symbol fill="currentColor" xmlns="http://www.w3.org/2000/svg" viewBox="0 0 67 67" id="loupe">
      <path fill-rule="evenodd" clip-rule="evenodd" d="M16.1638 40.9232C12.9902 37.8132 11 33.6147 11 28.9496C11 24.2328 12.9902 20.0342 16.1638 16.976C19.3374 13.9178 23.6944 12 28.5892 12C33.4303 12 37.7873 13.9178 41.0147 16.976C44.1883 20.0342 46.1247 24.2328 46.1247 28.9496C46.1247 33.0445 44.6186 36.8284 42.0905 39.7829L54.5159 51.7565C55.1614 52.3785 55.1614 53.3633 54.5159 53.9335C53.9242 54.5555 52.9022 54.5555 52.2567 53.9335L39.8313 41.9599C36.7653 44.3961 32.8386 45.8474 28.5892 45.8474C23.6944 45.8474 19.3374 43.9814 16.1638 40.9232ZM27.9578 19.7342C26.8776 19.7342 26 18.9114 26 17.8987C26 16.8228 26.8776 16 27.9578 16C31.8734 16 35.384 17.4557 37.8819 19.8608C40.4473 22.2025 42 25.4937 42 29.1646C42 30.1772 41.1224 31 40.0422 31C38.8945 31 38.0169 30.1772 38.0169 29.1646C38.0169 26.5696 36.8692 24.2278 35.0464 22.519C33.2911 20.8101 30.7257 19.7342 27.9578 19.7342Z"></path>
    </symbol>
    <symbol fill="currentColor" xmlns="http://www.w3.org/2000/svg" viewBox="0 0 67 67" id="mountains">
      <path d="M63.8833 46.3632C64.8492 46.434 65.3887 45.2251 64.6722 44.5735L49.0033 30.3242C45.1768 26.8444 39.1037 27.8556 36.6112 32.3875L35.9992 33.5001L28.1072 24.5195C24.7208 20.666 18.6339 20.9507 15.6219 25.1034L2.23802 43.5562C1.0975 45.1287 1.73412 47.3531 3.61198 47.8502C19.443 52.041 41.0079 44.6863 63.8833 46.3632Z"></path>
    </symbol>
    <symbol fill="currentColor" xmlns="http://www.w3.org/2000/svg" viewBox="0 0 67 67" id="recycling">
      <path d="M42.8307 13.1759C40.1102 12.9414 37.4366 12.9414 34.7161 13.1759C30.0725 13.6449 27.0236 14.9583 25.4758 17.2097C24.0686 19.2736 24.3031 21.7127 24.8191 23.4012C24.8191 23.4482 24.866 23.4482 24.9129 23.4951C24.9598 23.4951 25.0067 23.4951 25.0067 23.4951C27.2582 22.041 29.7911 21.056 32.4177 20.6338C32.4177 20.6338 32.4647 20.6338 32.4647 20.6807V20.7276L25.9448 26.0279C24.5377 27.2944 23.365 28.8423 22.5676 30.5778C22.2862 31.1875 22.3331 31.8442 22.7084 32.4071C22.9898 32.8292 23.4588 33.1575 23.9748 33.2514C24.8191 33.3921 25.6634 32.923 26.0386 32.1725C26.6015 30.953 27.4458 29.8273 28.4777 28.9361C29.4627 29.6397 31.4327 30.8123 33.5904 31.0468C33.9656 31.0937 34.3878 31.0937 34.763 31.0468C39.5474 30.5778 42.5024 24.9022 43.5343 14.2078C43.6281 13.6449 43.2998 13.2228 42.8307 13.1759Z"></path>
      <path d="M35.8856 46.2432C34.5254 46.337 33.1651 46.1963 31.8518 45.7741C31.9925 44.5546 32.0394 42.2562 31.1013 40.2862C30.9137 39.911 30.726 39.5826 30.4915 39.2543C27.7241 35.3612 21.2981 35.6426 11.4949 40.0986C11.0727 40.2862 10.8851 40.8022 11.0727 41.2243C12.1985 43.6634 13.5587 46.0087 15.1066 48.2132C17.6395 51.7311 20.1724 53.748 22.6583 54.1702C22.846 54.2171 23.0336 54.2171 23.1743 54.2171C25.6603 54.4047 27.6303 52.9506 28.8498 51.7311C28.8498 51.6842 28.8967 51.6842 28.8498 51.6373C28.8498 51.5904 28.8029 51.5904 28.8029 51.5435C26.5046 50.2301 24.3938 48.5415 22.7052 46.4777V46.4308H22.7521L30.6322 49.3858C32.4615 49.9956 34.3847 50.2301 36.3078 49.9956C36.9644 49.9487 37.5273 49.5265 37.8087 48.9637C38.0902 48.3539 38.0902 47.6503 37.7149 47.0875C37.3397 46.4777 36.6361 46.1494 35.8856 46.2432Z"></path>
      <path d="M56.3356 37.6102C55.2568 35.3587 53.0053 34.3737 51.3167 33.9516C51.2698 33.9516 51.2229 33.9516 51.2229 33.9516C51.176 33.9516 51.176 33.9985 51.176 34.0454C51.3167 36.719 50.8946 39.3457 49.9565 41.8317V41.8786H49.9096C49.9096 41.8786 49.8627 41.8786 49.8627 41.8317L48.4555 33.5294C48.0803 31.6532 47.2829 29.8239 46.1571 28.276C46.0164 28.0884 45.8288 27.9008 45.5943 27.7601C44.7031 27.2441 43.5773 27.5725 43.0614 28.4637L42.9676 28.6044C42.6392 29.2141 42.6861 29.9646 43.1083 30.5744C43.9057 31.7001 44.4685 32.9666 44.7031 34.3268C43.5773 34.8428 41.5604 35.9216 40.3409 37.704C40.1064 38.0323 39.9187 38.3607 39.7311 38.7359C37.7611 43.0981 41.1852 48.4922 49.9565 54.7775C50.3317 55.012 50.8477 54.9182 51.1291 54.543C52.677 52.3384 53.9903 49.9932 55.1629 47.5541C57.133 43.4264 57.5082 40.0962 56.3356 37.6102Z"></path>
    </symbol>
    <symbol fill="currentColor" xmlns="http://www.w3.org/2000/svg" viewBox="0 0 67 67" id="roll">
      <path d="M43 41.863L48.5 22.863H51.1784C51.7865 22.863 52.2539 23.4012 52.1685 24.0033L47.7655 55.0715C47.6957 55.5646 47.2735 55.9311 46.7754 55.9311H34C34 55.9311 42 53.363 43 41.863Z"></path>
      <path d="M27.0002 28.863C23.3776 28.863 20.1337 30.4824 17.9321 33.0273C17.839 33.135 17.7455 33.2419 17.6558 33.3512C17.5042 33.5412 17.3594 33.7395 17.2187 33.9365C17.139 34.0484 17.0588 34.1599 16.9828 34.2734C16.8472 34.4784 16.7219 34.6905 16.5988 34.9051C16.5312 35.0219 16.4615 35.1388 16.3976 35.2603C16.2832 35.4766 16.1805 35.6983 16.0791 35.9212C16.0215 36.0464 15.9593 36.1733 15.9054 36.3057C15.8157 36.5257 15.7372 36.7515 15.6591 36.9766C15.6107 37.1172 15.5585 37.2567 15.5164 37.3974C15.4471 37.6224 15.3941 37.8549 15.3377 38.087C15.3031 38.2315 15.2622 38.3776 15.2329 38.5241C15.1833 38.7733 15.1503 39.028 15.1177 39.2835C15.1006 39.415 15.0735 39.5469 15.0609 39.6822C15.0217 40.0708 15 40.4662 15 40.864C15 47.4805 20.3846 52.863 27.001 52.863C27.3705 52.863 27.7345 52.843 28.0968 52.8079C28.202 52.7995 28.3081 52.787 28.4133 52.7732C28.6867 52.7403 28.9576 52.6998 29.226 52.6497C29.3183 52.6321 29.413 52.6159 29.5053 52.5958C29.8555 52.5223 30.202 52.4363 30.5405 52.3307C30.5781 52.3203 30.6148 52.304 30.6532 52.2919C30.963 52.1913 31.269 52.0794 31.5666 51.955C31.6355 51.9287 31.7031 51.8974 31.7712 51.8686C32.0847 51.7329 32.3919 51.5872 32.6916 51.424C32.702 51.4181 32.7133 51.414 32.7229 51.4081C34.4073 50.4897 35.8475 49.1792 36.9232 47.6004C36.9391 47.5757 36.957 47.5507 36.9742 47.5256C37.1645 47.2397 37.3457 46.9437 37.511 46.6418C37.5285 46.6109 37.5469 46.5809 37.5632 46.5492C37.9117 45.9046 38.1993 45.2237 38.4273 44.5182C38.4402 44.4739 38.4582 44.428 38.4707 44.385C38.565 44.0756 38.6443 43.7571 38.714 43.4378C38.7366 43.3392 38.7575 43.2424 38.775 43.1468C38.919 42.4053 39 41.6455 39 40.8636C39 34.248 33.6162 28.863 27.0002 28.863Z"></path>
      <path d="M23.0017 25.3627L31.5011 15.8647C36.0025 9.36745 47.5 8.36231 46.5028 21.3659L41.4999 35.3626C41.4999 35.3626 38.6281 22.8627 23.0017 25.3627Z"></path>
    </symbol>
    <symbol fill="currentColor" xmlns="http://www.w3.org/2000/svg" viewBox="0 0 67 67" id="schedule">
      <path d="M59.9153 18.6575C60.4173 17.212 59.1764 15.7612 57.6706 16.0331L43.7654 18.5437C42.2457 18.8182 41.5971 20.6383 42.6009 21.8119L45.101 24.735L32.3022 36.0519C31.9365 36.3753 31.3907 36.3874 31.0111 36.0804L25.9452 31.9843C25.5931 31.6996 25.0936 31.687 24.7277 31.9536L6.41125 45.2975C5.99135 45.6034 5.87563 46.1799 6.14494 46.6242L8.60023 50.6744C8.90534 51.1777 9.57702 51.31 10.0502 50.9599L24.2915 40.4226C24.7073 40.1149 25.2892 40.1751 25.6332 40.5615L29.6638 45.0883C30.0323 45.5021 30.6669 45.5374 31.079 45.1671L48.8898 29.1646L51.8701 32.6491C52.8739 33.8227 54.7725 33.4641 55.2792 32.0053L59.9153 18.6575Z"></path>
    </symbol>
    <symbol fill="currentColor" xmlns="http://www.w3.org/2000/svg" viewBox="0 0 67 67" id="star">
      <path fill-rule="evenodd" clip-rule="evenodd" d="M34.4384 55.467C34.1161 56.3374 32.885 56.3374 32.5628 55.467L29.0234 45.9068C27.6635 42.2335 24.7672 39.3372 21.0939 37.9773L11.5337 34.4379C10.6633 34.1157 10.6633 32.8846 11.5337 32.5623L21.0939 29.0229C24.7672 27.663 27.6635 24.7667 29.0234 21.0934L32.5628 11.5332C32.885 10.6628 34.1161 10.6628 34.4384 11.5332L37.9778 21.0934C39.3377 24.7667 42.234 27.663 45.9073 29.0229L55.4675 32.5623C56.3379 32.8846 56.3379 34.1157 55.4675 34.4379L45.9073 37.9773C42.234 39.3372 39.3377 42.2335 37.9778 45.9068L34.4384 55.467ZM34.4621 39.8624C34.0191 40.5289 32.9821 40.5289 32.539 39.8624C31.1159 37.7215 29.2792 35.8848 27.1383 34.4617C26.4718 34.0186 26.4718 32.9816 27.1383 32.5386C29.2792 31.1154 31.1159 29.2787 32.539 27.1378C32.9821 26.4713 34.0191 26.4713 34.4621 27.1378C35.8853 29.2787 37.722 31.1154 39.8629 32.5386C40.5294 32.9816 40.5294 34.0186 39.8629 34.4617C37.722 35.8848 35.8853 37.7215 34.4621 39.8624Z"></path>
    </symbol>
    <symbol fill="currentColor" xmlns="http://www.w3.org/2000/svg" viewBox="0 0 19 10" id="arrow2">
      <path d="M13.2186 9.65039C13.5805 8.44585 14.0238 7.41175 14.5486 6.54812H0V3.75266H14.5486C14.0419 2.88903 13.6076 1.85494 13.2457 0.650391H15.3086C16.4305 2.30948 17.661 3.57085 19 4.43448V5.90039C17.661 6.71857 16.4305 7.96857 15.3086 9.65039H13.2186Z"></path>
    </symbol>
    <symbol fill="currentColor" stroke="currentColor" xmlns="http://www.w3.org/2000/svg" viewBox="0 0 16 16" id="point">
      <path d="M11 8C11 9.65685 9.65685 11 8 11C6.34315 11 5 9.65685 5 8C5 6.34315 6.34315 5 8 5C9.65685 5 11 6.34315 11 8Z" stroke='none'></path>
      <path d="M11 8C11 9.65685 9.65685 11 8 11C6.34315 11 5 9.65685 5 8C5 6.34315 6.34315 5 8 5C9.65685 5 11 6.34315 11 8Z" fill='none'></path>
      <circle cx="8" cy="8" r="7.5" fill='none'></circle>
    </symbol>
    <symbol fill="currentColor" xmlns="http://www.w3.org/2000/svg" viewBox="0 0 16 14" id="envelope">
      <path d="M14.9338 0.608398H0.980287C0.841511 0.608398 0.708419 0.663527 0.610289 0.761656C0.51216 0.859786 0.457031 0.992878 0.457031 1.13165V1.93398L7.53843 7.44561C7.658 7.53896 7.80534 7.58966 7.95703 7.58966C8.10873 7.58966 8.25607 7.53896 8.37564 7.44561L15.457 1.93398V1.13165C15.457 0.992878 15.4019 0.859786 15.3038 0.761656C15.2056 0.663527 15.0726 0.608398 14.9338 0.608398Z"></path>
      <path d="M7.95703 9.79432C7.57143 9.79445 7.19688 9.66551 6.89308 9.42804L0.457031 4.40479V12.6722C0.457031 12.811 0.51216 12.9441 0.610289 13.0422C0.708419 13.1404 0.841511 13.1955 0.980287 13.1955H14.9338C15.0726 13.1955 15.2056 13.1404 15.3038 13.0422C15.4019 12.9441 15.457 12.811 15.457 12.6722V4.40479L9.02098 9.42804C8.71718 9.66551 8.34263 9.79445 7.95703 9.79432Z"></path>
    </symbol>
    <symbol fill="currentColor" xmlns="http://www.w3.org/2000/svg" viewBox="0 0 8 16" id="download">
      <path d="M0.5 11.0861C1.43687 11.3718 2.24116 11.7218 2.91288 12.1361L2.91288 0.65039L5.08712 0.650391L5.08712 12.1361C5.75884 11.7361 6.56313 11.3932 7.5 11.1075L7.5 12.7361C6.2096 13.6218 5.22853 14.5932 4.55682 15.6504L3.41667 15.6504C2.7803 14.5932 1.80808 13.6218 0.499999 12.7361L0.5 11.0861Z"></path>
    </symbol>
    <symbol fill="currentColor" xmlns="http://www.w3.org/2000/svg" viewBox="0 0 8 9" id="caret-right">
      <path d="M7.5293 4.90164L0.529297 9V7.39344L5.39596 4.4918L0.529297 1.54098V0L7.5293 4.14754V4.90164Z"></path>
    </symbol>
    <symbol fill="currentColor" xmlns="http://www.w3.org/2000/svg" viewBox="0 0 7 9" id="caret-left">
      <path d="M0 4.90164L7 9V7.39344L2.13333 4.4918L7 1.54098V0L0 4.14754V4.90164Z"></path>
    </symbol>
    <symbol fill="currentColor" xmlns="http://www.w3.org/2000/svg" viewBox="0 0 14 15" id="catalog">
      <path d="M4.14398 8.52891C5.13097 8.52891 5.92197 9.32762 5.92197 10.3216V12.708C5.92197 13.695 5.13097 14.5 4.14398 14.5H1.77799C0.797996 14.5 0 13.695 0 12.708V10.3216C0 9.32762 0.797996 8.52891 1.77799 8.52891H4.14398ZM12.222 8.52891C13.202 8.52891 14 9.32762 14 10.3216V12.708C14 13.695 13.202 14.5 12.222 14.5H9.85602C8.86903 14.5 8.07803 13.695 8.07803 12.708V10.3216C8.07803 9.32762 8.86903 8.52891 9.85602 8.52891H12.222ZM4.14398 0.5C5.13097 0.5 5.92197 1.30501 5.92197 2.29273V4.67906C5.92197 5.67308 5.13097 6.47109 4.14398 6.47109H1.77799C0.797996 6.47109 0 5.67308 0 4.67906V2.29273C0 1.30501 0.797996 0.5 1.77799 0.5H4.14398ZM12.222 0.5C13.202 0.5 14 1.30501 14 2.29273V4.67906C14 5.67308 13.202 6.47109 12.222 6.47109H9.85602C8.86903 6.47109 8.07803 5.67308 8.07803 4.67906V2.29273C8.07803 1.30501 8.86903 0.5 9.85602 0.5H12.222Z"></path>
    </symbol>
    <symbol fill="currentColor" xmlns="http://www.w3.org/2000/svg" viewBox="0 0 32 20" id="filter">
      <path d="M7.67688 0C5.64985 0 3.94543 1.39707 3.43328 3.27041H1.14741C0.996563 3.26982 0.847093 3.29912 0.707616 3.35662C0.568139 3.41411 0.441416 3.49867 0.334752 3.60541C0.228088 3.71215 0.143594 3.83896 0.0861421 3.97853C0.02869 4.11811 -0.000583747 4.26768 8.81932e-06 4.41863C0.000591813 4.56883 0.0307329 4.71744 0.0887109 4.85598C0.146689 4.99452 0.231369 5.12028 0.337915 5.22607C0.444461 5.33187 0.570787 5.41562 0.709681 5.47256C0.848574 5.5295 0.997315 5.5585 1.14741 5.55791H3.42882C3.93749 7.43641 5.64617 8.8395 7.67688 8.8395C9.68712 8.8395 11.3816 7.46358 11.9093 5.61376L30.8593 5.55791C31.0094 5.55762 31.1579 5.52775 31.2965 5.46999C31.4351 5.41224 31.5609 5.32775 31.6668 5.22133C31.7727 5.11492 31.8567 4.98867 31.9139 4.84979C31.971 4.71091 32.0003 4.56213 32 4.41193C31.9994 4.10936 31.879 3.81936 31.6652 3.60541C31.4514 3.39146 31.1616 3.27101 30.8593 3.27041L11.9406 3.32626C11.4481 1.42416 9.72445 2.2911e-06 7.67688 0ZM7.67688 2.2875C8.86779 2.2875 9.80872 3.2269 9.80872 4.41863C9.80872 5.61036 8.86779 6.55199 7.67688 6.55199C6.48597 6.55199 5.54727 5.61036 5.54727 4.41863C5.54727 3.2269 6.48597 2.2875 7.67688 2.2875ZM19.8875 11.0533C17.827 11.0533 16.0929 12.4752 15.5814 14.3818H1.14741C0.997127 14.3812 0.848205 14.4103 0.709166 14.4673C0.570128 14.5244 0.443702 14.6084 0.337127 14.7144C0.230551 14.8204 0.145918 14.9465 0.0880711 15.0853C0.030224 15.2241 0.000298998 15.3729 8.81932e-06 15.5233C-0.000288781 15.6741 0.0292025 15.8234 0.0867865 15.9627C0.144371 16.102 0.228911 16.2286 0.335546 16.3351C0.44218 16.4416 0.568804 16.5259 0.708134 16.5833C0.847464 16.6406 0.996752 16.6699 1.14741 16.6693H15.5837C16.0968 18.5753 17.8287 20 19.8875 20C21.9464 20 23.6783 18.5753 24.1914 16.6693H30.8593C31.0094 16.669 31.1579 16.6391 31.2965 16.5814C31.4351 16.5236 31.5609 16.4391 31.6668 16.3327C31.7727 16.2263 31.8567 16.1 31.9139 15.9612C31.971 15.8223 32.0003 15.6735 32 15.5233C31.9994 15.2207 31.879 14.9307 31.6652 14.7168C31.4514 14.5028 31.1616 14.3824 30.8593 14.3818H24.1936C23.6822 12.4752 21.9481 11.0533 19.8875 11.0533ZM19.8875 13.3408C21.1091 13.3408 22.0752 14.3009 22.0752 15.5233C22.0752 16.7457 21.1091 17.7125 19.8875 17.7125C18.666 17.7125 17.6999 16.7457 17.6999 15.5233C17.6999 14.3009 18.666 13.3408 19.8875 13.3408Z"></path>
    </symbol>
  </svg>