<svg width="30" height="45" viewBox="0 0 30 45" fill="none" xmlns="http://www.w3.org/2000/svg">
<path d="M0 15.7895C0 25.2632 9.73684 37.1053 15 44.2105C20.5205 37.1053 30 25.2632 30 16.5789C30 6.31579 22.8947 0 15 0C6.31579 0 0 7.10526 0 15.7895Z" fill="#1685BA"/>
<path fill-rule="evenodd" clip-rule="evenodd" d="M16.6152 10.9306C17.3205 10.936 17.9136 10.3429 17.8922 9.65361C17.8922 8.94831 17.3259 8.37659 16.6259 8.37659C15.9259 8.38193 15.3435 8.92159 15.3435 9.65361C15.3435 10.4017 15.9366 10.9253 16.6152 10.9306ZM18.7033 13.9595C18.7264 13.9779 18.7495 13.9964 18.7952 13.9923C18.8433 13.9809 18.8943 13.9666 18.9476 13.9517C18.995 13.9384 19.0441 13.9247 19.0944 13.9121C19.4684 13.8106 19.8437 13.7104 20.2191 13.6102C20.5945 13.51 20.9698 13.4099 21.3439 13.3083C21.7418 13.2015 22.1411 13.096 22.5404 12.9905L22.5407 12.9904C22.9401 12.8849 23.3396 12.7794 23.7376 12.6725C23.8285 12.6511 23.8392 12.6297 23.8018 12.5443C23.4651 11.7748 23.0003 11.0909 22.4125 10.4871C22.0812 10.1398 21.7126 9.84059 21.3118 9.57343C20.9752 9.34902 20.6172 9.15132 20.2432 8.99102C20.1791 8.96431 20.1363 8.96965 20.0936 9.01774C20.0508 9.06583 20.0027 9.10857 19.9546 9.15132C19.765 9.31963 19.5739 9.48661 19.3829 9.65358C19.1919 9.82056 19.0009 9.98753 18.8112 10.1558C18.6696 10.2814 18.528 10.4056 18.3864 10.5299C18.2448 10.6541 18.1032 10.7783 17.9616 10.9039C17.7693 11.0749 17.5769 11.2445 17.3846 11.4142L17.3842 11.4145C17.192 11.584 16.9997 11.7536 16.8075 11.9244L16.7923 11.9374L16.7923 11.9374C16.7486 11.9748 16.7258 11.9943 16.7033 11.9939C16.6788 11.9935 16.6548 11.9694 16.6045 11.9191C15.7763 11.0909 14.9481 10.2627 14.1199 9.42917C14.0611 9.36505 14.0183 9.36505 13.9489 9.40779C13.7191 9.5574 13.4894 9.70701 13.2703 9.878C12.9444 10.1345 12.6398 10.4123 12.3673 10.7222C12.3352 10.7596 12.3139 10.797 12.362 10.8398C12.4033 10.8779 12.4408 10.918 12.4791 10.9588L12.4791 10.9588C12.5051 10.9865 12.5315 11.0147 12.5596 11.0428L15.8297 14.3129C15.9205 14.4037 15.9259 14.4037 15.9953 14.2968C16.4068 13.6824 17.1388 13.3725 17.8922 13.5381C18.1914 13.6022 18.4479 13.7465 18.683 13.9442C18.6901 13.9489 18.6967 13.9542 18.7033 13.9595ZM17.0069 22.1555C17.1663 22.1695 17.3202 22.1829 17.459 22.1728C17.9613 22.1781 18.4155 22.1247 18.8643 22.0392C19.4681 21.9163 20.0505 21.7132 20.6062 21.4301C20.9321 21.2644 21.242 21.0667 21.5412 20.853C21.6 20.8102 21.6374 20.7622 21.6214 20.6767C21.5733 20.4444 21.5266 20.2121 21.4799 19.9798L21.4798 19.9794C21.433 19.7469 21.3863 19.5145 21.3382 19.2821C21.2874 19.0256 21.2353 18.7691 21.1832 18.5127L21.1832 18.5122C21.1311 18.2559 21.079 17.9996 21.0283 17.7432C20.9375 17.2784 20.8466 16.8135 20.7504 16.3487C20.7291 16.2632 20.7504 16.2418 20.8306 16.2204C21.0149 16.1723 21.1979 16.1229 21.3809 16.0735L21.381 16.0735C21.564 16.0241 21.747 15.9746 21.9313 15.9266C22.1671 15.8629 22.403 15.8002 22.6384 15.7377L22.6385 15.7377C22.9364 15.6586 23.2335 15.5797 23.5289 15.4991C23.6545 15.467 23.78 15.4323 23.9055 15.3976L23.9056 15.3976C24.0312 15.3628 24.1567 15.3281 24.2823 15.2961C24.3464 15.28 24.3678 15.2426 24.3678 15.1785C24.3678 14.9928 24.3486 14.807 24.3297 14.6245V14.6245V14.6245L24.3197 14.5266C24.2716 14.0778 24.1808 13.6343 24.0419 13.2015C23.9938 13.0519 23.9884 13.0466 23.8388 13.0893C23.406 13.2069 22.9679 13.3244 22.5297 13.442C21.9634 13.5969 21.397 13.7465 20.8306 13.8961L20.8306 13.8961L19.1635 14.345C19.0406 14.377 19.0406 14.3824 19.0941 14.4892C19.2971 14.8953 19.3398 15.3228 19.2223 15.7556C19.0567 16.37 18.6613 16.7815 18.0628 16.9952C18.004 17.0219 17.972 17.054 17.956 17.1181C17.8651 17.4707 17.7743 17.818 17.6781 18.1654L17.2132 19.8805C17.0797 20.3668 16.9514 20.8476 16.8232 21.3339C16.7591 21.5582 16.7003 21.7826 16.6416 22.007L16.6415 22.0071L16.6415 22.0071C16.6202 22.098 16.6415 22.13 16.727 22.1354C16.8209 22.1393 16.9148 22.1475 17.0069 22.1555ZM21.5361 17.3585C21.5308 18.0798 22.1078 18.6355 22.8078 18.6301C23.5131 18.6355 24.0955 18.0744 24.0902 17.3478C24.0848 16.6211 23.5238 16.0814 22.8131 16.0814C22.0918 16.0814 21.5361 16.6264 21.5361 17.3585ZM7.56886 8.92155H8.91C9.03824 8.92155 9.04358 8.93224 9.05427 9.06582C9.06496 9.17269 9.07698 9.28089 9.089 9.38908C9.10102 9.49728 9.11305 9.60548 9.12373 9.71235L9.13227 9.78394C9.15608 9.98347 9.17944 10.1792 9.19854 10.3749L9.19854 10.3749L9.19854 10.375C9.22526 10.6047 9.25197 10.8344 9.27334 11.0695C9.29311 11.239 9.31138 11.4084 9.32974 11.5786L9.32974 11.5786L9.32975 11.5786C9.34612 11.7305 9.36257 11.883 9.38021 12.0366C9.39089 12.1381 9.40291 12.2396 9.41493 12.3411L9.41494 12.3412C9.42696 12.4427 9.43898 12.5442 9.44967 12.6458L9.44967 12.6458L9.44967 12.6458C9.47639 12.8702 9.5031 13.0946 9.52447 13.319C9.54585 13.5327 9.56722 13.7465 9.59393 13.9549C9.60729 14.0644 9.62065 14.1752 9.63401 14.2861L9.63402 14.2862C9.64737 14.3971 9.66073 14.5079 9.67408 14.6174L9.73019 15.1277L9.78629 15.638C9.82904 16.028 9.87178 16.4181 9.91453 16.8028C9.95193 17.118 9.98933 17.4333 10.0214 17.7485C10.0454 17.9675 10.0708 18.1878 10.0962 18.4082L10.0962 18.4084C10.1216 18.6288 10.147 18.8492 10.171 19.0683C10.2244 19.5652 10.2779 20.0568 10.3366 20.5537C10.3553 20.7164 10.374 20.8805 10.3927 21.0445L10.3927 21.0452L10.3929 21.0468C10.4116 21.2106 10.4302 21.3744 10.4488 21.5369L10.4889 21.9109L10.529 22.2849C10.5343 22.333 10.513 22.3597 10.4649 22.3597H10.4008H8.1673C8.03454 22.3597 8.03372 22.3544 8.01274 22.218L8.01235 22.2154C7.95892 21.8254 7.90014 21.4407 7.84137 21.056L7.84136 21.056C7.77725 20.5965 7.71313 20.1423 7.64367 19.6828C7.59656 19.3483 7.54531 19.0181 7.49356 18.6846L7.49355 18.6846L7.47268 18.55C7.41925 18.1706 7.36582 17.7913 7.31239 17.4172C7.29101 17.2676 7.26831 17.118 7.2456 16.9684L7.24559 16.9684C7.22288 16.8188 7.20018 16.6692 7.17881 16.5196L7.15503 16.351C7.09876 15.9519 7.04199 15.5491 6.98111 15.1464C6.95538 14.9638 6.92719 14.7811 6.89889 14.5979L6.89889 14.5979C6.86842 14.4005 6.83783 14.2024 6.81013 14.0029C6.78341 13.8159 6.75803 13.6276 6.73265 13.4392C6.70727 13.2509 6.68189 13.0625 6.65517 12.8755C6.60807 12.5411 6.55681 12.2108 6.50506 11.8773L6.48419 11.7428C6.46282 11.5958 6.44278 11.4489 6.42274 11.302C6.40271 11.155 6.38267 11.0081 6.3613 10.8611C6.3358 10.6699 6.30651 10.4749 6.27682 10.2773C6.25672 10.1435 6.23644 10.0085 6.21703 9.87264C6.19566 9.73372 6.17562 9.5948 6.15558 9.45587L6.15558 9.45587C6.13555 9.31695 6.11551 9.17803 6.09414 9.03911C6.08345 8.95361 6.11017 8.92155 6.201 8.9269C6.42809 8.9269 6.65651 8.92556 6.88493 8.92423C7.11335 8.92289 7.34177 8.92155 7.56886 8.92155ZM15.7172 15.0503C15.7279 14.9915 15.7332 14.9381 15.7386 14.8847L15.7386 14.8846C15.7436 14.8292 15.7011 14.7975 15.6604 14.7672L15.6531 14.7617C14.4722 13.5756 13.2914 12.3947 12.1105 11.2139C12.0197 11.123 12.0144 11.123 11.9396 11.2299C11.651 11.6413 11.3945 12.0741 11.1915 12.5336C10.8121 13.4046 10.6251 14.3129 10.6144 15.2587C10.6144 15.4704 10.6279 15.6787 10.6414 15.889V15.8891V15.8891C10.645 15.9441 10.6485 15.9994 10.6518 16.0548C10.6572 16.1296 10.6946 16.1617 10.7587 16.183C11.1007 16.2952 11.4426 16.4075 11.7846 16.525L11.7846 16.525L11.7849 16.5251C12.8374 16.8831 13.8899 17.241 14.9478 17.5936C15.0172 17.615 15.0386 17.6417 15.0172 17.7165C14.9531 17.9463 14.8943 18.1707 14.8356 18.4005C14.7447 18.7585 14.6486 19.1165 14.5524 19.4745L14.5523 19.4746C14.4027 20.0356 14.2531 20.5966 14.0982 21.1576C14.0768 21.2324 14.0929 21.2751 14.1623 21.3125C14.7768 21.6545 15.4233 21.8896 16.1019 22.0338C16.1607 22.0499 16.1874 22.0338 16.2034 21.9697C16.2729 21.6972 16.3477 21.4247 16.4225 21.1522C16.4942 20.8774 16.5676 20.6042 16.6408 20.3317L16.6408 20.3316L16.6409 20.3313C16.6985 20.1166 16.7561 19.9024 16.8126 19.6882C16.8633 19.5012 16.9127 19.3155 16.9622 19.1298L16.9622 19.1296L16.9622 19.1296C17.0116 18.944 17.061 18.7584 17.1118 18.5715C17.2347 18.1226 17.3576 17.6738 17.4751 17.225C17.5072 17.1074 17.4911 17.0914 17.3682 17.086C17.0637 17.07 16.7805 16.9845 16.5294 16.8135C15.9096 16.3914 15.6264 15.8037 15.7172 15.0503ZM13.0458 17.5989C12.3458 17.5989 11.7741 18.1706 11.7741 18.8706C11.7688 19.5652 12.3298 20.1476 13.0458 20.153C13.7671 20.153 14.3228 19.5866 14.3228 18.8706C14.3228 18.1493 13.7404 17.5989 13.0458 17.5989Z" fill="white"/>
</svg>
