<svg width="130" height="85" viewBox="0 0 130 85" fill="none" xmlns="http://www.w3.org/2000/svg">
<path d="M10.9459 42.6923C10.0109 42.6923 9.25292 43.4265 9.25292 44.3757C9.25292 44.6875 6.29811 45.0055 4.18648 45.279C2.81762 45.4563 1.95199 46.3796 1.65176 47.7268L0.276329 53.8989C0.233439 54.0914 0.112572 54.2592 0.0466804 54.445C-0.0919072 54.8359 0.179619 55.3062 0.646015 55.3062H2.14376C3.50529 55.3062 11.3147 56.2152 11.7018 57.5404C11.7893 57.8399 11.8538 58.1468 11.9613 58.4397L20.0195 80.3995C20.1933 80.8729 20.2954 81.3702 20.445 81.8517C21.0187 83.6981 22.7156 85 24.6789 85H105.321C107.284 85 108.981 83.6981 109.555 81.8517C109.705 81.3702 109.807 80.8729 109.98 80.3995L118.039 58.4397C118.146 58.1468 118.211 57.8399 118.298 57.5404C118.685 56.2152 126.495 55.3062 127.856 55.3062H129.354C129.82 55.3062 130.092 54.8359 129.953 54.445C129.887 54.2592 129.767 54.0914 129.724 53.8989L128.348 47.7268C128.048 46.3796 127.182 45.4563 125.813 45.279C123.702 45.0055 120.747 44.6875 120.747 44.3757C120.747 43.4265 119.989 42.6923 119.054 42.6923H10.9459Z" fill="white"/>
<path d="M10.9645 0C10.0192 0 9.25292 0.742182 9.25292 1.70185C9.25292 2.01623 6.27864 2.33718 4.16562 2.61336C2.80922 2.79065 1.95292 3.70711 1.65449 5.0421L0.263386 11.2651C0.220753 11.4558 0.101538 11.6223 0.0362377 11.8065C-0.102415 12.1976 0.169486 12.6676 0.635572 12.6676H2.12229C3.49585 12.6676 11.3152 13.5864 11.7025 14.9243C11.7891 15.2236 11.8528 15.5302 11.9589 15.8231L20.0299 38.0947C20.1994 38.5626 20.2992 39.0535 20.4452 39.5292C21.0144 41.3832 22.715 42.6923 24.6837 42.6923H105.316C107.285 42.6923 108.986 41.3832 109.555 39.5292C109.701 39.0535 109.801 38.5626 109.97 38.0947L118.041 15.8231C118.147 15.5302 118.211 15.2236 118.297 14.9243C118.685 13.5864 126.504 12.6676 127.878 12.6676H129.364C129.83 12.6676 130.102 12.1976 129.964 11.8065C129.898 11.6223 129.779 11.4558 129.737 11.2651L128.345 5.0421C128.047 3.70711 127.191 2.79065 125.834 2.61336C123.721 2.33718 120.747 2.01623 120.747 1.70185C120.747 0.742182 119.981 0 119.035 0H10.9645Z" fill="white"/>
</svg>
