<svg width="0" height="0" class="hidden">
  <symbol fill="currentColor" xmlns="http://www.w3.org/2000/svg" viewBox="0 0 40 40" id="facebook">
    <path d="M20 0C8.95441 0 0 8.95441 0 20C0 31.0456 8.95441 40 20 40C31.0456 40 40 31.0456 40 20C40 8.95441 31.0456 0 20 0ZM25.8761 11.4637C24.9254 11.4637 23.9686 11.4637 23.0183 11.4637C22.4169 11.4248 21.7963 11.8839 21.6864 12.4854C21.6734 13.5265 21.6799 14.5672 21.6799 15.6084C23.0763 15.6149 24.4732 15.6084 25.87 15.6149C25.7665 17.1212 25.5792 18.6214 25.3593 20.1087C24.1244 20.1217 22.8894 20.1087 21.6544 20.1152C21.6414 24.5571 21.6609 28.9925 21.6479 33.4349C19.8114 33.4414 17.9818 33.4284 16.1454 33.4414C16.1129 28.9994 16.1454 24.5575 16.1259 20.1152C15.2336 20.1087 14.3348 20.1217 13.4426 20.1087C13.4491 18.6149 13.4426 17.1216 13.4426 15.6343C14.3348 15.6213 15.2336 15.6343 16.1259 15.6278C16.1518 14.1795 16.0999 12.7247 16.1518 11.2764C16.2488 10.1188 16.6819 8.96171 17.5422 8.16637C18.5833 7.17716 20.0572 6.84093 21.454 6.802C22.9283 6.78902 24.4026 6.79551 25.8765 6.79551C25.8825 8.35375 25.8825 9.9055 25.8761 11.4637Z"></path>
  </symbol>
  <symbol fill="currentColor" xmlns="http://www.w3.org/2000/svg" viewBox="0 0 40 40" id="instagram">
    <path d="M25.2114 9.9248H14.6894C12.0563 9.9248 9.91406 12.0671 9.91406 14.7001V25.3186C9.91406 27.9517 12.0563 30.0939 14.6894 30.0939H25.2114C27.8444 30.0939 29.9867 27.9517 29.9867 25.3186V14.7001C29.9867 12.0671 27.8444 9.9248 25.2114 9.9248ZM19.9704 26.3675C16.4013 26.3675 13.4978 23.4947 13.4978 19.9637C13.4978 16.4328 16.4017 13.56 19.9704 13.56C23.5391 13.56 26.4431 16.4328 26.4431 19.9637C26.4431 23.4947 23.5395 26.3675 19.9704 26.3675ZM26.5583 14.821C25.7171 14.821 25.0353 14.1392 25.0353 13.298C25.0353 12.4568 25.7171 11.7751 26.5583 11.7751C27.3995 11.7751 28.0812 12.4568 28.0812 13.298C28.0812 14.1392 27.3995 14.821 26.5583 14.821Z"></path>
    <path d="M20 0C8.95441 0 0 8.95441 0 20C0 31.0456 8.95441 40 20 40C31.0456 40 40 31.0456 40 20C40 8.95441 31.0456 0 20 0ZM32.3487 25.3184C32.3487 29.2541 29.1467 32.4558 25.2113 32.4558H14.6893C10.7536 32.4558 7.55191 29.2537 7.55191 25.3184V14.6999C7.55191 10.7641 10.754 7.56246 14.6893 7.56246H25.2113C29.1471 7.56246 32.3487 10.7645 32.3487 14.6999V25.3184Z"></path>
    <path d="M19.9705 15.9175C17.7013 15.9175 15.8555 17.7325 15.8555 19.9636C15.8555 22.1947 17.7013 24.0096 19.9705 24.0096C22.2397 24.0096 24.0855 22.1947 24.0855 19.9636C24.0855 17.7325 22.2397 15.9175 19.9705 15.9175Z"></path>
  </symbol>
  <symbol fill="currentColor" xmlns="http://www.w3.org/2000/svg" viewBox="0 0 40 40" id="linkedin">
    <path d="M20 0C8.95441 0 0 8.95441 0 20C0 31.0456 8.95441 40 20 40C31.0456 40 40 31.0456 40 20C40 8.95441 31.0456 0 20 0ZM14.6447 29.3251H9.82033V14.8118H14.6447V29.3251ZM12.2327 12.8314H12.2003C10.582 12.8314 9.53318 11.7156 9.53318 10.3224C9.53318 8.89844 10.6132 7.81514 12.2644 7.81514C13.9155 7.81514 14.9306 8.89804 14.9623 10.3224C14.9623 11.716 13.9159 12.8314 12.2327 12.8314ZM32.0437 29.3251H27.2189V21.5603C27.2189 19.6098 26.5209 18.2787 24.7749 18.2787C23.4418 18.2787 22.6484 19.1759 22.2992 20.0438C22.1719 20.3541 22.139 20.786 22.139 21.22V29.3251H17.3126C17.3126 29.3251 17.3775 16.1742 17.3126 14.8118H22.1382V16.8689C22.7794 15.8813 23.9244 14.4707 26.4873 14.4707C29.6626 14.4707 32.0429 16.5449 32.0429 21.003V29.3251H32.0437Z"></path>
  </symbol>
</svg>