<svg width="449" height="420" viewBox="0 0 449 420" fill="none" xmlns="http://www.w3.org/2000/svg">
<ellipse cx="239.116" cy="298.373" rx="102.71" ry="1.26401" fill="#373738"/>
<ellipse cx="348.319" cy="295.845" rx="100.68" ry="1.26401" fill="#373738"/>
<ellipse cx="100.68" cy="292.474" rx="100.68" ry="1.26401" fill="#373738"/>
<path d="M23.5423 292.431H148.588V185.551H23.5423L23.5423 292.431Z" fill="#585A60"/>
<path d="M86.0677 292.431H211.113V185.551H86.0677L86.0677 292.431Z" fill="#85888E"/>
<path d="M211.117 266.475H191.301L193.047 272.252L191.301 276.383H211.117V266.475Z" fill="#8A8A8A"/>
<path d="M70.3994 185.744H147.316V120L70.3994 120L70.3994 185.744Z" fill="#6D7077"/>
<path d="M108.856 185.744H185.773V120L108.856 120L108.856 185.744Z" fill="#BDBDBD"/>
<path d="M239.379 223.084H327.184V148.033H239.379V223.084Z" fill="#585A60"/>
<path d="M283.277 223.084H371.082V148.033H283.277V223.084Z" fill="#85888E"/>
<path d="M301.877 295.916H389.682V220.865H301.877V295.916Z" fill="#585A60"/>
<path d="M345.775 295.916H433.58V220.865H345.775V295.916Z" fill="#85888E"/>
<path d="M301.926 276.883H315.838L314.613 272.826L315.838 269.925H301.926V276.883Z" fill="#373738"/>
<path d="M264.92 220.425V297.89L206.751 297.908L148.582 297.927V220.425H264.92Z" fill="#6D7077"/>
<path d="M323.085 220.425V297.868L305.306 297.874L264.919 297.889L206.75 297.908V220.425H323.085Z" fill="#BDBDBD"/>
<path fill-rule="evenodd" clip-rule="evenodd" d="M237.982 250.441C238.22 250.463 238.45 250.484 238.658 250.468C239.409 250.476 240.088 250.393 240.76 250.259C241.663 250.066 242.534 249.748 243.365 249.304C243.852 249.045 244.316 248.735 244.763 248.4C244.851 248.333 244.907 248.258 244.883 248.124C244.811 247.76 244.741 247.395 244.671 247.031C244.601 246.667 244.531 246.303 244.459 245.939C244.384 245.537 244.306 245.135 244.228 244.733C244.15 244.331 244.072 243.929 243.996 243.527C243.86 242.799 243.724 242.071 243.58 241.342C243.549 241.208 243.58 241.175 243.7 241.141C243.976 241.066 244.25 240.988 244.523 240.911C244.797 240.834 245.071 240.756 245.347 240.681C245.699 240.581 246.052 240.483 246.404 240.385C246.849 240.261 247.294 240.137 247.736 240.011C247.924 239.961 248.111 239.906 248.299 239.852C248.487 239.798 248.675 239.743 248.863 239.693C248.958 239.668 248.99 239.609 248.99 239.509C248.99 239.218 248.962 238.927 248.933 238.641C248.928 238.589 248.923 238.538 248.919 238.487C248.847 237.784 248.711 237.089 248.503 236.411C248.431 236.177 248.423 236.168 248.199 236.235C247.552 236.419 246.897 236.604 246.242 236.788C245.394 237.03 244.547 237.265 243.7 237.499L243.7 237.499L241.207 238.203C241.023 238.253 241.023 238.261 241.103 238.429C241.407 239.065 241.471 239.735 241.295 240.413C241.047 241.376 240.456 242.02 239.561 242.355C239.473 242.397 239.425 242.447 239.401 242.548C239.265 243.1 239.129 243.645 238.986 244.189L238.29 246.876C238.091 247.638 237.899 248.392 237.707 249.153C237.611 249.505 237.523 249.857 237.435 250.208C237.403 250.351 237.435 250.401 237.563 250.409C237.704 250.415 237.844 250.428 237.982 250.441ZM244.755 242.924C244.747 244.054 245.61 244.925 246.657 244.916C247.711 244.925 248.582 244.046 248.574 242.907C248.566 241.768 247.727 240.923 246.665 240.923C245.586 240.923 244.755 241.777 244.755 242.924Z" fill="#525459"/>
<path fill-rule="evenodd" clip-rule="evenodd" d="M237.4 232.854C238.454 232.862 239.341 231.933 239.309 230.853C239.309 229.748 238.462 228.852 237.416 228.852C236.369 228.86 235.498 229.706 235.498 230.853C235.498 232.025 236.385 232.845 237.4 232.854ZM240.522 237.599C240.557 237.628 240.591 237.657 240.659 237.65C240.731 237.633 240.808 237.61 240.887 237.587C240.958 237.566 241.032 237.544 241.107 237.525C241.666 237.366 242.228 237.209 242.789 237.052C243.35 236.895 243.912 236.738 244.471 236.579C245.067 236.411 245.664 236.246 246.261 236.08C246.859 235.915 247.456 235.75 248.051 235.582C248.187 235.549 248.203 235.515 248.147 235.381C247.644 234.176 246.948 233.104 246.069 232.158C245.574 231.614 245.023 231.145 244.423 230.726C243.92 230.375 243.384 230.065 242.825 229.814C242.729 229.772 242.665 229.78 242.601 229.856C242.537 229.931 242.465 229.998 242.394 230.065C242.11 230.329 241.824 230.59 241.539 230.852C241.253 231.114 240.967 231.375 240.683 231.639C240.472 231.836 240.26 232.03 240.048 232.225C239.836 232.42 239.625 232.614 239.413 232.811C239.125 233.079 238.838 233.345 238.55 233.611C238.262 233.876 237.974 234.142 237.687 234.41C237.679 234.417 237.671 234.424 237.664 234.431C237.527 234.553 237.527 234.553 237.383 234.402L237.383 234.402C236.144 233.104 234.906 231.806 233.667 230.5C233.579 230.4 233.515 230.4 233.412 230.467C233.068 230.701 232.724 230.936 232.397 231.204C231.909 231.606 231.454 232.041 231.046 232.526C230.998 232.585 230.966 232.644 231.038 232.711C231.1 232.77 231.156 232.833 231.213 232.897C231.252 232.941 231.292 232.985 231.334 233.029L236.224 238.153C236.36 238.295 236.368 238.295 236.472 238.127C237.087 237.165 238.182 236.679 239.309 236.939C239.756 237.039 240.14 237.265 240.492 237.575C240.502 237.582 240.512 237.591 240.522 237.599Z" fill="#525459"/>
<path d="M223.867 229.704C224.538 229.704 225.202 229.704 225.873 229.704C226.065 229.704 226.073 229.721 226.089 229.931C226.121 230.265 226.16 230.609 226.192 230.944C226.232 231.295 226.272 231.638 226.304 231.982C226.344 232.342 226.384 232.702 226.416 233.07C226.472 233.572 226.52 234.075 226.576 234.585C226.608 234.904 226.648 235.222 226.68 235.54C226.72 235.892 226.76 236.243 226.792 236.595C226.824 236.93 226.856 237.265 226.896 237.591C226.936 237.934 226.976 238.286 227.016 238.629C227.071 239.165 227.127 239.693 227.183 240.228C227.247 240.84 227.311 241.451 227.375 242.054C227.431 242.547 227.487 243.041 227.535 243.535C227.607 244.222 227.687 244.917 227.759 245.603C227.839 246.382 227.919 247.152 228.006 247.931C228.062 248.442 228.118 248.961 228.174 249.471C228.214 249.865 228.254 250.25 228.294 250.643C228.302 250.719 228.27 250.761 228.198 250.761C228.166 250.761 228.134 250.761 228.102 250.761C226.992 250.761 225.881 250.761 224.762 250.761C224.562 250.761 224.562 250.752 224.53 250.535C224.45 249.923 224.362 249.321 224.275 248.718C224.179 247.998 224.083 247.286 223.979 246.566C223.899 245.972 223.811 245.386 223.723 244.791C223.643 244.197 223.563 243.602 223.483 243.016C223.42 242.547 223.348 242.079 223.284 241.61C223.188 240.898 223.092 240.178 222.988 239.458C222.908 238.864 222.812 238.269 222.732 237.666C222.652 237.08 222.58 236.486 222.501 235.9C222.421 235.306 222.333 234.719 222.245 234.125C222.181 233.665 222.125 233.204 222.061 232.744C221.997 232.241 221.917 231.722 221.845 231.195C221.781 230.759 221.725 230.324 221.662 229.889C221.646 229.755 221.685 229.704 221.821 229.713C222.501 229.713 223.188 229.704 223.867 229.704Z" fill="#525459"/>
<path fill-rule="evenodd" clip-rule="evenodd" d="M236.083 239.05L236.083 239.05C236.091 238.964 236.027 238.914 235.966 238.866C235.963 238.864 235.959 238.861 235.955 238.858C234.189 236.999 232.423 235.149 230.657 233.299C230.522 233.156 230.514 233.156 230.402 233.324C229.97 233.969 229.587 234.647 229.283 235.367C228.716 236.731 228.436 238.155 228.42 239.637C228.42 239.968 228.44 240.295 228.46 240.624C228.466 240.711 228.471 240.797 228.476 240.884C228.484 241.001 228.54 241.051 228.636 241.085C229.147 241.261 229.659 241.437 230.17 241.621L230.17 241.621C231.744 242.182 233.318 242.743 234.901 243.295C235.005 243.329 235.037 243.371 235.005 243.488C234.909 243.848 234.821 244.199 234.733 244.559C234.597 245.12 234.453 245.681 234.309 246.242L234.309 246.242L234.309 246.242C234.086 247.121 233.862 248 233.63 248.879C233.598 248.997 233.622 249.064 233.726 249.122C234.645 249.658 235.612 250.026 236.627 250.253C236.715 250.278 236.755 250.253 236.779 250.152C236.882 249.725 236.994 249.298 237.106 248.871L237.106 248.871C237.213 248.44 237.323 248.012 237.433 247.585C237.519 247.249 237.605 246.913 237.69 246.577C237.765 246.284 237.839 245.993 237.913 245.702C237.987 245.411 238.061 245.12 238.137 244.827L238.137 244.827C238.321 244.124 238.505 243.421 238.68 242.718C238.728 242.533 238.704 242.508 238.521 242.5C238.065 242.475 237.642 242.341 237.266 242.073C236.339 241.411 235.916 240.491 236.051 239.31C236.067 239.218 236.075 239.134 236.083 239.05ZM232.057 243.303C231.01 243.303 230.155 244.198 230.155 245.295C230.147 246.384 230.986 247.296 232.057 247.304C233.136 247.304 233.967 246.417 233.967 245.295C233.967 244.165 233.096 243.303 232.057 243.303Z" fill="#525459"/>
</svg>
