<svg xmlns="http://www.w3.org/2000/svg" id="_Слой_1" data-name="Слой_1" viewBox="0 0 303.66 301.73">
  <defs>
    <style>
      .cls-1 {
        fill: #0084f0;
        fill-rule: evenodd;
      }
    </style>
  </defs>
  <g id="_Слой_x5F_1" data-name="Слой_x5F_1">
    <path class="cls-1" d="M59.99,186.77l-14.85-.06.03-71.66,15.34-.17,30.67,48.5c.06.09.17.23.26.31-1.05-9.44-2.55-39.88-1.47-48.64l14.8-.17v71.86h-15.51l-7.71-12.13c-2.47-4.03-5.1-8.19-7.63-12.19-2.66-4.2-4.93-8.25-7.48-12.33-2.49-4-4.76-8.73-7.34-12.61.94,16.58.94,32.57.91,49.29ZM129.63,139.24l28.35-.03v12.1h-28.43l.06,23.07,33.19-.06v12.44l-46.69-.03v-71.86l42.12.03.03,12.16-28.71.09.09,12.08ZM185.73,186.72l-19.9-71.83,18,.17c1.13,3.12,2.27,9.16,3.09,12.81l8.82,38.21c.65-.77.79-2.27,1.02-3.23.28-1.22.57-2.3.88-3.4,4.28-15.42,9.33-29.51,13.8-44.53l14.34.14c.77,1.76,1.45,4.48,2.07,6.49l5.64,18.82c1.25,4.51,2.44,8.28,3.66,12.7.6,2.18,2.69,11.93,3.29,12.93.45-.62,5.33-22.85,6.01-25.74l6.29-25.34,16.95-.03-20.21,71.86h-17.21c-.85-.4-.48-.14-.96-1.02l-13.44-45.24c-.2.23-.17.17-.43.74l-1.47,5.16c-2.78,9.81-6.6,19.79-9.61,29.23-.34,1.11-3.09,10.86-4.42,11.14l-16.21-.03ZM278.28,214.13c-.88-1.33-1.11-10.54-1.3-13.04-.23-2.75-.99-4.39.65-5.92,1.39-1.3,2.44-2.3,3.83-3.54.68-.62,1.25-1.08,1.87-1.67.79-.77.85-1.08,1.59-1.87,1.16-1.28,2.55-2.24,3.86-3.54,3.43-3.49,12.87-11.54,14.2-15,1.9-4.88-.54-8.22-2.55-11.34-3.86-6.01-7.51-12.05-11.31-17.83-.99-1.47-1.67-2.55-2.75-4.22-3.12-4.85-1.67-4.62,2.15-16.04,1.33-4.03,6.89-18.91,6.8-22.39-.23-7.11-7.97-9.89-15.25-14l-18.4-10.8c-2.18-7.88-3.88-33.14-7.51-37.5s-11.74-3.69-18.79-3.83c-6.8-.17-14.88-.28-21.51-.88l-12.19-16.24c-2.01-2.66-3.94-5.1-6.04-7.94-5.24-7.09-4.99-4.22-7.91-6.52-4.51.48-4.37.48-8.11,2.24l-20.15,9.47c-7.6,3.4-5.47,5.07-13.49.91-3.6-1.84-24.75-12.08-27.24-12.39-6.52-.82-9.35,4.39-11.93,7.8l-12.81,17.09c-5.19,6.89-1.79,5.78-15.99,6.07-31.44.6-29.11.34-32.03,17.4l-3.43,21.09c-.4,2.58.11,3.09-1.93,4.22l-19.28,11.06c-16.36,9.16-15.19,8.39-7.71,30.84,1.05,3.15,2.13,6.15,3.17,9.27,1.28,3.86,3.03,6.97,1.81,8.9-2.92,4.68-17.94,27.13-18.48,30.5-.6,3.86,1.16,7.11,2.98,8.9,1.98,2.01,4.14,3.91,6.26,5.78,1.28,1.13,1.73,2.04,3.03,3.17,1.19,1.05,2.13,1.87,3.26,2.98l6.04,6.01c3.37,3,5.47,3.91,5.22,6.8-.57,6.35-3.03,30.87-2.44,33.96,1.42,7.37,8.28,7.8,14.8,9.69,6.01,1.79,12.64,3.63,19.02,5.47,7.34,2.13,4.08-.06,10.52,14.31,9.55,21.37,7.11,25.71,23.64,22.45,6.94-1.36,13.52-2.75,20.32-4.14,8.08-1.67,5.53-3,15.9,5.78,3.12,2.64,17.29,15.08,21.03,15.87,6.12,1.28,10.35-3.66,15.82-8.19l13.49-11c4.34-3.37,3.4-4.28,7.63-3.34,6.94,1.53,13.38,2.78,20.35,4.2,6.46,1.3,14.14,4.2,18.74-1.16,1.33-1.5,9.52-21.32,11.31-25.63.79-1.87,2.35-7.26,4.05-7.97l19.02-5.47c3.09-.94,6.41-1.84,9.64-2.78,3.57-1.05,5.92-1.53,7.8-4.28,3.88-5.73,0-14.77.74-21.77Z"/>
  </g>
<script xmlns=""/></svg>