<svg width="212" height="198" viewBox="0 0 212 198" fill="none" xmlns="http://www.w3.org/2000/svg">
<path fill-rule="evenodd" clip-rule="evenodd" d="M25.242 110.309C25.4307 110.221 25.6307 110.16 25.8361 110.126L93.1108 99.1265C93.3163 99.0929 93.5254 99.0875 93.7322 99.1104C94.2558 99.1683 94.9208 99.3615 95.5488 99.7514C96.2065 100.16 96.9261 100.854 97.2715 101.927C97.4363 102.439 97.6991 103.316 97.948 104.16C98.1037 104.689 98.4722 105.125 98.9488 105.401C102.408 107.405 104.874 110.495 106.499 113.032C108.897 116.778 106.03 120.991 102.274 121.605L98.7787 122.177C97.7545 122.344 97.0286 123.267 97.1071 124.302L99.0341 149.7C99.1833 151.203 99.3188 153.039 99.4166 154.489C99.466 155.221 99.5061 155.861 99.5339 156.317C99.5478 156.546 99.5587 156.729 99.566 156.855L99.5772 157.048L99.5774 157.05C99.58 157.098 99.5813 157.146 99.581 157.193C99.576 157.916 99.3783 158.707 98.9733 159.395C98.5688 160.081 97.787 160.923 96.5286 161.129L42.3436 169.988C41.0852 170.194 40.0759 169.645 39.4739 169.123C38.871 168.6 38.4316 167.913 38.1968 167.23C38.1814 167.185 38.1674 167.14 38.1549 167.094L38.103 166.904C38.0699 166.782 38.0219 166.606 37.9624 166.385C37.8433 165.943 37.6777 165.324 37.4913 164.614C37.1222 163.208 36.6657 161.424 36.3285 159.952L30.0662 135.263C29.811 134.258 28.8289 133.614 27.8048 133.781L24.3093 134.353C20.5536 134.967 16.4935 131.886 17.5742 127.572C18.3063 124.649 19.6595 120.935 22.3007 117.934C22.6646 117.52 22.8748 116.989 22.8541 116.439C22.821 115.559 22.7907 114.643 22.7839 114.105C22.7696 112.978 23.2307 112.092 23.7241 111.495C24.1953 110.925 24.7641 110.53 25.242 110.309ZM42.3568 165.207C42.3864 165.317 42.4943 165.386 42.6065 165.368L94.8078 156.833C94.92 156.814 95.0001 156.714 94.9932 156.601C94.9658 156.151 94.9263 155.522 94.8777 154.801C94.7801 153.354 94.6474 151.562 94.5045 150.128C94.5028 150.111 94.5012 150.093 94.4999 150.076L92.2753 120.755C92.1866 119.586 93.0135 118.542 94.1789 118.351L101.545 117.147C102.096 117.057 102.49 116.731 102.678 116.381C102.851 116.056 102.843 115.751 102.659 115.464C100.957 112.806 98.5469 110.016 95.3906 108.675C94.763 108.408 94.29 107.875 94.1021 107.223C93.973 106.775 93.7713 106.081 93.5648 105.381C93.2823 104.423 92.33 103.832 91.3444 103.993L29.0605 114.177C28.0749 114.338 27.3604 115.201 27.3977 116.199C27.425 116.929 27.4549 117.651 27.4753 118.117C27.5049 118.795 27.2261 119.451 26.7161 119.903C24.1512 122.18 22.7553 125.593 21.9885 128.653C21.9057 128.984 21.9949 129.277 22.2626 129.529C22.5519 129.801 23.0291 129.985 23.5804 129.894L30.9466 128.69C32.1121 128.5 33.2285 129.226 33.5168 130.363L40.7462 158.864C40.7506 158.882 40.7547 158.899 40.7586 158.916C41.08 160.321 41.5248 162.062 41.8932 163.464C42.0767 164.163 42.2397 164.772 42.3568 165.207Z" fill="#DCDCDC"/>
<path d="M179.815 120.772L99.6002 91.7006C99.3357 91.7822 97.2584 91.8103 96.7119 93.3162C94.9219 93.1999 90.3454 92.6063 90.2885 92.7631L85.7944 105.147C85.7067 105.648 90.3391 108.392 92.631 109.223C83.1617 146.968 95.1636 128.783 86.6299 162.786C87.9291 165.17 95.1229 171.568 113.526 178.386C132.023 184.941 141.649 184.639 144.175 183.641C159.435 152.076 156.983 173.722 173.926 138.685C176.217 139.516 181.533 140.377 181.787 139.937L186.281 127.552C186.338 127.395 182.444 124.92 180.996 123.862C181.542 122.356 179.966 121.004 179.815 120.772Z" fill="#424346"/>
<path fill-rule="evenodd" clip-rule="evenodd" d="M99.6741 89.2107C99.9814 89.1176 100.311 89.1264 100.613 89.2356L181.87 118.644C182.172 118.754 182.43 118.958 182.606 119.226C182.651 119.293 182.701 119.357 182.755 119.417C182.794 119.459 182.837 119.507 182.882 119.557C183.085 119.787 183.37 120.129 183.637 120.553C183.831 120.863 184.049 121.271 184.207 121.753C184.389 122.307 184.684 122.835 185.169 123.158C185.378 123.298 185.594 123.441 185.81 123.585C186.053 123.747 186.298 123.91 186.54 124.071C187.116 124.456 187.671 124.83 188.083 125.122C188.283 125.263 188.487 125.412 188.652 125.545C188.724 125.604 188.852 125.71 188.978 125.841C189.032 125.898 189.168 126.042 189.298 126.249C189.362 126.353 189.477 126.553 189.557 126.829C189.634 127.095 189.732 127.62 189.512 128.225L185.025 140.572C184.985 140.682 184.935 140.789 184.876 140.891L184.866 140.909C184.416 141.685 183.688 141.929 183.507 141.988C183.225 142.079 182.965 142.112 182.8 142.128C182.455 142.16 182.082 142.151 181.753 142.132C181.07 142.092 180.22 141.985 179.353 141.844C178.847 141.762 178.308 141.664 177.765 141.555C176.845 141.369 175.9 141.805 175.48 142.645C172.011 149.566 169.379 154.013 167.197 157.086C164.658 160.663 162.745 162.354 160.948 163.873C160.859 163.948 160.771 164.022 160.684 164.096C159.098 165.434 157.662 166.646 155.748 169.222C153.685 172 151.047 176.399 147.262 184.198L147.22 184.284C147 184.738 146.616 185.092 146.146 185.275L146.052 185.311C145.075 185.691 143.703 185.909 142.044 185.974C140.34 186.041 138.182 185.952 135.552 185.623C130.291 184.966 123.053 183.339 113.621 180L113.605 179.995L113.59 179.989C104.206 176.518 97.6057 173.136 93.1449 170.275C90.9152 168.845 89.202 167.533 87.9367 166.392C86.7049 165.28 85.7918 164.235 85.2857 163.318L85.238 163.232C84.9937 162.789 84.9261 162.27 85.0488 161.78L85.0717 161.688C87.1759 153.28 87.9767 148.216 88.1773 144.765C88.3635 141.563 88.0393 139.715 87.6814 137.674C87.6617 137.561 87.6418 137.448 87.6219 137.334C87.2185 135.018 86.8364 132.496 87.1849 128.126C87.4844 124.372 88.3199 119.277 90.1023 111.749C90.3191 110.834 89.873 109.892 89.0452 109.444C88.5602 109.182 88.0858 108.913 87.646 108.653C86.8905 108.207 86.1691 107.746 85.6194 107.339C85.3545 107.144 85.0625 106.912 84.8178 106.666C84.7009 106.548 84.5228 106.357 84.3653 106.106C84.2639 105.944 83.861 105.29 84.0145 104.407L84.018 104.386C84.0382 104.27 84.0685 104.156 84.1088 104.046L88.5954 91.6991C88.8154 91.0936 89.2271 90.7539 89.457 90.5992C89.6948 90.4391 89.9117 90.3587 90.0273 90.3207C90.2594 90.2444 90.4563 90.2206 90.5338 90.2121C90.7146 90.1922 90.8811 90.1926 90.9746 90.1939C91.1866 90.1969 91.4386 90.2132 91.6829 90.2324C92.1863 90.2719 92.8527 90.3401 93.5423 90.4135C93.8311 90.4443 94.1238 90.4759 94.414 90.5072C94.6744 90.5353 94.9327 90.5632 95.1844 90.5901C95.7624 90.6517 96.3263 90.4355 96.8196 90.128C97.2522 89.8584 97.6824 89.6834 98.0307 89.5701C98.508 89.4149 98.9468 89.3351 99.2499 89.289C99.3159 89.279 99.3804 89.2699 99.4371 89.2621C99.5174 89.2512 99.5966 89.2342 99.6741 89.2107ZM99.6676 89.2304C99.6682 89.2305 99.6608 89.2318 99.6434 89.2343C99.6582 89.2317 99.6669 89.2304 99.6676 89.2304ZM182.599 119.245C182.599 119.245 182.605 119.252 182.615 119.264C182.603 119.25 182.598 119.245 182.599 119.245ZM100.268 93.905C100.012 93.8121 99.7311 93.7739 99.4715 93.8583C99.3591 93.8949 99.2777 93.9874 99.2373 94.0986L99.1126 94.4417C98.9037 95.0166 98.3397 95.384 97.7294 95.3428L97.0557 95.2973C96.2817 95.2451 95.0398 95.1108 93.8865 94.9862C93.6111 94.9564 93.3408 94.9272 93.0831 94.8997C92.6268 94.8512 92.1973 95.121 92.0405 95.5523L89.3378 102.99C89.0933 103.663 89.3428 104.417 89.959 104.782C91.3579 105.609 92.9582 106.421 93.9127 106.766L94.1483 106.852C95.1127 107.201 95.6567 108.223 95.4079 109.217L95.3521 109.44C93.0143 118.786 92.035 124.567 91.7206 128.508C91.4121 132.377 91.7403 134.497 92.1052 136.591C92.1253 136.706 92.1456 136.822 92.166 136.938C92.5388 139.062 92.9362 141.327 92.7196 145.051C92.5135 148.596 91.7569 153.424 89.9787 160.802C89.8281 161.427 89.9784 162.094 90.4369 162.545C90.6005 162.705 90.7836 162.878 90.9881 163.063C92.0315 164.004 93.536 165.167 95.5999 166.491C99.724 169.136 106.009 172.377 115.143 175.757C124.325 179.006 131.231 180.539 136.095 181.147C138.529 181.451 140.431 181.521 141.837 181.466C142.115 181.455 142.368 181.439 142.598 181.42C143.238 181.368 143.779 180.953 144.064 180.379C147.439 173.576 149.96 169.386 152.079 166.533C154.305 163.536 156.064 162.052 157.715 160.66C157.805 160.584 157.895 160.508 157.985 160.432C159.61 159.059 161.224 157.641 163.472 154.474C165.762 151.248 168.723 146.185 172.932 137.516L173.034 137.306C173.481 136.386 174.551 135.951 175.513 136.299L175.752 136.385C176.706 136.731 178.456 137.131 180.061 137.391C180.77 137.506 181.447 137.086 181.692 136.411L184.394 128.974C184.551 128.544 184.394 128.063 184.014 127.81C183.799 127.666 183.573 127.515 183.342 127.362C182.377 126.72 181.337 126.028 180.71 125.573L180.162 125.177C179.667 124.818 179.47 124.174 179.679 123.6L179.805 123.254C179.845 123.144 179.841 123.022 179.779 122.923C179.634 122.692 179.395 122.543 179.14 122.45L100.268 93.905ZM179.886 123.14C179.884 123.139 179.888 123.141 179.886 123.14V123.14ZM99.2486 93.957C99.2467 93.9564 99.2505 93.9577 99.2486 93.957V93.957Z" fill="#DCDCDC"/>
<path d="M127.618 80.1925C128.757 80.5231 129.955 79.8822 130.259 78.7388C131.775 73.032 132.345 67.1157 131.948 61.2246C131.867 60.031 130.792 59.1699 129.6 59.2967C128.407 59.4236 127.548 60.4924 127.624 61.6876C127.964 66.9923 127.451 72.3169 126.104 77.459C125.797 78.6299 126.453 79.8542 127.618 80.1925ZM156.781 91.5856C157.85 92.1052 159.135 91.668 159.713 90.6316C159.99 90.1345 160.276 89.6422 160.57 89.1547C161.186 88.1338 160.921 86.7979 159.929 86.134C158.928 85.4645 157.569 85.733 156.945 86.7606C156.56 87.3951 156.187 88.0374 155.828 88.6871C155.244 89.7432 155.694 91.0574 156.781 91.5856Z" fill="#DCDCDC"/>
<path d="M128.936 54.8796C130.111 54.6506 130.882 53.515 130.609 52.3522C129.229 46.4835 126.878 40.8848 123.654 35.7865C123.014 34.7756 121.66 34.5276 120.672 35.2033C119.682 35.8807 119.435 37.2293 120.073 38.245C122.961 42.8479 125.078 47.89 126.34 53.1723C126.619 54.3386 127.757 55.1094 128.936 54.8796Z" fill="#DCDCDC"/>
<path d="M162.992 78.7059C162.185 79.5931 162.311 80.9647 163.232 81.7328C164.152 82.4993 165.517 82.3745 166.325 81.4921C172.957 74.2487 181.564 69.091 191.089 66.6519C192.251 66.3545 193.002 65.2096 192.754 64.0389C192.506 62.8682 191.352 62.1153 190.189 62.4086C179.713 65.0515 170.251 70.7214 162.992 78.7059Z" fill="#DCDCDC"/>
<path d="M127.58 21.1891C128.288 22.84 127.521 24.7505 125.866 25.4563L124.868 25.8824C123.765 26.3529 123.253 27.6266 123.725 28.7272C124.197 29.8278 125.474 30.3386 126.577 29.868L127.576 29.442C129.23 28.7362 131.145 29.5023 131.853 31.1532L132.28 32.1496C132.752 33.2502 134.029 33.761 135.132 33.2904C136.235 32.8199 136.746 31.5462 136.274 30.4456L135.847 29.4492C135.139 27.7983 135.906 25.8877 137.561 25.1819L138.559 24.7559C139.662 24.2853 140.174 23.0117 139.702 21.9111C139.23 20.8104 137.953 20.2997 136.85 20.7702L135.851 21.1963C134.197 21.9021 132.282 21.136 131.574 19.485L131.147 18.4886C130.675 17.388 129.398 16.8773 128.295 17.3478C127.192 17.8184 126.68 19.0921 127.152 20.1927L127.58 21.1891Z" fill="#DCDCDC"/>
<path d="M191.033 42.4431C189.93 42.9137 189.419 44.1873 189.891 45.2879L190.318 46.2844C191.026 47.9353 190.259 49.8458 188.604 50.5516L187.606 50.9776C186.503 51.4482 185.991 52.7219 186.463 53.8225C186.935 54.9231 188.212 55.4338 189.315 54.9633L190.314 54.5373C191.968 53.8314 193.883 54.5976 194.591 56.2485L195.019 57.2449C195.491 58.3455 196.767 58.8563 197.87 58.3857C198.973 57.9151 199.485 56.6415 199.013 55.5409L198.585 54.5444C197.877 52.8935 198.644 50.983 200.299 50.2772L201.297 49.8512C202.4 49.3806 202.912 48.1069 202.44 47.0063C201.968 45.9057 200.691 45.395 199.588 45.8655L198.59 46.2915C196.935 46.9974 195.02 46.2312 194.312 44.5803L193.885 43.5839C193.413 42.4833 192.136 41.9725 191.033 42.4431Z" fill="#DCDCDC"/>
<path d="M177.498 10.6094C177.198 10.7944 176.948 11.0494 176.769 11.3524C176.591 11.6554 176.489 11.9972 176.472 12.3485C176.41 13.4809 175.073 14.0508 174.209 13.3138C173.942 13.0852 173.622 12.9249 173.279 12.8468C172.935 12.7687 172.578 12.775 172.238 12.8653C171.14 13.1561 170.184 12.0654 170.619 11.0192C170.755 10.6948 170.809 10.3425 170.777 9.99246C170.746 9.64247 170.629 9.30536 170.438 9.01018C169.821 8.06024 170.565 6.81745 171.696 6.9082C172.047 6.93635 172.4 6.87886 172.724 6.74066C173.048 6.60247 173.333 6.38774 173.555 6.11497C174.27 5.23672 175.685 5.55838 175.948 6.65946C176.03 7.00168 176.194 7.31892 176.426 7.58379C176.658 7.84866 176.951 8.05319 177.28 8.17972C178.336 8.58579 178.465 10.0247 177.498 10.6094Z" fill="#DCDCDC"/>
<path d="M150.236 57.4938C150.787 58.7893 150.904 60.2277 150.57 61.5947C150.408 62.2565 150.144 62.8844 149.792 63.4577C149.167 64.4753 148.993 65.8268 149.751 66.7504C150.514 67.6789 151.908 67.8232 152.665 66.8905C153.673 65.649 154.4 64.1941 154.784 62.6249C155.342 60.3467 155.148 57.9494 154.23 55.7897C153.651 54.4498 153.541 52.9543 153.919 51.545C154.298 50.1357 155.141 48.8951 156.314 48.0238C156.73 47.7161 157.181 47.4581 157.657 47.2552L159.654 46.4032C162.3 45.2706 164.387 43.137 165.458 40.4704C166.257 38.4804 166.441 36.3148 166.014 34.2455C165.772 33.0728 164.471 32.5608 163.368 33.0315C162.265 33.5018 161.796 34.7853 161.881 35.9786C161.95 36.9514 161.801 37.9367 161.43 38.8591C160.787 40.4596 159.534 41.7396 157.945 42.4175L155.948 43.2696C153.299 44.3994 151.21 46.5328 150.139 49.2003C149.068 51.8679 149.102 54.8511 150.236 57.4938Z" fill="#DCDCDC"/>
<path d="M141.099 80.2514C142.201 79.7812 142.671 78.4976 142.585 77.3044C142.516 76.3315 142.666 75.3462 143.036 74.4239C143.407 73.5015 143.98 72.6856 144.703 72.03C145.591 71.2258 146.139 69.9737 145.668 68.8738C145.195 67.7729 143.9 67.2464 142.914 67.9275C141.173 69.1293 139.808 70.8225 139.008 72.8125C138.209 74.8025 138.025 76.9681 138.452 79.0375C138.695 80.2102 139.995 80.7221 141.099 80.2514Z"/>
<path d="M193.043 25.0899C192.571 23.9893 191.294 23.4785 190.191 23.9491C189.088 24.4196 188.577 25.6933 189.049 26.7939C189.521 27.8945 190.798 28.4053 191.9 27.9347C193.003 27.4642 193.515 26.1905 193.043 25.0899Z" fill="#DCDCDC"/>
<path d="M184.451 87.6885C183.979 86.5879 182.703 86.0772 181.6 86.5477C180.497 87.0183 179.985 88.292 180.457 89.3926C180.929 90.4932 182.206 91.0039 183.309 90.5334C184.412 90.0628 184.923 88.7891 184.451 87.6885Z" fill="#DCDCDC"/>
<path d="M107.456 56.8865C106.984 55.7859 105.707 55.2752 104.604 55.7457C103.501 56.2163 102.99 57.49 103.462 58.5906C103.934 59.6912 105.211 60.2019 106.313 59.7314C107.416 59.2608 107.928 57.9872 107.456 56.8865Z" fill="#DCDCDC"/>
<path d="M152.887 30.4309C151.769 30.8657 151.217 32.1222 151.653 33.2374C152.089 34.3526 153.349 34.9042 154.466 34.4694C155.584 34.0345 156.136 32.778 155.7 31.6628C155.264 30.5476 154.004 29.996 152.887 30.4309Z" fill="#DCDCDC"/>
<path d="M153.684 15.9467C153.212 14.8461 151.935 14.3353 150.832 14.8059C149.729 15.2764 149.218 16.5501 149.69 17.6507C150.162 18.7513 151.439 19.2621 152.542 18.7915C153.645 18.321 154.156 17.0473 153.684 15.9467Z" fill="#DCDCDC"/>
<path d="M173.632 56.9438C173.16 55.8432 171.883 55.3324 170.78 55.803C169.677 56.2735 169.166 57.5472 169.638 58.6478C170.11 59.7484 171.387 60.2592 172.489 59.7886C173.592 59.318 174.104 58.0444 173.632 56.9438Z" fill="#DCDCDC"/>
<path d="M177.922 33.8962C177.45 32.7956 176.173 32.2848 175.071 32.7554C173.968 33.226 173.456 34.4996 173.928 35.6002C174.4 36.7008 175.677 37.2116 176.78 36.741C177.883 36.2705 178.394 34.9968 177.922 33.8962Z" fill="#DCDCDC"/>
<path d="M206.704 73.4764C206.232 72.3757 204.956 71.865 203.853 72.3355C202.75 72.8061 202.238 74.0798 202.71 75.1804C203.182 76.281 204.459 76.7918 205.562 76.3212C206.665 75.8506 207.176 74.577 206.704 73.4764Z" fill="#DCDCDC"/>
<path d="M143.966 48.3811C143.494 47.2805 142.218 46.7697 141.115 47.2403C140.012 47.7108 139.5 48.9845 139.972 50.0851C140.444 51.1857 141.721 51.6965 142.824 51.2259C143.927 50.7554 144.438 49.4817 143.966 48.3811Z" fill="#DCDCDC"/>
<path d="M104.044 32.4071C103.572 31.3064 102.295 30.7957 101.192 31.2662C100.089 31.7368 99.5776 33.0105 100.05 34.1111C100.522 35.2117 101.798 35.7225 102.901 35.2519C104.004 34.7813 104.516 33.5077 104.044 32.4071Z" fill="#DCDCDC"/>
<path d="M73.4411 89.3978C72.4108 89.6695 71.3485 89.0688 71.1007 88.0371C69.8639 82.8875 69.4814 77.5707 69.9682 72.2975C70.0668 71.229 71.0513 70.4803 72.1198 70.6199C73.1895 70.7596 73.9377 71.7365 73.8426 72.8065C73.4207 77.5552 73.7649 82.3403 74.8621 86.9799C75.1119 88.0364 74.4952 89.1198 73.4411 89.3978Z" fill="#DCDCDC"/>
<path d="M41.6894 87.2962C42.3946 88.1092 42.2516 89.3362 41.4065 90.0048C40.5631 90.672 39.3399 90.5305 38.6332 89.7218C32.8331 83.0833 25.2127 78.2719 16.7074 75.8781C15.6702 75.5862 15.0204 74.5434 15.2692 73.4991C15.518 72.4549 16.5713 71.805 17.6095 72.0932C26.9645 74.6905 35.342 79.9797 41.6894 87.2962Z" fill="#DCDCDC"/>
<path d="M17.2905 54.1741C18.2711 54.62 18.7027 55.773 18.2544 56.7496L17.8485 57.6336C17.176 59.0984 17.8233 60.828 19.2944 61.4968L20.1822 61.9005C21.1629 62.3464 21.5944 63.4994 21.1461 64.476C20.6978 65.4525 19.5393 65.8827 18.5587 65.4368L17.6708 65.0332C16.1998 64.3644 14.4622 65.0097 13.7897 66.4744L13.3838 67.3585C12.9355 68.335 11.777 68.7652 10.7963 68.3194C9.81564 67.8735 9.38408 66.7204 9.8324 65.7439L10.2383 64.8598C10.9108 63.395 10.2634 61.6654 8.79242 60.9966L7.90457 60.593C6.92389 60.1471 6.49234 58.994 6.94066 58.0175C7.38898 57.041 8.54742 56.6108 9.52811 57.0566L10.416 57.4603C11.887 58.1291 13.6246 57.4838 14.2971 56.019L14.703 55.1349C15.1513 54.1584 16.3098 53.7282 17.2905 54.1741Z" fill="#DCDCDC"/>
<path d="M61.3271 89.1577C60.347 88.7121 59.9531 87.5511 60.056 86.4831C60.1399 85.6124 60.0268 84.7257 59.7142 83.8907C59.4017 83.0556 58.9045 82.3116 58.2689 81.7081C57.4892 80.9678 57.0239 79.8333 57.472 78.8574C57.9204 77.8806 59.0956 77.4367 59.9672 78.0688C61.5051 79.1842 62.6946 80.7319 63.3689 82.5335C64.0432 84.3351 64.1612 86.2807 63.7316 88.1268C63.4881 89.1729 62.308 89.6037 61.3271 89.1577Z" fill="#DCDCDC"/>
<path d="M15.8661 38.5718C16.3144 37.5953 17.4729 37.1651 18.4535 37.6109C19.4342 38.0568 19.8658 39.2099 19.4174 40.1864C18.9691 41.1629 17.8107 41.5931 16.83 41.1473C15.8493 40.7014 15.4178 39.5483 15.8661 38.5718Z" fill="#DCDCDC"/>
<path d="M22.2093 94.8835C22.6576 93.9069 23.816 93.4767 24.7967 93.9226C25.7774 94.3685 26.209 95.5215 25.7607 96.4981C25.3123 97.4746 24.1539 97.9048 23.1732 97.4589C22.1925 97.0131 21.761 95.86 22.2093 94.8835Z" fill="#DCDCDC"/>
<path d="M39.1042 70.1281C39.5525 69.1516 40.7109 68.7214 41.6916 69.1673C42.6723 69.6131 43.1038 70.7662 42.6555 71.7427C42.2072 72.7193 41.0488 73.1495 40.0681 72.7036C39.0874 72.2577 38.6558 71.1046 39.1042 70.1281Z" fill="#DCDCDC"/>
<path d="M44.8021 58.0128C45.2505 57.0363 46.4089 56.6061 47.3896 57.052C48.3703 57.4978 48.8018 58.6509 48.3535 59.6274C47.9052 60.604 46.7467 61.0341 45.766 60.5883C44.7854 60.1424 44.3538 58.9893 44.8021 58.0128Z" fill="#DCDCDC"/>
<path d="M2.52654 81.6574C2.97487 80.6809 4.1333 80.2507 5.11399 80.6966C6.09468 81.1424 6.52624 82.2955 6.07791 83.272C5.62959 84.2486 4.47115 84.6788 3.49047 84.2329C2.50979 83.787 2.07822 82.634 2.52654 81.6574Z" fill="#DCDCDC"/>
<path d="M59.4513 60.5209C59.8996 59.5444 61.058 59.1142 62.0387 59.5601C63.0194 60.0059 63.451 61.159 63.0026 62.1355C62.5543 63.1121 61.3959 63.5422 60.4152 63.0964C59.4345 62.6505 59.003 61.4974 59.4513 60.5209Z" fill="#DCDCDC"/>
<path d="M47.3912 44.2182C47.8395 43.2417 48.9979 42.8115 49.9786 43.2573C50.9593 43.7032 51.3909 44.8563 50.9425 45.8328C50.4942 46.8093 49.3358 47.2395 48.3551 46.7937C47.3744 46.3478 46.9428 45.1947 47.3912 44.2182Z" fill="#DCDCDC"/>
<path d="M46.4206 94.8805C46.869 93.9039 48.0274 93.4737 49.0081 93.9196C49.9888 94.3655 50.4203 95.5185 49.972 96.4951C49.5237 97.4716 48.3652 97.9018 47.3846 97.4559C46.4039 97.0101 45.9723 95.857 46.4206 94.8805Z" fill="#DCDCDC"/>
</svg>
