<svg width="829" height="519" viewBox="0 0 829 519" fill="none" xmlns="http://www.w3.org/2000/svg">
<rect width="829" height="519" fill="#3D3E41"/>
<path d="M522.69 269.365V266.087H523.176C523.55 266.077 523.864 265.87 524.117 265.465C524.38 265.06 524.582 264.382 524.724 263.431C524.876 262.47 524.977 261.17 525.028 259.531L525.104 256.526H531.781V266.087H533.117V269.365H531.903V267.301H523.905V269.365H522.69ZM524.997 266.087H530.415V257.74H526.363L526.318 259.698C526.287 260.973 526.222 262.04 526.12 262.9C526.019 263.76 525.878 264.448 525.695 264.964C525.513 265.48 525.281 265.854 524.997 266.087Z" fill="#9FA1AA"/>
<path d="M534.025 267.362V266.163C534.369 266.153 534.672 266.026 534.935 265.784C535.199 265.541 535.406 265.096 535.558 264.448C535.72 263.8 535.821 262.875 535.861 261.671L535.952 259.379H541.34V267.301H540.004V260.563H537.136L537.106 261.792C537.055 263.229 536.908 264.352 536.666 265.161C536.433 265.971 536.094 266.537 535.649 266.861C535.214 267.185 534.672 267.352 534.025 267.362Z" fill="#9FA1AA"/>
<path d="M543.482 267.301V259.394H544.817V265.51L549.249 259.379H550.463V267.301H549.128V261.306L544.757 267.301H543.482Z" fill="#9FA1AA"/>
<path d="M552.582 267.301V259.379H553.917V262.657H558.045V259.379H559.381V267.301H558.045V263.841H553.917V267.301H552.582Z" fill="#9FA1AA"/>
<path d="M560.912 265.01C560.912 264.504 561.053 264.069 561.337 263.704C561.63 263.33 562.03 263.042 562.536 262.839C563.042 262.637 563.628 262.536 564.296 262.536C564.65 262.536 565.025 262.566 565.419 262.627C565.814 262.677 566.163 262.758 566.466 262.87V262.293C566.466 261.686 566.284 261.21 565.92 260.866C565.556 260.512 565.04 260.335 564.372 260.335C563.937 260.335 563.517 260.416 563.112 260.578C562.718 260.73 562.298 260.952 561.853 261.246L561.367 260.305C561.883 259.951 562.399 259.688 562.915 259.516C563.431 259.333 563.967 259.242 564.524 259.242C565.536 259.242 566.335 259.526 566.922 260.092C567.509 260.649 567.802 261.428 567.802 262.429V265.784C567.802 266.097 567.944 266.259 568.227 266.269V267.301C568.095 267.321 567.979 267.337 567.878 267.347C567.787 267.357 567.711 267.362 567.65 267.362C567.337 267.362 567.099 267.276 566.937 267.104C566.785 266.932 566.699 266.75 566.679 266.558L566.649 266.057C566.305 266.502 565.854 266.846 565.298 267.089C564.741 267.332 564.19 267.453 563.644 267.453C563.118 267.453 562.647 267.347 562.232 267.134C561.817 266.912 561.494 266.618 561.261 266.254C561.028 265.88 560.912 265.465 560.912 265.01ZM566.072 265.571C566.193 265.429 566.289 265.288 566.36 265.146C566.431 264.994 566.466 264.868 566.466 264.767V263.78C565.819 263.527 565.151 263.401 564.463 263.401C563.785 263.401 563.234 263.537 562.809 263.811C562.394 264.074 562.187 264.438 562.187 264.903C562.187 265.156 562.252 265.404 562.384 265.647C562.526 265.88 562.728 266.072 562.991 266.224C563.264 266.375 563.598 266.451 563.993 266.451C564.408 266.451 564.802 266.37 565.176 266.208C565.551 266.036 565.849 265.824 566.072 265.571Z" fill="#9FA1AA"/>
<path d="M573.336 262.05C573.336 261.018 573.543 260.006 573.958 259.015C574.383 258.023 574.894 257.022 575.491 256.01L576.523 256.465C576.331 256.748 576.123 257.108 575.901 257.543C575.678 257.978 575.466 258.453 575.263 258.969C575.061 259.485 574.894 260.011 574.763 260.548C574.641 261.084 574.581 261.6 574.581 262.096C574.581 262.895 574.753 263.755 575.097 264.676C575.441 265.586 575.906 266.502 576.493 267.423L575.506 267.939C574.869 266.988 574.348 266.016 573.943 265.025C573.538 264.023 573.336 263.031 573.336 262.05Z" fill="#9FA1AA"/>
<path d="M581.254 267.453C580.465 267.453 579.767 267.266 579.16 266.891C578.553 266.507 578.077 266.001 577.733 265.374C577.389 264.746 577.217 264.064 577.217 263.325C577.217 262.576 577.384 261.893 577.718 261.276C578.052 260.659 578.522 260.168 579.129 259.804C579.736 259.43 580.44 259.242 581.239 259.242C582.018 259.242 582.696 259.419 583.272 259.774C583.859 260.118 584.294 260.583 584.578 261.17L583.272 261.58C583.07 261.205 582.787 260.917 582.423 260.715C582.058 260.502 581.654 260.396 581.208 260.396C580.723 260.396 580.278 260.522 579.873 260.775C579.478 261.028 579.165 261.377 578.932 261.822C578.699 262.257 578.583 262.758 578.583 263.325C578.583 263.881 578.699 264.387 578.932 264.843C579.175 265.288 579.493 265.642 579.888 265.905C580.293 266.168 580.738 266.3 581.224 266.3C581.537 266.3 581.836 266.244 582.119 266.133C582.412 266.021 582.665 265.875 582.878 265.692C583.1 265.5 583.252 265.293 583.333 265.07L584.638 265.465C584.406 266.042 583.981 266.517 583.364 266.891C582.756 267.266 582.053 267.453 581.254 267.453Z" fill="#9FA1AA"/>
<path d="M586.136 267.301V259.379H587.518L590.462 264.569L593.421 259.379H594.772V267.301H593.497V261.306L590.887 265.89H590.037L587.411 261.306V267.301H586.136Z" fill="#9FA1AA"/>
<path d="M599.507 262.05C599.507 263.031 599.304 264.023 598.899 265.025C598.495 266.016 597.974 266.988 597.336 267.939L596.35 267.423C596.937 266.502 597.402 265.586 597.746 264.676C598.09 263.755 598.262 262.895 598.262 262.096C598.262 261.6 598.196 261.084 598.065 260.548C597.943 260.011 597.781 259.485 597.579 258.969C597.377 258.453 597.164 257.978 596.942 257.543C596.719 257.108 596.512 256.748 596.319 256.465L597.351 256.01C597.948 257.022 598.454 258.023 598.869 259.015C599.294 260.006 599.507 261.018 599.507 262.05Z" fill="#9FA1AA"/>
<path d="M334.197 46.2914V45.3049C333.519 45.2746 332.881 45.1431 332.284 44.9103C331.687 44.6776 331.161 44.3539 330.706 43.939C330.251 43.5242 329.892 43.0335 329.628 42.4669C329.375 41.8902 329.249 41.2578 329.249 40.5698C329.249 39.8413 329.386 39.1938 329.659 38.6272C329.932 38.0505 330.296 37.5598 330.752 37.1551C331.217 36.7403 331.743 36.4215 332.33 36.199C332.927 35.9764 333.549 35.8499 334.197 35.8195V35.0152H335.502V35.8195C336.159 35.8499 336.787 35.9814 337.384 36.2141C337.981 36.4468 338.507 36.7706 338.962 37.1854C339.427 37.5901 339.792 38.0809 340.055 38.6576C340.318 39.2242 340.449 39.8616 340.449 40.5698C340.449 41.2781 340.313 41.9205 340.04 42.4973C339.777 43.0639 339.412 43.5546 338.947 43.9694C338.481 44.3741 337.95 44.6928 337.353 44.9255C336.767 45.1481 336.149 45.2746 335.502 45.3049V46.2914H334.197ZM334.227 44.1819V36.9426C333.569 36.973 332.962 37.1399 332.406 37.4434C331.859 37.7369 331.424 38.1466 331.101 38.6727C330.777 39.1989 330.615 39.8312 330.615 40.5698C330.615 41.3084 330.782 41.9458 331.116 42.4821C331.46 43.0082 331.905 43.418 332.451 43.7114C333.008 43.9947 333.6 44.1515 334.227 44.1819ZM335.471 44.1819C336.129 44.1515 336.731 43.9896 337.277 43.6962C337.824 43.3927 338.259 42.9779 338.583 42.4517C338.917 41.9155 339.083 41.2882 339.083 40.5698C339.083 39.8312 338.917 39.1989 338.583 38.6727C338.249 38.1365 337.804 37.7217 337.247 37.4283C336.701 37.1348 336.109 36.973 335.471 36.9426V44.1819Z" fill="#9FA1AA"/>
<path d="M341.429 43.9997C341.429 43.4939 341.57 43.0588 341.854 42.6946C342.147 42.3202 342.547 42.0318 343.053 41.8295C343.558 41.6271 344.145 41.526 344.813 41.526C345.167 41.526 345.541 41.5563 345.936 41.617C346.331 41.6676 346.68 41.7485 346.983 41.8598V41.2831C346.983 40.6761 346.801 40.2005 346.437 39.8565C346.073 39.5024 345.557 39.3253 344.889 39.3253C344.454 39.3253 344.034 39.4063 343.629 39.5682C343.235 39.7199 342.815 39.9425 342.37 40.2359L341.884 39.295C342.4 38.9409 342.916 38.6778 343.432 38.5058C343.948 38.3237 344.484 38.2326 345.041 38.2326C346.052 38.2326 346.852 38.5159 347.439 39.0825C348.025 39.639 348.319 40.4181 348.319 41.4197V44.7738C348.319 45.0874 348.46 45.2493 348.744 45.2594V46.2914C348.612 46.3117 348.496 46.3268 348.395 46.3369C348.304 46.3471 348.228 46.3521 348.167 46.3521C347.853 46.3521 347.616 46.2661 347.454 46.0941C347.302 45.9221 347.216 45.74 347.196 45.5478L347.165 45.0469C346.821 45.4921 346.371 45.8361 345.815 46.0789C345.258 46.3218 344.707 46.4432 344.16 46.4432C343.634 46.4432 343.164 46.3369 342.749 46.1245C342.334 45.9019 342.01 45.6085 341.778 45.2442C341.545 44.8699 341.429 44.455 341.429 43.9997ZM346.589 44.5613C346.71 44.4196 346.806 44.278 346.877 44.1363C346.948 43.9846 346.983 43.8581 346.983 43.7569V42.7704C346.336 42.5175 345.668 42.391 344.98 42.391C344.302 42.391 343.751 42.5276 343.326 42.8008C342.911 43.0639 342.703 43.4281 342.703 43.8935C342.703 44.1465 342.769 44.3943 342.901 44.6372C343.042 44.8699 343.245 45.0621 343.508 45.2139C343.781 45.3656 344.115 45.4415 344.509 45.4415C344.924 45.4415 345.319 45.3606 345.693 45.1987C346.068 45.0267 346.366 44.8142 346.589 44.5613Z" fill="#9FA1AA"/>
<path d="M349.756 46.3521V45.1532C350.1 45.1431 350.404 45.0166 350.667 44.7738C350.93 44.5309 351.137 44.0857 351.289 43.4382C351.451 42.7907 351.552 41.8649 351.593 40.6609L351.684 38.3692H357.071V46.2914H355.736V39.553H352.867L352.837 40.7823C352.786 42.219 352.64 43.3421 352.397 44.1515C352.164 44.9609 351.825 45.5275 351.38 45.8513C350.945 46.1751 350.404 46.342 349.756 46.3521Z" fill="#9FA1AA"/>
<path d="M359.213 46.2914V38.3692H360.549V41.0707H362.522C363.452 41.0707 364.156 41.3084 364.631 41.784C365.117 42.2494 365.36 42.8615 365.36 43.6203C365.36 44.3792 365.127 45.0166 364.662 45.5326C364.196 46.0385 363.513 46.2914 362.613 46.2914H359.213ZM360.549 45.2442H362.431C362.987 45.2442 363.387 45.0874 363.63 44.7738C363.883 44.45 364.009 44.0756 364.009 43.6507C364.009 43.2359 363.893 42.8767 363.66 42.5731C363.427 42.2696 363.007 42.1178 362.4 42.1178H360.549V45.2442Z" fill="#9FA1AA"/>
<path d="M373.054 48.1581V46.2914H366.801V38.3692H368.137V45.1228H371.81V38.3692H373.145V45.1228H374.238V48.1581H373.054Z" fill="#9FA1AA"/>
<path d="M375.709 46.2914V38.3692H377.044V41.0707H378.653C379.584 41.0707 380.287 41.3084 380.763 41.784C381.248 42.2494 381.491 42.8615 381.491 43.6203C381.491 44.3792 381.258 45.0166 380.793 45.5326C380.328 46.0385 379.645 46.2914 378.744 46.2914H375.709ZM382.857 46.2914V38.3844H384.193V46.2914H382.857ZM377.044 45.2442H378.562C379.119 45.2442 379.518 45.0874 379.761 44.7738C380.014 44.45 380.14 44.0756 380.14 43.6507C380.14 43.2359 380.024 42.8767 379.791 42.5731C379.559 42.2696 379.139 42.1178 378.532 42.1178H377.044V45.2442Z" fill="#9FA1AA"/>
<path d="M389.749 41.0403C389.749 40.0083 389.957 38.9965 390.371 38.005C390.796 37.0134 391.307 36.0118 391.904 35L392.936 35.4553C392.744 35.7386 392.537 36.0978 392.314 36.5328C392.091 36.9679 391.879 37.4434 391.677 37.9594C391.474 38.4754 391.307 39.0016 391.176 39.5378C391.054 40.0741 390.994 40.5901 390.994 41.0858C390.994 41.8851 391.166 42.7451 391.51 43.6659C391.854 44.5765 392.319 45.4921 392.906 46.4128L391.919 46.9288C391.282 45.9778 390.761 45.0065 390.356 44.0149C389.951 43.0133 389.749 42.0217 389.749 41.0403Z" fill="#9FA1AA"/>
<path d="M397.667 46.4432C396.878 46.4432 396.18 46.256 395.573 45.8816C394.966 45.4972 394.49 44.9913 394.146 44.364C393.802 43.7367 393.63 43.0537 393.63 42.3151C393.63 41.5664 393.797 40.8835 394.131 40.2663C394.465 39.6491 394.935 39.1584 395.542 38.7942C396.149 38.4198 396.853 38.2326 397.652 38.2326C398.431 38.2326 399.109 38.4097 399.686 38.7638C400.272 39.1078 400.707 39.5732 400.991 40.1601L399.686 40.5698C399.483 40.1955 399.2 39.9071 398.836 39.7048C398.471 39.4923 398.067 39.386 397.622 39.386C397.136 39.386 396.691 39.5125 396.286 39.7655C395.891 40.0184 395.578 40.3675 395.345 40.8127C395.112 41.2477 394.996 41.7485 394.996 42.3151C394.996 42.8716 395.112 43.3775 395.345 43.8328C395.588 44.278 395.907 44.6321 396.301 44.8952C396.706 45.1582 397.151 45.2898 397.637 45.2898C397.95 45.2898 398.249 45.2341 398.532 45.1228C398.826 45.0115 399.079 44.8648 399.291 44.6827C399.514 44.4905 399.665 44.283 399.746 44.0605L401.051 44.455C400.819 45.0318 400.394 45.5073 399.777 45.8816C399.17 46.256 398.466 46.4432 397.667 46.4432Z" fill="#9FA1AA"/>
<path d="M402.55 46.2914V38.3692H403.931L406.875 43.5596L409.834 38.3692H411.185V46.2914H409.91V40.2966L407.3 44.88H406.45L403.824 40.2966V46.2914H402.55Z" fill="#9FA1AA"/>
<path d="M415.92 41.0403C415.92 42.0217 415.717 43.0133 415.313 44.0149C414.908 45.0065 414.387 45.9778 413.749 46.9288L412.763 46.4128C413.35 45.4921 413.815 44.5765 414.159 43.6659C414.503 42.7451 414.675 41.8851 414.675 41.0858C414.675 40.5901 414.609 40.0741 414.478 39.5378C414.356 39.0016 414.195 38.4754 413.992 37.9594C413.79 37.4434 413.577 36.9679 413.355 36.5328C413.132 36.0978 412.925 35.7386 412.733 35.4553L413.765 35C414.361 36.0118 414.867 37.0134 415.282 38.005C415.707 38.9965 415.92 40.0083 415.92 41.0403Z" fill="#9FA1AA"/>
<path d="M328.05 481.671V470.896H329.416V480.457H333.453V470.896H334.819V480.457H338.856V470.896H340.222V481.671H328.05Z" fill="#9FA1AA"/>
<path d="M342.569 481.671V473.764H343.905V479.88L348.336 473.749H349.55V481.671H348.215V475.677L343.844 481.671H342.569Z" fill="#9FA1AA"/>
<path d="M355.949 481.823C355.302 481.823 354.725 481.661 354.219 481.337C353.713 481.014 353.313 480.604 353.02 480.108V484.904H351.684V473.749H352.868V475.236C353.182 474.751 353.592 474.361 354.098 474.068C354.603 473.764 355.155 473.613 355.752 473.613C356.298 473.613 356.799 473.724 357.254 473.946C357.71 474.169 358.104 474.473 358.438 474.857C358.772 475.241 359.03 475.682 359.212 476.177C359.404 476.663 359.5 477.174 359.5 477.71C359.5 478.459 359.349 479.147 359.045 479.774C358.752 480.402 358.337 480.902 357.801 481.277C357.264 481.641 356.647 481.823 355.949 481.823ZM355.539 480.67C356.065 480.67 356.521 480.528 356.905 480.245C357.29 479.961 357.588 479.592 357.801 479.137C358.023 478.682 358.135 478.206 358.135 477.71C358.135 477.174 358.013 476.683 357.77 476.238C357.538 475.793 357.214 475.439 356.799 475.176C356.394 474.903 355.934 474.766 355.418 474.766C355.104 474.766 354.77 474.847 354.416 475.009C354.072 475.171 353.769 475.388 353.506 475.661C353.253 475.924 353.091 476.218 353.02 476.542V478.803C353.243 479.329 353.582 479.774 354.037 480.138C354.502 480.493 355.003 480.67 355.539 480.67Z" fill="#9FA1AA"/>
<path d="M361.125 481.671V473.764H362.461V479.88L366.892 473.749H368.106V481.671H366.771V475.677L362.4 481.671H361.125Z" fill="#9FA1AA"/>
<path d="M370.225 481.671V473.749H371.561V477.027H375.689V473.749H377.024V481.671H375.689V478.211H371.561V481.671H370.225Z" fill="#9FA1AA"/>
<path d="M378.555 479.38C378.555 478.874 378.697 478.439 378.98 478.074C379.273 477.7 379.673 477.412 380.179 477.209C380.685 477.007 381.272 476.906 381.939 476.906C382.294 476.906 382.668 476.936 383.063 476.997C383.457 477.047 383.806 477.128 384.11 477.24V476.663C384.11 476.056 383.928 475.58 383.563 475.236C383.199 474.882 382.683 474.705 382.015 474.705C381.58 474.705 381.16 474.786 380.756 474.948C380.361 475.1 379.941 475.322 379.496 475.616L379.01 474.675C379.526 474.321 380.042 474.058 380.558 473.886C381.074 473.704 381.611 473.613 382.167 473.613C383.179 473.613 383.978 473.896 384.565 474.462C385.152 475.019 385.445 475.798 385.445 476.8V480.154C385.445 480.467 385.587 480.629 385.87 480.639V481.671C385.739 481.692 385.622 481.707 385.521 481.717C385.43 481.727 385.354 481.732 385.293 481.732C384.98 481.732 384.742 481.646 384.58 481.474C384.428 481.302 384.342 481.12 384.322 480.928L384.292 480.427C383.948 480.872 383.498 481.216 382.941 481.459C382.385 481.702 381.833 481.823 381.287 481.823C380.761 481.823 380.29 481.717 379.875 481.504C379.461 481.282 379.137 480.988 378.904 480.624C378.671 480.25 378.555 479.835 378.555 479.38ZM383.715 479.941C383.837 479.8 383.933 479.658 384.003 479.516C384.074 479.364 384.11 479.238 384.11 479.137V478.15C383.462 477.897 382.794 477.771 382.106 477.771C381.428 477.771 380.877 477.907 380.452 478.181C380.037 478.444 379.83 478.808 379.83 479.273C379.83 479.526 379.896 479.774 380.027 480.017C380.169 480.25 380.371 480.442 380.634 480.594C380.907 480.746 381.241 480.821 381.636 480.821C382.051 480.821 382.445 480.74 382.82 480.579C383.194 480.407 383.493 480.194 383.715 479.941Z" fill="#9FA1AA"/>
<path d="M390.979 476.42C390.979 475.388 391.187 474.376 391.602 473.385C392.026 472.393 392.537 471.392 393.134 470.38L394.166 470.835C393.974 471.118 393.767 471.478 393.544 471.913C393.322 472.348 393.109 472.823 392.907 473.339C392.704 473.855 392.537 474.381 392.406 474.918C392.284 475.454 392.224 475.97 392.224 476.466C392.224 477.265 392.396 478.125 392.74 479.046C393.084 479.956 393.549 480.872 394.136 481.793L393.15 482.309C392.512 481.358 391.991 480.386 391.586 479.395C391.182 478.393 390.979 477.402 390.979 476.42Z" fill="#9FA1AA"/>
<path d="M398.897 481.823C398.108 481.823 397.41 481.636 396.803 481.262C396.196 480.877 395.72 480.371 395.376 479.744C395.032 479.117 394.86 478.434 394.86 477.695C394.86 476.946 395.027 476.263 395.361 475.646C395.695 475.029 396.165 474.538 396.772 474.174C397.38 473.8 398.083 473.613 398.882 473.613C399.661 473.613 400.339 473.79 400.916 474.144C401.503 474.488 401.938 474.953 402.221 475.54L400.916 475.95C400.713 475.575 400.43 475.287 400.066 475.085C399.702 474.872 399.297 474.766 398.852 474.766C398.366 474.766 397.921 474.892 397.516 475.145C397.122 475.398 396.808 475.747 396.575 476.193C396.342 476.628 396.226 477.128 396.226 477.695C396.226 478.251 396.342 478.757 396.575 479.213C396.818 479.658 397.137 480.012 397.531 480.275C397.936 480.538 398.381 480.67 398.867 480.67C399.18 480.67 399.479 480.614 399.762 480.503C400.056 480.391 400.309 480.245 400.521 480.063C400.744 479.87 400.895 479.663 400.976 479.44L402.282 479.835C402.049 480.412 401.624 480.887 401.007 481.262C400.4 481.636 399.697 481.823 398.897 481.823Z" fill="#9FA1AA"/>
<path d="M403.78 481.671V473.749H405.161L408.105 478.94L411.064 473.749H412.415V481.671H411.14V475.677L408.53 480.26H407.68L405.055 475.677V481.671H403.78Z" fill="#9FA1AA"/>
<path d="M417.15 476.42C417.15 477.402 416.947 478.393 416.543 479.395C416.138 480.386 415.617 481.358 414.979 482.309L413.993 481.793C414.58 480.872 415.045 479.956 415.389 479.046C415.733 478.125 415.905 477.265 415.905 476.466C415.905 475.97 415.839 475.454 415.708 474.918C415.587 474.381 415.425 473.855 415.222 473.339C415.02 472.823 414.807 472.348 414.585 471.913C414.362 471.478 414.155 471.118 413.963 470.835L414.995 470.38C415.592 471.392 416.097 472.393 416.512 473.385C416.937 474.376 417.15 475.388 417.15 476.42Z" fill="#9FA1AA"/>
<path d="M319.646 127.866H290.715C288.096 127.866 285.973 129.989 285.973 132.608V399.148C285.973 401.767 288.096 403.891 290.715 403.891H372.764H454.813C457.432 403.891 459.556 401.767 459.556 399.148V132.608C459.556 129.989 457.432 127.866 454.813 127.866H425.882C423.263 127.866 421.14 129.989 421.14 132.608V203.275C421.14 206.942 418.167 209.914 414.5 209.914H408.413C406.274 209.914 404.54 208.18 404.54 206.041C404.54 204.513 403.302 203.275 401.774 203.275H372.764H343.755C342.227 203.275 340.988 204.513 340.988 206.041C340.988 208.18 339.254 209.914 337.115 209.914H331.028C327.361 209.914 324.389 206.942 324.389 203.275V132.608C324.389 129.989 322.265 127.866 319.646 127.866Z" fill="#DCDCDC"/>
<path fill-rule="evenodd" clip-rule="evenodd" d="M284.787 116.009V70.9531H286.21V116.009H284.787ZM332.214 202.326V70.9531H333.637V202.326H332.214ZM411.891 202.326V70.9531H413.314V202.326H411.891ZM458.844 116.009V70.9531H460.267V116.009H458.844ZM294.007 92.7983C293.729 92.5205 293.729 92.0701 294.007 91.7922L298.534 87.2649C298.812 86.9871 299.262 86.9871 299.54 87.2649C299.818 87.5427 299.818 87.9931 299.54 88.271L296.227 91.5839H320.774L317.461 88.271C317.183 87.9931 317.183 87.5427 317.461 87.2649C317.739 86.9871 318.189 86.9871 318.467 87.2649L322.995 91.7922C323.272 92.0701 323.272 92.5205 322.995 92.7983L318.467 97.3257C318.189 97.6035 317.739 97.6035 317.461 97.3257C317.183 97.0478 317.183 96.5974 317.461 96.3196L320.774 93.0067H296.227L299.54 96.3196C299.818 96.5974 299.818 97.0478 299.54 97.3257C299.262 97.6035 298.812 97.6035 298.534 97.3257L294.007 92.7983ZM422.059 92.7983C421.782 92.5205 421.782 92.0701 422.059 91.7922L426.587 87.2649C426.865 86.9871 427.315 86.9871 427.593 87.2649C427.871 87.5427 427.871 87.9931 427.593 88.271L424.28 91.5839H448.827L445.514 88.271C445.236 87.9931 445.236 87.5427 445.514 87.2649C445.792 86.9871 446.242 86.9871 446.52 87.2649L451.047 91.7922C451.325 92.0701 451.325 92.5205 451.047 92.7983L446.52 97.3257C446.242 97.6035 445.792 97.6035 445.514 97.3257C445.236 97.0478 445.236 96.5974 445.514 96.3196L448.827 93.0067H424.28L427.593 96.3196C427.871 96.5974 427.871 97.0478 427.593 97.3257C427.315 97.6035 426.865 97.6035 426.587 97.3257L422.059 92.7983ZM515.519 129.051H472.361V127.628H515.519V129.051ZM494.148 140.168C494.426 139.89 494.877 139.89 495.155 140.168L499.682 144.695C499.96 144.973 499.96 145.423 499.682 145.701C499.404 145.979 498.954 145.979 498.676 145.701L495.363 142.388V387.471L498.676 384.158C498.954 383.88 499.404 383.88 499.682 384.158C499.96 384.436 499.96 384.886 499.682 385.164L495.155 389.691C494.877 389.969 494.426 389.969 494.148 389.691L489.621 385.164C489.343 384.886 489.343 384.436 489.621 384.158C489.899 383.88 490.349 383.88 490.627 384.158L493.94 387.471V142.388L490.627 145.701C490.349 145.979 489.899 145.979 489.621 145.701C489.343 145.423 489.343 144.973 489.621 144.695L494.148 140.168ZM515.519 402.705V404.128H472.361V402.705H515.519ZM284.787 461.277V416.222H286.21V461.277H284.787ZM458.844 461.277V416.222H460.267V461.277H458.844ZM300.172 441.387C299.894 441.109 299.894 440.658 300.172 440.381L304.699 435.853C304.977 435.575 305.428 435.575 305.706 435.853C305.983 436.131 305.983 436.582 305.706 436.859L302.393 440.172H443.61L440.297 436.859C440.019 436.582 440.019 436.131 440.297 435.853C440.575 435.575 441.025 435.575 441.303 435.853L445.831 440.381C446.108 440.658 446.108 441.109 445.831 441.387L441.303 445.914C441.025 446.192 440.575 446.192 440.297 445.914C440.019 445.636 440.019 445.186 440.297 444.908L443.61 441.595H302.393L305.706 444.908C305.983 445.186 305.983 445.636 305.706 445.914C305.428 446.192 304.977 446.192 304.699 445.914L300.172 441.387Z" fill="#9FA1AA"/>
<path fill-rule="evenodd" clip-rule="evenodd" d="M332.214 222.548V217.502H333.637V222.548H332.214ZM412.366 222.548V217.502H413.789V222.548H412.366ZM332.214 242.731V232.64H333.637V242.731H332.214ZM412.366 242.731V232.64H413.789V242.731H412.366ZM332.214 262.914V252.822H333.637V262.914H332.214ZM412.366 262.914V252.822H413.789V262.914H412.366ZM332.214 283.097V273.005H333.637V283.097H332.214ZM412.366 283.097V273.005H413.789V283.097H412.366ZM332.214 303.279V293.188H333.637V303.279H332.214ZM412.366 303.279V293.188H413.789V303.279H412.366ZM332.214 323.462V313.371H333.637V323.462H332.214ZM412.366 323.462V313.371H413.789V323.462H412.366ZM332.214 343.645V333.554H333.637V343.645H332.214ZM412.366 343.645V333.554H413.789V343.645H412.366ZM332.214 363.828V353.736H333.637V363.828H332.214ZM412.366 363.828V353.736H413.789V363.828H412.366ZM332.214 384.011V373.919H333.637V384.011H332.214ZM412.366 384.011V373.919H413.789V384.011H412.366ZM332.214 399.148V394.102H333.637V399.148H332.214ZM412.366 399.148V394.102H413.789V399.148H412.366Z" fill="#9FA1AA"/>
</svg>
