<svg width="212" height="220" viewBox="0 0 212 220" fill="none" xmlns="http://www.w3.org/2000/svg">
<rect width="212" height="220" fill="#696C73"/>
<path d="M59.4757 71C58.9166 71.1539 57.7504 71.7756 57.5587 73.0314C57.367 74.2872 56.9996 77.2481 56.8399 78.5716C52.1043 81.5229 49.1583 86.4194 47.3577 90.5313C46.0232 93.5787 48.6048 96.7619 52.0828 96.7619H62.2712L65.7324 136.181C65.9856 140.151 66.611 145.969 66.611 145.969C66.7707 146.892 67.5056 148 68.5279 148H143.472C144.494 148 145.229 146.892 145.389 145.969C145.389 145.969 146.014 140.151 146.268 136.181L149.729 96.7619H159.917C163.395 96.7619 165.977 93.5787 164.642 90.5313C162.842 86.4194 159.896 81.5229 155.16 78.5716C155 77.2481 154.633 74.2872 154.441 73.0314C154.25 71.7756 153.083 71.1539 152.524 71H59.4757Z" fill="#8A8C95"/>
</svg>
