<svg width="212" height="220" viewBox="0 0 212 220" fill="none" xmlns="http://www.w3.org/2000/svg">
<rect width="212" height="220" fill="#696C73"/>
<path d="M59.4757 46C58.9166 46.1539 57.7504 46.7756 57.5587 48.0314C57.367 49.2872 56.9996 52.2481 56.8399 53.5716C52.1043 56.5229 49.1583 61.4194 47.3577 65.5313C46.0232 68.5787 48.6048 71.7619 52.0828 71.7619H62.2712L65.7324 111.181C65.9856 115.151 66.611 120.969 66.611 120.969C66.7707 121.892 67.5056 123 68.5279 123H143.472C144.494 123 145.229 121.892 145.389 120.969C145.389 120.969 146.014 115.151 146.268 111.181L149.729 71.7619H159.917C163.395 71.7619 165.977 68.5787 164.642 65.5313C162.842 61.4194 159.896 56.5229 155.16 53.5716C155 52.2481 154.633 49.2872 154.441 48.0314C154.25 46.7756 153.083 46.1539 152.524 46H59.4757Z" fill="#7C8087"/>
<path d="M57.1941 163.144C56.2101 163.144 55.3281 162.94 54.5481 162.532C53.7681 162.124 53.1561 161.56 52.7121 160.84L54.2601 159.886C54.5481 160.378 54.9381 160.762 55.4301 161.038C55.9341 161.302 56.5101 161.434 57.1581 161.434C57.9741 161.434 58.5981 161.242 59.0301 160.858C59.4741 160.474 59.6961 159.964 59.6961 159.328C59.6961 158.716 59.4921 158.218 59.0841 157.834C58.6761 157.438 58.0821 157.24 57.3021 157.24H55.8801V155.674H57.3021C57.9261 155.674 58.4121 155.5 58.7601 155.152C59.1081 154.792 59.2821 154.342 59.2821 153.802C59.2821 153.25 59.0901 152.8 58.7061 152.452C58.3341 152.092 57.7941 151.912 57.0861 151.912C56.4381 151.912 55.8801 152.044 55.4121 152.308C54.9441 152.572 54.5841 152.932 54.3321 153.388L52.8561 152.362C53.3001 151.678 53.8701 151.132 54.5661 150.724C55.2741 150.304 56.1441 150.094 57.1761 150.094C58.4121 150.094 59.3961 150.4 60.1281 151.012C60.8721 151.612 61.2441 152.446 61.2441 153.514C61.2441 154.114 61.0941 154.678 60.7941 155.206C60.4941 155.722 60.0441 156.112 59.4441 156.376C60.1761 156.58 60.7401 156.97 61.1361 157.546C61.5441 158.11 61.7481 158.764 61.7481 159.508C61.7481 160.276 61.5501 160.93 61.1541 161.47C60.7701 162.01 60.2301 162.424 59.5341 162.712C58.8501 163 58.0701 163.144 57.1941 163.144ZM62.5624 165.25V161.254H62.7784C63.1144 161.254 63.4144 161.122 63.6784 160.858C63.9544 160.594 64.1764 160.114 64.3444 159.418C64.5244 158.722 64.6324 157.726 64.6684 156.43L64.7764 153.586H71.4904V161.254H72.7864V165.25H71.0404V163H64.2904V165.25H62.5624ZM65.3884 161.254H69.5104V155.296H66.5224L66.4684 156.61C66.4084 157.99 66.2884 159.04 66.1084 159.76C65.9404 160.48 65.7004 160.978 65.3884 161.254ZM78.7323 163.18C77.7603 163.18 76.9083 162.958 76.1763 162.514C75.4443 162.07 74.8743 161.482 74.4663 160.75C74.0583 160.006 73.8543 159.196 73.8543 158.32C73.8543 157.432 74.0583 156.616 74.4663 155.872C74.8743 155.128 75.4443 154.534 76.1763 154.09C76.9083 153.646 77.7663 153.424 78.7503 153.424C79.7343 153.424 80.5863 153.652 81.3063 154.108C82.0263 154.552 82.5783 155.14 82.9623 155.872C83.3583 156.604 83.5563 157.39 83.5563 158.23C83.5563 158.53 83.5383 158.77 83.5023 158.95H75.9603C75.9963 159.502 76.1463 159.988 76.4103 160.408C76.6863 160.816 77.0283 161.14 77.4363 161.38C77.8563 161.608 78.3123 161.722 78.8043 161.722C79.3323 161.722 79.8303 161.59 80.2983 161.326C80.7663 161.062 81.0903 160.714 81.2703 160.282L82.9623 160.768C82.6383 161.476 82.0983 162.058 81.3423 162.514C80.5983 162.958 79.7283 163.18 78.7323 163.18ZM75.9063 157.636H81.5943C81.5463 157.096 81.3903 156.622 81.1263 156.214C80.8623 155.794 80.5203 155.47 80.1003 155.242C79.6923 155.002 79.2363 154.882 78.7323 154.882C78.2403 154.882 77.7843 155.002 77.3643 155.242C76.9563 155.47 76.6203 155.794 76.3563 156.214C76.0923 156.622 75.9423 157.096 75.9063 157.636ZM89.4374 163.18C88.4654 163.18 87.6134 162.958 86.8814 162.514C86.1494 162.058 85.5794 161.458 85.1714 160.714C84.7634 159.97 84.5594 159.16 84.5594 158.284C84.5594 157.408 84.7574 156.604 85.1534 155.872C85.5614 155.128 86.1254 154.534 86.8454 154.09C87.5774 153.646 88.4414 153.424 89.4374 153.424C90.4094 153.424 91.2434 153.64 91.9394 154.072C92.6474 154.492 93.1754 155.056 93.5234 155.764L91.5974 156.376C91.3814 155.98 91.0754 155.674 90.6794 155.458C90.2954 155.23 89.8694 155.116 89.4014 155.116C88.8734 155.116 88.3934 155.254 87.9614 155.53C87.5414 155.794 87.2054 156.166 86.9534 156.646C86.7134 157.126 86.5934 157.672 86.5934 158.284C86.5934 158.896 86.7194 159.442 86.9714 159.922C87.2354 160.402 87.5774 160.786 87.9974 161.074C88.4294 161.35 88.9034 161.488 89.4194 161.488C89.8994 161.488 90.3554 161.362 90.7874 161.11C91.2194 160.858 91.5074 160.552 91.6514 160.192L93.5954 160.768C93.2834 161.476 92.7614 162.058 92.0294 162.514C91.2974 162.958 90.4334 163.18 89.4374 163.18ZM95.2261 163V153.586H97.2061V156.682H99.4561C100.572 156.682 101.418 156.964 101.994 157.528C102.582 158.092 102.876 158.836 102.876 159.76C102.876 160.696 102.594 161.47 102.03 162.082C101.478 162.694 100.662 163 99.5821 163H95.2261ZM97.2061 161.47H99.2761C99.8641 161.47 100.29 161.308 100.554 160.984C100.818 160.648 100.95 160.252 100.95 159.796C100.95 159.352 100.824 158.968 100.572 158.644C100.32 158.32 99.8821 158.158 99.2581 158.158H97.2061V161.47ZM113.203 163.18C112.231 163.18 111.379 162.958 110.647 162.514C109.915 162.058 109.345 161.458 108.937 160.714C108.529 159.97 108.325 159.16 108.325 158.284C108.325 157.408 108.523 156.604 108.919 155.872C109.327 155.128 109.891 154.534 110.611 154.09C111.343 153.646 112.207 153.424 113.203 153.424C114.175 153.424 115.009 153.64 115.705 154.072C116.413 154.492 116.941 155.056 117.289 155.764L115.363 156.376C115.147 155.98 114.841 155.674 114.445 155.458C114.061 155.23 113.635 155.116 113.167 155.116C112.639 155.116 112.159 155.254 111.727 155.53C111.307 155.794 110.971 156.166 110.719 156.646C110.479 157.126 110.359 157.672 110.359 158.284C110.359 158.896 110.485 159.442 110.737 159.922C111.001 160.402 111.343 160.786 111.763 161.074C112.195 161.35 112.669 161.488 113.185 161.488C113.665 161.488 114.121 161.362 114.553 161.11C114.985 160.858 115.273 160.552 115.417 160.192L117.361 160.768C117.049 161.476 116.527 162.058 115.795 162.514C115.063 162.958 114.199 163.18 113.203 163.18ZM118.992 163V153.586H120.954V157.312H121.89L124.662 153.586H126.858L123.42 158.14L127.254 163H124.968L121.872 159.094H120.954V163H118.992ZM132.503 163.18C131.519 163.18 130.661 162.958 129.929 162.514C129.209 162.058 128.651 161.464 128.255 160.732C127.859 159.988 127.661 159.178 127.661 158.302C127.661 157.426 127.859 156.622 128.255 155.89C128.663 155.146 129.227 154.552 129.947 154.108C130.679 153.652 131.531 153.424 132.503 153.424C133.475 153.424 134.321 153.652 135.041 154.108C135.773 154.552 136.337 155.146 136.733 155.89C137.141 156.622 137.345 157.426 137.345 158.302C137.345 159.178 137.147 159.988 136.751 160.732C136.355 161.464 135.791 162.058 135.059 162.514C134.339 162.958 133.487 163.18 132.503 163.18ZM129.695 158.32C129.695 158.92 129.821 159.46 130.073 159.94C130.325 160.42 130.661 160.798 131.081 161.074C131.501 161.35 131.975 161.488 132.503 161.488C133.019 161.488 133.487 161.35 133.907 161.074C134.339 160.786 134.681 160.402 134.933 159.922C135.185 159.442 135.311 158.902 135.311 158.302C135.311 157.702 135.185 157.162 134.933 156.682C134.681 156.202 134.339 155.824 133.907 155.548C133.487 155.26 133.019 155.116 132.503 155.116C131.987 155.116 131.513 155.26 131.081 155.548C130.661 155.824 130.325 156.208 130.073 156.7C129.821 157.18 129.695 157.72 129.695 158.32ZM144.447 163.18C143.691 163.18 143.025 163 142.449 162.64C141.873 162.28 141.417 161.812 141.081 161.236V166.834H139.101V153.586H140.847V155.278C141.207 154.714 141.675 154.264 142.251 153.928C142.827 153.592 143.469 153.424 144.177 153.424C145.041 153.424 145.803 153.652 146.463 154.108C147.135 154.552 147.663 155.146 148.047 155.89C148.431 156.622 148.623 157.42 148.623 158.284C148.623 159.196 148.443 160.024 148.083 160.768C147.723 161.5 147.231 162.088 146.607 162.532C145.983 162.964 145.263 163.18 144.447 163.18ZM143.799 161.488C144.363 161.488 144.849 161.338 145.257 161.038C145.677 160.726 146.001 160.33 146.229 159.85C146.469 159.358 146.589 158.836 146.589 158.284C146.589 157.708 146.457 157.18 146.193 156.7C145.941 156.22 145.593 155.836 145.149 155.548C144.717 155.26 144.219 155.116 143.655 155.116C143.319 155.116 142.965 155.2 142.593 155.368C142.233 155.536 141.915 155.758 141.639 156.034C141.363 156.31 141.177 156.622 141.081 156.97V159.436C141.321 160.012 141.687 160.498 142.179 160.894C142.683 161.29 143.223 161.488 143.799 161.488ZM154.634 163.18C153.65 163.18 152.792 162.958 152.06 162.514C151.34 162.058 150.782 161.464 150.386 160.732C149.99 159.988 149.792 159.178 149.792 158.302C149.792 157.426 149.99 156.622 150.386 155.89C150.794 155.146 151.358 154.552 152.078 154.108C152.81 153.652 153.662 153.424 154.634 153.424C155.606 153.424 156.452 153.652 157.172 154.108C157.904 154.552 158.468 155.146 158.864 155.89C159.272 156.622 159.476 157.426 159.476 158.302C159.476 159.178 159.278 159.988 158.882 160.732C158.486 161.464 157.922 162.058 157.19 162.514C156.47 162.958 155.618 163.18 154.634 163.18ZM151.826 158.32C151.826 158.92 151.952 159.46 152.204 159.94C152.456 160.42 152.792 160.798 153.212 161.074C153.632 161.35 154.106 161.488 154.634 161.488C155.15 161.488 155.618 161.35 156.038 161.074C156.47 160.786 156.812 160.402 157.064 159.922C157.316 159.442 157.442 158.902 157.442 158.302C157.442 157.702 157.316 157.162 157.064 156.682C156.812 156.202 156.47 155.824 156.038 155.548C155.618 155.26 155.15 155.116 154.634 155.116C154.118 155.116 153.644 155.26 153.212 155.548C152.792 155.824 152.456 156.208 152.204 156.7C151.952 157.18 151.826 157.72 151.826 158.32ZM62.1453 186.18C60.5733 186.18 59.3793 185.706 58.5633 184.758C57.7473 183.81 57.3393 182.454 57.3393 180.69C57.3393 179.538 57.4353 178.566 57.6273 177.774C57.8313 176.97 58.1253 176.31 58.5093 175.794C58.9053 175.266 59.3913 174.84 59.9673 174.516C60.5553 174.192 61.2333 173.928 62.0013 173.724L66.0153 172.608L66.0873 174.264L62.1453 175.38C61.2093 175.668 60.4773 176.1 59.9493 176.676C59.4333 177.252 59.1213 178.104 59.0133 179.232C59.3493 178.62 59.8293 178.14 60.4533 177.792C61.0773 177.444 61.8153 177.27 62.6673 177.27C63.5433 177.27 64.2993 177.456 64.9353 177.828C65.5713 178.188 66.0633 178.692 66.4113 179.34C66.7593 179.988 66.9333 180.732 66.9333 181.572C66.9333 182.484 66.7473 183.288 66.3753 183.984C66.0153 184.668 65.4753 185.208 64.7553 185.604C64.0473 185.988 63.1773 186.18 62.1453 186.18ZM62.1453 184.488C63.0093 184.488 63.6873 184.23 64.1793 183.714C64.6713 183.198 64.9173 182.514 64.9173 181.662C64.9173 180.846 64.6713 180.18 64.1793 179.664C63.6993 179.136 63.0213 178.872 62.1453 178.872C61.3533 178.872 60.6933 179.118 60.1653 179.61C59.6493 180.102 59.3913 180.786 59.3913 181.662C59.3913 182.49 59.6313 183.168 60.1113 183.696C60.5913 184.224 61.2693 184.488 62.1453 184.488ZM69.6623 189.996C69.4343 189.996 69.2003 189.966 68.9603 189.906C68.7323 189.846 68.4863 189.756 68.2223 189.636L68.7263 188.16C69.0023 188.304 69.2603 188.376 69.5003 188.376C70.1123 188.376 70.6043 187.884 70.9763 186.9L71.3363 185.928L67.3583 176.586H69.4283L72.3083 183.984L74.8643 176.586H76.7723L72.6323 187.44C72.3203 188.28 71.9003 188.916 71.3723 189.348C70.8563 189.78 70.2863 189.996 69.6623 189.996ZM77.328 188.25V184.254H77.544C77.88 184.254 78.18 184.122 78.444 183.858C78.72 183.594 78.942 183.114 79.11 182.418C79.29 181.722 79.398 180.726 79.434 179.43L79.542 176.586H86.256V184.254H87.552V188.25H85.806V186H79.056V188.25H77.328ZM80.154 184.254H84.276V178.296H81.288L81.234 179.61C81.174 180.99 81.054 182.04 80.874 182.76C80.706 183.48 80.466 183.978 80.154 184.254ZM93.4979 186.18C92.5259 186.18 91.6739 185.958 90.9419 185.514C90.2099 185.07 89.6399 184.482 89.2319 183.75C88.8239 183.006 88.6199 182.196 88.6199 181.32C88.6199 180.432 88.8239 179.616 89.2319 178.872C89.6399 178.128 90.2099 177.534 90.9419 177.09C91.6739 176.646 92.5319 176.424 93.5159 176.424C94.4999 176.424 95.3519 176.652 96.0719 177.108C96.7919 177.552 97.3439 178.14 97.7279 178.872C98.1239 179.604 98.3219 180.39 98.3219 181.23C98.3219 181.53 98.3039 181.77 98.2679 181.95H90.7259C90.7619 182.502 90.9119 182.988 91.1759 183.408C91.4519 183.816 91.7939 184.14 92.2019 184.38C92.6219 184.608 93.0779 184.722 93.5699 184.722C94.0979 184.722 94.5959 184.59 95.0639 184.326C95.5319 184.062 95.8559 183.714 96.0359 183.282L97.7279 183.768C97.4039 184.476 96.8639 185.058 96.1079 185.514C95.3639 185.958 94.4939 186.18 93.4979 186.18ZM90.6719 180.636H96.3599C96.3119 180.096 96.1559 179.622 95.8919 179.214C95.6279 178.794 95.2859 178.47 94.8659 178.242C94.4579 178.002 94.0019 177.882 93.4979 177.882C93.0059 177.882 92.5499 178.002 92.1299 178.242C91.7219 178.47 91.3859 178.794 91.1219 179.214C90.8579 179.622 90.7079 180.096 90.6719 180.636ZM102.169 186V178.332H99.055V176.586H107.281V178.332H104.149V186H102.169ZM117.583 189.834V186H117.259C116.287 186 115.453 185.784 114.757 185.352C114.061 184.92 113.527 184.35 113.155 183.642C112.783 182.922 112.597 182.142 112.597 181.302C112.597 180.462 112.783 179.688 113.155 178.98C113.539 178.26 114.079 177.684 114.775 177.252C115.471 176.82 116.299 176.604 117.259 176.604H117.583V172.86H119.563V176.604H119.887C120.847 176.604 121.675 176.82 122.371 177.252C123.067 177.684 123.601 178.26 123.973 178.98C124.357 179.688 124.549 180.462 124.549 181.302C124.549 182.142 124.363 182.922 123.991 183.642C123.619 184.35 123.085 184.92 122.389 185.352C121.693 185.784 120.859 186 119.887 186H119.563V189.834H117.583ZM117.259 184.398H117.673V178.206H117.259C116.731 178.206 116.263 178.344 115.855 178.62C115.447 178.896 115.123 179.268 114.883 179.736C114.655 180.204 114.541 180.732 114.541 181.32C114.541 181.908 114.655 182.436 114.883 182.904C115.111 183.372 115.429 183.738 115.837 184.002C116.245 184.266 116.719 184.398 117.259 184.398ZM119.455 184.398H119.887C120.427 184.398 120.901 184.266 121.309 184.002C121.717 183.738 122.035 183.372 122.263 182.904C122.503 182.436 122.623 181.908 122.623 181.32C122.623 180.732 122.503 180.204 122.263 179.736C122.035 179.268 121.711 178.896 121.291 178.62C120.883 178.344 120.415 178.206 119.887 178.206H119.455V184.398ZM130.534 186.18C129.55 186.18 128.692 185.958 127.96 185.514C127.24 185.058 126.682 184.464 126.286 183.732C125.89 182.988 125.692 182.178 125.692 181.302C125.692 180.426 125.89 179.622 126.286 178.89C126.694 178.146 127.258 177.552 127.978 177.108C128.71 176.652 129.562 176.424 130.534 176.424C131.506 176.424 132.352 176.652 133.072 177.108C133.804 177.552 134.368 178.146 134.764 178.89C135.172 179.622 135.376 180.426 135.376 181.302C135.376 182.178 135.178 182.988 134.782 183.732C134.386 184.464 133.822 185.058 133.09 185.514C132.37 185.958 131.518 186.18 130.534 186.18ZM127.726 181.32C127.726 181.92 127.852 182.46 128.104 182.94C128.356 183.42 128.692 183.798 129.112 184.074C129.532 184.35 130.006 184.488 130.534 184.488C131.05 184.488 131.518 184.35 131.938 184.074C132.37 183.786 132.712 183.402 132.964 182.922C133.216 182.442 133.342 181.902 133.342 181.302C133.342 180.702 133.216 180.162 132.964 179.682C132.712 179.202 132.37 178.824 131.938 178.548C131.518 178.26 131.05 178.116 130.534 178.116C130.018 178.116 129.544 178.26 129.112 178.548C128.692 178.824 128.356 179.208 128.104 179.7C127.852 180.18 127.726 180.72 127.726 181.32ZM139.364 186V178.332H136.25V176.586H144.476V178.332H141.344V186H139.364ZM150.187 186.18C149.203 186.18 148.345 185.958 147.613 185.514C146.893 185.058 146.335 184.464 145.939 183.732C145.543 182.988 145.345 182.178 145.345 181.302C145.345 180.426 145.543 179.622 145.939 178.89C146.347 178.146 146.911 177.552 147.631 177.108C148.363 176.652 149.215 176.424 150.187 176.424C151.159 176.424 152.005 176.652 152.725 177.108C153.457 177.552 154.021 178.146 154.417 178.89C154.825 179.622 155.029 180.426 155.029 181.302C155.029 182.178 154.831 182.988 154.435 183.732C154.039 184.464 153.475 185.058 152.743 185.514C152.023 185.958 151.171 186.18 150.187 186.18ZM147.379 181.32C147.379 181.92 147.505 182.46 147.757 182.94C148.009 183.42 148.345 183.798 148.765 184.074C149.185 184.35 149.659 184.488 150.187 184.488C150.703 184.488 151.171 184.35 151.591 184.074C152.023 183.786 152.365 183.402 152.617 182.922C152.869 182.442 152.995 181.902 152.995 181.302C152.995 180.702 152.869 180.162 152.617 179.682C152.365 179.202 152.023 178.824 151.591 178.548C151.171 178.26 150.703 178.116 150.187 178.116C149.671 178.116 149.197 178.26 148.765 178.548C148.345 178.824 148.009 179.208 147.757 179.7C147.505 180.18 147.379 180.72 147.379 181.32Z" fill="#A6A8AD"/>
</svg>
