<svg width="449" height="420" viewBox="0 0 449 420" fill="none" xmlns="http://www.w3.org/2000/svg">
<ellipse cx="158.5" cy="298.407" rx="126.5" ry="1.5" fill="#373738"/>
<ellipse cx="293" cy="295.407" rx="124" ry="1.5" fill="#373738"/>
<path d="M124.019 260.554H99.6133L101.763 267.41L99.6133 272.312H124.019V260.554Z" fill="#8A8A8A"/>
<path d="M158.81 209.062H266.953V120L158.81 120V209.062Z" fill="#585A60"/>
<path d="M212.881 209.062H321.023V120L212.881 120V209.062Z" fill="#85888E"/>
<path d="M235.783 295.492H343.926V206.43H235.783V295.492Z" fill="#585A60"/>
<path d="M289.853 295.492H397.996V206.43H289.853V295.492Z" fill="#85888E"/>
<path d="M235.844 272.905H252.979L251.47 268.091L252.979 264.649H235.844V272.905Z" fill="#373738"/>
<path d="M190.284 205.908V297.834L118.642 297.856L47 297.878V205.908H190.284Z" fill="#6D7077"/>
<path d="M261.921 205.907V297.808L240.025 297.816L190.283 297.834L118.641 297.856V205.907H261.921Z" fill="#BDBDBD"/>
<g clip-path="url(#clip0_4436:24192)">
<path d="M144.482 131.267C147.938 125.041 157.421 127.583 157.304 134.702C157.215 140.069 163.063 143.443 167.667 140.681C173.776 137.018 180.716 143.959 177.054 150.067C174.291 154.672 177.665 160.519 183.032 160.43C190.151 160.313 192.694 169.796 186.468 173.253C181.774 175.857 181.774 182.605 186.468 185.216C192.694 188.673 190.151 198.156 183.032 198.039C177.665 197.95 174.291 203.797 177.054 208.401C180.716 214.51 173.776 221.451 167.667 217.788C163.063 215.026 157.215 218.4 157.304 223.767C157.421 230.886 147.938 233.428 144.482 227.202C141.877 222.509 135.129 222.509 132.518 227.202C129.062 233.428 119.579 230.886 119.695 223.767C119.785 218.4 113.937 215.026 109.333 217.788C103.224 221.451 96.2835 214.51 99.9461 208.401C102.709 203.797 99.3345 197.95 93.9677 198.039C86.8486 198.156 84.3061 188.673 90.5319 185.216C95.2253 182.612 95.2253 175.864 90.5319 173.253C84.3061 169.796 86.8486 160.313 93.9677 160.43C99.3345 160.519 102.709 154.672 99.9461 150.067C96.2835 143.959 103.224 137.018 109.333 140.681C113.937 143.443 119.785 140.069 119.695 134.702C119.579 127.583 129.062 125.041 132.518 131.267C135.122 135.96 141.87 135.96 144.482 131.267Z" fill="#373738"/>
<path d="M126.601 174.243C124.63 174.243 122.853 173.813 121.268 172.955C119.683 172.054 118.399 170.873 117.413 169.414C116.471 167.912 116 166.259 116 164.456C116 162.654 116.471 161.023 117.413 159.563C118.399 158.061 119.683 156.88 121.268 156.022C122.853 155.164 124.63 154.734 126.601 154.734C128.571 154.734 130.348 155.164 131.933 156.022C133.561 156.88 134.845 158.061 135.788 159.563C136.73 161.023 137.201 162.654 137.201 164.456C137.201 166.259 136.73 167.912 135.788 169.414C134.845 170.873 133.561 172.054 131.933 172.955C130.348 173.813 128.571 174.243 126.601 174.243ZM126.601 169.929C127.457 169.929 128.228 169.671 128.913 169.156C129.599 168.641 130.134 167.976 130.52 167.16C130.948 166.345 131.162 165.465 131.162 164.521C131.162 163.491 130.948 162.568 130.52 161.752C130.091 160.937 129.534 160.293 128.849 159.821C128.164 159.306 127.414 159.048 126.601 159.048C125.744 159.048 124.973 159.306 124.288 159.821C123.602 160.293 123.046 160.937 122.617 161.752C122.232 162.568 122.039 163.469 122.039 164.456C122.039 165.444 122.253 166.366 122.682 167.225C123.11 168.04 123.667 168.706 124.352 169.221C125.037 169.693 125.787 169.929 126.601 169.929ZM151.399 201.734C149.429 201.734 147.652 201.305 146.067 200.447C144.482 199.588 143.197 198.429 142.212 196.97C141.27 195.468 140.799 193.815 140.799 192.012C140.799 190.167 141.27 188.514 142.212 187.055C143.197 185.596 144.482 184.437 146.067 183.578C147.652 182.677 149.429 182.226 151.399 182.226C153.37 182.226 155.147 182.677 156.732 183.578C158.359 184.437 159.644 185.596 160.587 187.055C161.529 188.514 162 190.145 162 191.948C162 193.751 161.529 195.403 160.587 196.906C159.644 198.365 158.359 199.545 156.732 200.447C155.147 201.305 153.37 201.734 151.399 201.734ZM151.399 197.421C152.256 197.421 153.027 197.163 153.712 196.648C154.398 196.133 154.933 195.468 155.318 194.652C155.747 193.837 155.961 192.957 155.961 192.012C155.961 190.982 155.747 190.059 155.318 189.244C154.933 188.428 154.376 187.785 153.648 187.312C152.963 186.797 152.213 186.54 151.399 186.54C150.586 186.54 149.815 186.797 149.087 187.312C148.401 187.785 147.845 188.45 147.416 189.308C147.031 190.124 146.838 191.004 146.838 191.948C146.838 192.978 147.052 193.901 147.48 194.717C147.909 195.532 148.466 196.197 149.151 196.712C149.836 197.185 150.586 197.421 151.399 197.421ZM119.662 198.065L137.715 176.882L154.419 154.863L158.338 158.34L140.735 179.2L123.517 201.541L119.662 198.065Z" fill="#BDBDBD"/>
</g>
<defs>
<clipPath id="clip0_4436:24192">
<rect width="103" height="103" fill="white" transform="translate(87 127.734)"/>
</clipPath>
</defs>
</svg>
