<svg width="452" height="422" viewBox="0 0 452 422" fill="none" xmlns="http://www.w3.org/2000/svg">
<path d="M303.023 271.642V312.748H269.172L255.601 293.072H8.37362V271.642H303.023Z" fill="#373738"/>
<path d="M305.141 141.499C305.217 140.122 306.382 139.063 307.759 139.116C321.133 139.668 384.668 142.58 397.732 148.859C407.733 153.663 418.686 171.629 426.41 183.724C431.947 192.393 444.179 211.638 446.653 221.479C448.748 229.816 450.012 247.108 449.868 255.702L446.373 301.127H388.799L383.034 286.127C379.275 276.338 369.872 269.878 359.387 269.878H302.176V194.489L305.141 141.499Z" fill="#BDBDBD"/>
<path d="M334.709 150.53C349.43 151.37 381.345 153.525 391.542 157.02C404.826 161.574 419.736 196.727 420.439 198.27L430.493 223.982C430.735 224.709 430.19 225.457 429.426 225.457H403.457C402.473 225.457 401.497 225.284 400.582 224.936L332.274 199.488C329.187 198.338 327.137 195.388 327.137 192.09V157.694C327.13 153.571 330.594 150.295 334.709 150.53Z" fill="#373738"/>
<path d="M427.602 222.931C427.602 222.931 417.964 201.334 414.734 194.276C409.847 183.595 398.432 161.71 390.724 159.403C383.636 157.277 363.257 154.683 334.564 153.049C334.473 153.041 334.383 153.041 334.292 153.041C331.735 153.041 329.655 155.129 329.655 157.693V192.876C329.655 194.639 330.767 196.243 332.423 196.855L382.887 203.081C386.98 203.588 390.641 205.865 392.903 209.314L401.647 222.643C402.162 222.832 402.699 222.931 403.251 222.931H427.602Z" fill="#696C73"/>
<path d="M384.712 203.476L401.898 222.576L392.405 159.139L390.03 158.322L394.697 205.314C394.803 206.35 393.766 207.122 392.806 206.736L384.712 203.476Z" fill="#373738"/>
<path d="M384.719 293.087H451V319.661H384.719V293.087Z" fill="#373738"/>
<path d="M340.445 347.417C320.43 346.648 304.829 329.803 305.598 309.792C306.367 289.782 323.215 274.184 343.229 274.953C363.244 275.722 378.845 292.567 378.076 312.577C377.308 332.588 360.459 348.186 340.445 347.417Z" fill="#373738"/>
<path d="M378.11 310.55C378.11 310.58 378.117 310.611 378.117 310.641C378.405 330.665 362.406 347.133 342.382 347.42C322.358 347.708 305.89 331.708 305.603 311.685C305.603 311.655 305.603 311.624 305.603 311.594L378.11 310.55Z" fill="#373738"/>
<path d="M367.321 310.8C367.526 324.855 356.292 336.421 342.237 336.626C328.182 336.83 316.616 325.596 316.412 311.534C316.207 297.479 327.441 285.912 341.503 285.708C355.558 285.511 367.117 296.745 367.321 310.8Z" fill="#BDBDBD"/>
<path d="M341.455 285.716C355.51 285.512 367.077 296.745 367.273 310.8L316.364 311.534C316.167 297.479 327.4 285.913 341.455 285.716Z" fill="#BDBDBD"/>
<path d="M357.354 310.946C357.475 319.509 350.636 326.552 342.073 326.673C333.51 326.794 326.468 319.956 326.346 311.392C326.225 302.829 333.064 295.787 341.627 295.665C350.183 295.537 357.225 302.383 357.354 310.946Z" fill="#373738"/>
<path d="M381.694 319.879L387.73 319.44C386.149 297.767 383.835 284.801 380.65 279.801C374.538 270.194 368.463 268.462 361.723 267.312C355.46 266.245 349.136 266.495 343.024 266.745L341.526 266.805C328.908 267.297 302.477 266.858 302.212 266.858L302.114 272.91C302.379 272.917 328.984 273.356 341.768 272.857L343.273 272.796C349.075 272.562 355.074 272.32 360.71 273.28C366.724 274.309 370.725 275.482 375.551 283.054C377.011 285.346 379.75 293.175 381.694 319.879Z" fill="#373738"/>
<path d="M8.45367 81.8509L299.031 73V271.435H1.00009L8.45367 81.8509Z" fill="#BDBDBD"/>
<path d="M448.767 246.035C448.797 246.035 448.805 245.732 448.805 245.188C448.805 244.643 448.79 243.856 448.759 242.888C448.699 240.944 448.555 238.266 448.328 235.308C448.094 232.35 447.814 229.68 447.572 227.751C447.451 226.79 447.345 226.011 447.254 225.474C447.171 224.937 447.11 224.642 447.08 224.642C447.05 224.642 447.065 224.945 447.103 225.489C447.156 226.117 447.216 226.881 447.292 227.781C447.466 229.809 447.685 232.434 447.935 235.338C448.147 238.243 448.336 240.876 448.487 242.903C448.555 243.803 448.608 244.567 448.661 245.195C448.699 245.74 448.737 246.035 448.767 246.035Z" fill="#D7D7D7"/>
<path d="M72.5193 347.391C52.5068 346.592 36.9312 329.724 37.7301 309.716C38.5291 289.707 55.4001 274.135 75.4126 274.934C95.4251 275.734 111.001 292.601 110.202 312.61C109.403 332.618 92.5318 348.19 72.5193 347.391Z" fill="#373738"/>
<path d="M110.243 310.551C110.243 310.581 110.25 310.611 110.25 310.642C110.538 330.665 94.5383 347.133 74.5148 347.421C54.4912 347.708 38.023 331.709 37.7356 311.685C37.7356 311.655 37.7356 311.625 37.7356 311.595L110.243 310.551Z" fill="#373738"/>
<path d="M99.4387 310.806C99.6429 324.861 88.4094 336.428 74.3544 336.632C60.2917 336.836 48.733 325.603 48.5287 311.54C48.3245 297.485 59.5579 285.919 73.6206 285.714C87.6757 285.518 99.2344 296.751 99.4387 310.806Z" fill="#BDBDBD"/>
<path d="M73.6116 285.72C87.6667 285.516 99.233 296.75 99.4297 310.805L48.5198 311.539C48.3231 297.483 59.5565 285.917 73.6116 285.72Z" fill="#BDBDBD"/>
<path d="M89.4789 310.949C89.5999 319.512 82.7615 326.554 74.1984 326.675C65.6352 326.796 58.5925 319.958 58.4715 311.395C58.3505 302.832 65.1889 295.789 73.752 295.668C82.3076 295.539 89.3503 302.385 89.4789 310.949Z" fill="#373738"/>
<path d="M121.662 321.104C121.662 321.104 127.184 269.68 73.8833 269.68C24.7057 269.68 25.8026 313.918 26.264 320.764H33.98C33.98 320.764 30.0463 277.169 73.8833 277.169C117.72 277.169 113.9 321.649 113.9 321.649C113.9 321.649 117.145 321.475 121.662 321.104Z" fill="#696C73"/>
<path fill-rule="evenodd" clip-rule="evenodd" d="M230.11 241.78C230.817 241.842 231.499 241.902 232.114 241.857C234.34 241.881 236.352 241.641 238.341 241.259C241.017 240.709 243.598 239.801 246.06 238.534C247.505 237.793 248.878 236.909 250.204 235.953C250.465 235.761 250.63 235.546 250.559 235.164C250.346 234.124 250.139 233.084 249.932 232.045C249.725 231.005 249.517 229.965 249.304 228.925C249.079 227.778 248.848 226.631 248.618 225.483C248.387 224.336 248.156 223.189 247.931 222.041C247.528 219.962 247.126 217.882 246.7 215.803C246.605 215.42 246.7 215.325 247.055 215.229C247.872 215.014 248.683 214.793 249.494 214.572C250.305 214.351 251.116 214.13 251.933 213.914C252.978 213.63 254.023 213.349 255.066 213.07C256.386 212.716 257.703 212.363 259.012 212.002C259.569 211.859 260.125 211.703 260.682 211.548C261.238 211.393 261.795 211.237 262.351 211.094C262.635 211.022 262.73 210.855 262.73 210.568C262.73 209.737 262.645 208.906 262.561 208.09C262.546 207.943 262.531 207.797 262.517 207.652C262.304 205.644 261.901 203.66 261.285 201.724C261.072 201.055 261.049 201.031 260.386 201.222C258.468 201.748 256.526 202.274 254.585 202.8C252.075 203.493 249.565 204.162 247.055 204.831L247.055 204.831L239.667 206.839C239.123 206.983 239.123 207.007 239.359 207.485C240.259 209.301 240.449 211.213 239.928 213.15C239.194 215.898 237.442 217.739 234.79 218.695C234.529 218.814 234.387 218.958 234.316 219.245C233.913 220.822 233.511 222.376 233.085 223.93L231.025 231.602C230.433 233.778 229.865 235.929 229.296 238.104C229.012 239.108 228.752 240.112 228.491 241.116C228.396 241.522 228.491 241.665 228.87 241.689C229.286 241.707 229.702 241.744 230.11 241.78ZM250.18 220.318C250.156 223.544 252.713 226.03 255.815 226.006C258.941 226.03 261.522 223.521 261.498 220.27C261.474 217.019 258.988 214.605 255.839 214.605C252.642 214.605 250.18 217.043 250.18 220.318Z" fill="#525459"/>
<path fill-rule="evenodd" clip-rule="evenodd" d="M228.382 191.568C231.508 191.592 234.136 188.939 234.041 185.856C234.041 182.7 231.531 180.143 228.43 180.143C225.328 180.167 222.747 182.581 222.747 185.856C222.747 189.202 225.375 191.544 228.382 191.568ZM237.636 205.117C237.739 205.199 237.841 205.282 238.044 205.263C238.257 205.213 238.483 205.149 238.719 205.082C238.929 205.022 239.147 204.961 239.37 204.905C241.027 204.451 242.69 204.002 244.354 203.554C246.017 203.106 247.681 202.658 249.338 202.204C251.102 201.726 252.872 201.254 254.642 200.781C256.412 200.309 258.182 199.837 259.946 199.359C260.348 199.264 260.396 199.168 260.23 198.786C258.738 195.344 256.678 192.284 254.074 189.583C252.606 188.029 250.972 186.691 249.196 185.496C247.704 184.492 246.118 183.607 244.46 182.89C244.176 182.771 243.987 182.795 243.797 183.01C243.608 183.225 243.395 183.416 243.182 183.607C242.341 184.36 241.495 185.107 240.648 185.854C239.802 186.601 238.955 187.348 238.115 188.101C237.487 188.663 236.86 189.219 236.232 189.774C235.605 190.33 234.977 190.886 234.35 191.447C233.497 192.212 232.645 192.971 231.793 193.73C230.94 194.489 230.088 195.248 229.235 196.013C229.212 196.033 229.189 196.053 229.168 196.071C228.763 196.42 228.763 196.42 228.336 195.989C224.665 192.284 220.995 188.579 217.325 184.85C217.065 184.564 216.875 184.564 216.567 184.755C215.549 185.424 214.531 186.093 213.56 186.858C212.116 188.005 210.766 189.248 209.559 190.635C209.417 190.802 209.322 190.969 209.535 191.161C209.718 191.331 209.885 191.51 210.054 191.693C210.17 191.817 210.286 191.943 210.411 192.069L224.902 206.697C225.305 207.104 225.328 207.104 225.636 206.626C227.459 203.877 230.703 202.49 234.042 203.231C235.368 203.518 236.505 204.164 237.546 205.048C237.578 205.069 237.607 205.093 237.636 205.117Z" fill="#525459"/>
<path d="M188.287 182.579C190.276 182.579 192.241 182.579 194.23 182.579C194.799 182.579 194.822 182.627 194.87 183.225C194.964 184.181 195.083 185.161 195.178 186.117C195.296 187.121 195.414 188.101 195.509 189.081C195.627 190.109 195.746 191.136 195.841 192.188C196.006 193.622 196.148 195.056 196.314 196.514C196.409 197.423 196.527 198.331 196.622 199.239C196.74 200.243 196.859 201.247 196.953 202.251C197.048 203.207 197.143 204.163 197.261 205.096C197.38 206.076 197.498 207.079 197.616 208.059C197.782 209.589 197.948 211.095 198.114 212.625C198.303 214.37 198.492 216.115 198.682 217.836C198.848 219.246 199.013 220.656 199.155 222.066C199.369 224.026 199.605 226.01 199.818 227.97C200.055 230.193 200.292 232.392 200.552 234.615C200.718 236.073 200.884 237.555 201.05 239.013C201.168 240.137 201.287 241.236 201.405 242.36C201.429 242.575 201.334 242.694 201.121 242.694C201.026 242.694 200.931 242.694 200.837 242.694C197.545 242.694 194.254 242.694 190.939 242.694C190.347 242.694 190.347 242.67 190.252 242.049C190.016 240.304 189.755 238.583 189.495 236.862C189.211 234.806 188.927 232.775 188.619 230.719C188.382 229.022 188.121 227.349 187.861 225.652C187.624 223.955 187.387 222.258 187.151 220.584C186.961 219.246 186.748 217.907 186.559 216.569C186.275 214.537 185.99 212.481 185.683 210.426C185.446 208.729 185.162 207.032 184.925 205.311C184.688 203.637 184.475 201.94 184.238 200.267C184.001 198.57 183.741 196.897 183.481 195.2C183.291 193.885 183.125 192.571 182.936 191.256C182.746 189.822 182.51 188.34 182.297 186.834C182.107 185.591 181.941 184.348 181.752 183.105C181.705 182.723 181.823 182.579 182.226 182.603C184.238 182.603 186.275 182.579 188.287 182.579Z" fill="#525459"/>
<path fill-rule="evenodd" clip-rule="evenodd" d="M224.394 210C224.441 209.737 224.465 209.498 224.489 209.259C224.511 209.011 224.323 208.869 224.142 208.733C224.131 208.725 224.12 208.717 224.11 208.709C218.877 203.403 213.644 198.12 208.411 192.838C208.009 192.431 207.985 192.431 207.653 192.909C206.375 194.75 205.238 196.686 204.338 198.742C202.657 202.638 201.829 206.701 201.781 210.932C201.781 211.879 201.841 212.811 201.901 213.752C201.916 213.998 201.932 214.245 201.947 214.494C201.971 214.828 202.136 214.972 202.421 215.067C203.936 215.569 205.451 216.071 206.967 216.597L206.967 216.597C211.631 218.198 216.296 219.8 220.984 221.377C221.292 221.473 221.387 221.593 221.292 221.927C221.008 222.955 220.747 223.959 220.487 224.987C220.084 226.588 219.658 228.19 219.232 229.791C218.569 232.301 217.906 234.811 217.219 237.321C217.125 237.655 217.196 237.846 217.504 238.014C220.227 239.543 223.092 240.595 226.099 241.241C226.359 241.312 226.478 241.241 226.549 240.954C226.856 239.735 227.188 238.516 227.519 237.297C227.837 236.067 228.162 234.845 228.487 233.626C228.742 232.665 228.997 231.706 229.248 230.747C229.473 229.911 229.692 229.08 229.911 228.249C230.13 227.419 230.349 226.588 230.574 225.752L230.574 225.751C231.119 223.744 231.663 221.736 232.184 219.728C232.326 219.202 232.255 219.131 231.71 219.107C230.361 219.035 229.106 218.653 227.993 217.888C225.246 215.999 223.991 213.37 224.394 210ZM212.557 221.398C209.455 221.398 206.921 223.955 206.921 227.086C206.898 230.194 209.384 232.799 212.557 232.823C215.753 232.823 218.216 230.289 218.216 227.086C218.216 223.86 215.635 221.398 212.557 221.398Z" fill="#525459"/>
<path d="M302.699 272.905V314.102H268.772L255.171 294.383H7.39388V272.905H302.699Z" fill="#373738"/>
<path d="M304.823 142.472C304.899 141.092 306.067 140.031 307.446 140.084C320.85 140.637 384.527 143.556 397.62 149.849C407.643 154.663 418.621 172.669 426.362 184.792C431.911 193.48 444.17 212.767 446.65 222.631C448.75 230.986 450.016 248.317 449.872 256.929L446.369 302.456H388.667L382.89 287.422C379.122 277.612 369.698 271.137 359.19 271.137H301.851V195.58L304.823 142.472Z" fill="#BDBDBD"/>
<path d="M334.465 151.523C349.218 152.365 381.205 154.526 391.424 158.028C404.737 162.592 419.68 197.823 420.386 199.37L430.461 225.139C430.704 225.867 430.158 226.618 429.392 226.618H403.365C402.38 226.618 401.402 226.443 400.484 226.095L332.024 200.591C328.93 199.438 326.876 196.481 326.876 193.176V158.703C326.868 154.571 330.341 151.288 334.465 151.523Z" fill="#373738"/>
<path d="M427.555 224.085C427.555 224.085 417.896 202.44 414.659 195.367C409.761 184.662 398.321 162.729 390.595 160.416C383.491 158.286 363.067 155.685 334.31 154.048C334.219 154.04 334.128 154.04 334.037 154.04C331.475 154.04 329.39 156.133 329.39 158.703V193.964C329.39 195.731 330.504 197.338 332.165 197.952L382.741 204.192C386.842 204.699 390.512 206.982 392.779 210.439L401.543 223.797C402.058 223.987 402.597 224.085 403.15 224.085H427.555Z" fill="#696C73"/>
<path d="M384.576 204.587L401.801 223.73L392.286 160.152L389.905 159.333L394.583 206.429C394.689 207.468 393.651 208.241 392.688 207.855L384.576 204.587Z" fill="#373738"/>
<path d="M384.575 294.397H451.004V321.031H384.575V294.397Z" fill="#373738"/>
<path d="M340.217 348.848C320.158 348.077 304.522 331.195 305.293 311.14C306.063 291.085 322.949 275.452 343.008 276.223C363.067 276.994 378.703 293.877 377.933 313.931C377.162 333.986 360.276 349.619 340.217 348.848Z" fill="#373738"/>
<path d="M377.942 311.9C377.942 311.93 377.949 311.96 377.949 311.991C378.237 332.059 362.203 348.564 342.135 348.852C322.066 349.14 305.562 333.105 305.273 313.037C305.273 313.007 305.273 312.976 305.273 312.946L377.942 311.9Z" fill="#373738"/>
<path d="M367.122 312.15C367.327 326.236 356.068 337.828 341.982 338.033C327.896 338.238 316.304 326.979 316.099 312.885C315.894 298.799 327.153 287.207 341.247 287.002C355.333 286.805 366.918 298.064 367.122 312.15Z" fill="#BDBDBD"/>
<path d="M341.238 287.01C355.324 286.806 366.916 298.064 367.113 312.15L316.09 312.886C315.893 298.799 327.151 287.207 341.238 287.01Z" fill="#BDBDBD"/>
<path d="M357.151 312.296C357.272 320.879 350.418 327.937 341.836 328.058C333.254 328.18 326.196 321.326 326.074 312.744C325.953 304.162 332.807 297.103 341.389 296.982C349.964 296.853 357.022 303.714 357.151 312.296Z" fill="#373738"/>
<path d="M381.548 321.249L387.598 320.809C386.013 299.088 383.693 286.094 380.501 281.082C374.376 271.454 368.288 269.718 361.533 268.565C355.255 267.496 348.917 267.747 342.791 267.997L341.29 268.057C328.644 268.55 302.155 268.11 301.889 268.11L301.791 274.176C302.056 274.183 328.72 274.623 341.533 274.123L343.041 274.062C348.856 273.827 354.869 273.584 360.517 274.547C366.544 275.578 370.555 276.753 375.392 284.342C376.855 286.639 379.599 294.486 381.548 321.249Z" fill="#373738"/>
<path d="M7.47125 82.6916L298.695 73.821V272.698H0.00109863L7.47125 82.6916Z" fill="#BDBDBD"/>
<path d="M448.763 247.241C448.793 247.241 448.801 246.938 448.801 246.392C448.801 245.846 448.786 245.057 448.755 244.087C448.695 242.138 448.551 239.455 448.323 236.49C448.088 233.526 447.808 230.85 447.565 228.916C447.444 227.954 447.338 227.173 447.247 226.634C447.163 226.096 447.103 225.8 447.072 225.8C447.042 225.8 447.057 226.104 447.095 226.65C447.148 227.279 447.209 228.045 447.284 228.947C447.459 230.979 447.679 233.609 447.929 236.521C448.141 239.432 448.331 242.07 448.482 244.102C448.551 245.004 448.604 245.77 448.657 246.399C448.695 246.945 448.733 247.241 448.763 247.241Z" fill="#D7D7D7"/>
<path d="M71.6744 348.822C51.6174 348.021 36.0071 331.116 36.8079 311.063C37.6086 291.01 54.5172 275.404 74.5742 276.205C94.6312 277.005 110.241 293.911 109.441 313.964C108.64 334.016 91.7314 349.623 71.6744 348.822Z" fill="#373738"/>
<path d="M109.485 311.9C109.485 311.93 109.492 311.961 109.492 311.991C109.78 332.059 93.7456 348.564 73.6775 348.852C53.6093 349.14 37.1045 333.105 36.8164 313.037C36.8164 313.007 36.8164 312.977 36.8164 312.946L109.485 311.9Z" fill="#373738"/>
<path d="M98.6574 312.156C98.8621 326.243 87.6036 337.835 73.5173 338.039C59.4234 338.244 47.8389 326.986 47.6342 312.892C47.4295 298.805 58.688 287.213 72.7819 287.009C86.8682 286.812 98.4527 298.07 98.6574 312.156Z" fill="#BDBDBD"/>
<path d="M72.7729 287.015C86.8593 286.81 98.4513 298.068 98.6484 312.155L47.6252 312.89C47.4281 298.804 58.6866 287.212 72.7729 287.015Z" fill="#BDBDBD"/>
<path d="M88.6859 312.299C88.8072 320.881 81.9536 327.939 73.3714 328.061C64.7892 328.182 57.7308 321.328 57.6095 312.746C57.4882 304.164 64.3419 297.106 72.9241 296.984C81.4987 296.855 88.557 303.717 88.6859 312.299Z" fill="#373738"/>
<path d="M120.919 322.477C120.919 322.477 126.453 270.938 73.0345 270.938C23.7475 270.938 24.8468 315.275 25.3093 322.136H33.0423C33.0423 322.136 29.1 278.444 73.0345 278.444C116.969 278.444 113.14 323.023 113.14 323.023C113.14 323.023 116.393 322.849 120.919 322.477Z" fill="#696C73"/>
<path fill-rule="evenodd" clip-rule="evenodd" d="M229.626 242.976C230.334 243.039 231.017 243.099 231.634 243.053C233.865 243.077 235.882 242.838 237.875 242.454C240.557 241.903 243.143 240.993 245.611 239.724C247.059 238.981 248.435 238.095 249.764 237.136C250.025 236.945 250.191 236.729 250.12 236.346C249.907 235.304 249.699 234.262 249.491 233.22C249.284 232.178 249.076 231.135 248.862 230.093C248.637 228.943 248.406 227.794 248.174 226.644C247.943 225.494 247.711 224.344 247.486 223.194C247.083 221.11 246.679 219.026 246.252 216.942C246.157 216.558 246.252 216.462 246.608 216.367C247.427 216.151 248.24 215.929 249.052 215.708C249.865 215.486 250.678 215.265 251.497 215.049C252.544 214.764 253.591 214.483 254.637 214.202C255.96 213.848 257.28 213.494 258.592 213.133C259.15 212.989 259.707 212.833 260.265 212.677C260.823 212.522 261.38 212.366 261.938 212.222C262.223 212.15 262.318 211.983 262.318 211.695C262.318 210.862 262.232 210.03 262.149 209.211C262.134 209.065 262.119 208.918 262.104 208.773C261.891 206.76 261.487 204.772 260.87 202.832C260.657 202.161 260.633 202.137 259.968 202.329C258.046 202.856 256.1 203.383 254.154 203.91C251.639 204.604 249.124 205.275 246.608 205.946L246.608 205.946L239.204 207.958C238.658 208.102 238.658 208.126 238.895 208.605C239.797 210.426 239.987 212.342 239.465 214.282C238.729 217.037 236.973 218.882 234.315 219.84C234.054 219.96 233.912 220.104 233.841 220.391C233.437 221.972 233.034 223.529 232.607 225.087L230.542 232.776C229.949 234.956 229.379 237.112 228.81 239.292C228.525 240.298 228.264 241.305 228.003 242.311C227.908 242.718 228.003 242.862 228.383 242.886C228.8 242.903 229.217 242.94 229.626 242.976ZM249.744 221.466C249.721 224.7 252.283 227.192 255.392 227.168C258.525 227.192 261.111 224.676 261.088 221.419C261.064 218.161 258.572 215.741 255.416 215.741C252.212 215.741 249.744 218.184 249.744 221.466Z" fill="#525459"/>
<path fill-rule="evenodd" clip-rule="evenodd" d="M227.891 192.653C231.023 192.677 233.657 190.018 233.563 186.928C233.563 183.765 231.047 181.202 227.938 181.202C224.83 181.226 222.243 183.646 222.243 186.928C222.243 190.281 224.877 192.629 227.891 192.653ZM237.164 206.231C237.267 206.314 237.369 206.397 237.572 206.378C237.786 206.328 238.013 206.264 238.249 206.197C238.46 206.137 238.678 206.075 238.901 206.019C240.562 205.564 242.229 205.115 243.896 204.666C245.564 204.216 247.231 203.767 248.892 203.312C250.66 202.833 252.434 202.36 254.207 201.887C255.981 201.414 257.755 200.941 259.523 200.461C259.927 200.366 259.974 200.27 259.808 199.886C258.313 196.437 256.248 193.37 253.638 190.663C252.167 189.106 250.529 187.765 248.749 186.567C247.254 185.561 245.664 184.675 244.003 183.956C243.718 183.836 243.529 183.86 243.339 184.076C243.149 184.291 242.935 184.483 242.722 184.674L242.722 184.675C241.879 185.429 241.031 186.178 240.183 186.926C239.334 187.675 238.486 188.424 237.643 189.178C237.014 189.741 236.386 190.298 235.757 190.855C235.128 191.412 234.499 191.969 233.87 192.532C233.016 193.299 232.162 194.059 231.307 194.82C230.453 195.58 229.599 196.341 228.744 197.108C228.721 197.128 228.698 197.147 228.677 197.166C228.271 197.516 228.271 197.516 227.843 197.084C224.164 193.37 220.486 189.657 216.808 185.92C216.547 185.633 216.357 185.633 216.048 185.824C215.028 186.495 214.007 187.166 213.034 187.932C211.587 189.082 210.234 190.328 209.024 191.718C208.882 191.885 208.787 192.053 209 192.245C209.184 192.416 209.35 192.595 209.52 192.778C209.636 192.903 209.753 193.029 209.878 193.155L224.402 207.816C224.805 208.223 224.829 208.223 225.137 207.744C226.964 204.989 230.216 203.6 233.562 204.342C234.891 204.63 236.03 205.276 237.074 206.163C237.105 206.184 237.135 206.208 237.164 206.231Z" fill="#525459"/>
<path d="M187.708 183.644C189.701 183.644 191.671 183.644 193.664 183.644C194.234 183.644 194.258 183.692 194.305 184.291C194.4 185.249 194.519 186.231 194.614 187.19C194.732 188.196 194.851 189.178 194.946 190.16C195.065 191.19 195.183 192.22 195.278 193.274C195.444 194.712 195.587 196.149 195.753 197.61C195.848 198.521 195.966 199.431 196.061 200.341C196.18 201.347 196.299 202.354 196.394 203.36C196.488 204.318 196.583 205.276 196.702 206.21C196.821 207.193 196.939 208.199 197.058 209.181C197.224 210.714 197.39 212.223 197.556 213.756C197.746 215.505 197.936 217.254 198.126 218.979C198.292 220.392 198.458 221.806 198.6 223.219C198.814 225.183 199.051 227.172 199.265 229.136C199.502 231.364 199.74 233.568 200.001 235.796C200.167 237.257 200.333 238.742 200.499 240.204C200.618 241.33 200.736 242.432 200.855 243.557C200.879 243.773 200.784 243.893 200.57 243.893C200.475 243.893 200.38 243.893 200.285 243.893C196.987 243.893 193.688 243.893 190.366 243.893C189.773 243.893 189.773 243.869 189.678 243.246C189.44 241.497 189.179 239.772 188.918 238.048C188.634 235.987 188.349 233.951 188.04 231.891C187.803 230.19 187.542 228.513 187.281 226.812C187.044 225.112 186.806 223.411 186.569 221.734C186.379 220.392 186.165 219.051 185.976 217.709C185.691 215.673 185.406 213.613 185.098 211.553C184.86 209.852 184.576 208.151 184.338 206.426C184.101 204.749 183.887 203.048 183.65 201.371C183.413 199.67 183.152 197.994 182.891 196.293C182.701 194.975 182.535 193.658 182.345 192.34C182.155 190.903 181.918 189.417 181.704 187.908C181.514 186.663 181.348 185.417 181.158 184.171C181.111 183.788 181.229 183.644 181.633 183.668C183.65 183.668 185.691 183.644 187.708 183.644Z" fill="#525459"/>
<path fill-rule="evenodd" clip-rule="evenodd" d="M223.893 211.126C223.941 210.862 223.965 210.623 223.988 210.383C224.011 210.134 223.822 209.992 223.641 209.856C223.63 209.848 223.619 209.84 223.609 209.832C218.364 204.514 213.12 199.22 207.875 193.925C207.472 193.518 207.448 193.518 207.116 193.997C205.834 195.842 204.695 197.782 203.793 199.843C202.109 203.747 201.278 207.82 201.23 212.06C201.23 213.009 201.29 213.943 201.35 214.886C201.366 215.133 201.382 215.381 201.397 215.629C201.42 215.965 201.586 216.109 201.871 216.204C203.39 216.707 204.909 217.21 206.428 217.738L206.428 217.738C211.103 219.343 215.778 220.948 220.476 222.529C220.785 222.624 220.88 222.744 220.785 223.08C220.5 224.11 220.239 225.116 219.978 226.146C219.574 227.751 219.147 229.356 218.72 230.961L218.72 230.961C218.056 233.476 217.391 235.992 216.703 238.507C216.608 238.843 216.679 239.034 216.988 239.202C219.717 240.735 222.588 241.789 225.602 242.436C225.863 242.508 225.982 242.436 226.053 242.148C226.361 240.927 226.694 239.705 227.026 238.484L227.026 238.483C227.344 237.251 227.67 236.026 227.995 234.804C228.252 233.841 228.507 232.88 228.758 231.919C228.984 231.081 229.203 230.248 229.423 229.416C229.642 228.583 229.862 227.751 230.087 226.913C230.633 224.9 231.179 222.888 231.701 220.876C231.843 220.349 231.772 220.277 231.226 220.253C229.874 220.181 228.616 219.798 227.501 219.031C224.748 217.139 223.49 214.503 223.893 211.126ZM212.029 222.549C208.92 222.549 206.381 225.112 206.381 228.25C206.357 231.365 208.849 233.976 212.029 234C215.232 234 217.7 231.46 217.7 228.25C217.7 225.016 215.114 222.549 212.029 222.549Z" fill="#525459"/>
<ellipse cx="72.9865" cy="349.151" rx="64.9318" ry="1.51004" fill="#373738"/>
<ellipse cx="340.768" cy="349.151" rx="64.9318" ry="1.51004" fill="#373738"/>
</svg>
