<svg width="450" height="420" viewBox="0 0 450 420" fill="none" xmlns="http://www.w3.org/2000/svg">
<path d="M85.6946 65.3465L0 144.285L153.759 311.021L239.454 232.083L85.6946 65.3465Z" fill="#8D8D8D"/>
<path d="M239.456 232.064L153.774 311.008L0.0078125 144.271L56.2403 92.4611L85.7052 65.3272L90.624 70.6398L239.456 232.064Z" fill="#BDBDBD"/>
<path d="M86.2504 75.5364L10.6367 145.19L154.459 301.153L230.072 231.499L86.2504 75.5364Z" stroke="#8D8D8D" stroke-miterlimit="10"/>
<path opacity="0.1" d="M151.505 245.221L121.056 255.736L54.8906 94.3433L84.3556 67.2094L89.2743 72.522L151.505 245.221Z" fill="black"/>
<path d="M158.769 4.13674e-06L49.207 39.6967L126.528 252.875L236.09 213.178L158.769 4.13674e-06Z" fill="#8D8D8D"/>
<path d="M158.769 4.13674e-06L49.207 39.6967L126.528 252.875L236.09 213.178L158.769 4.13674e-06Z" fill="#BDBDBD"/>
<path d="M155.326 9.62145L58.6523 44.6486L130.977 244.051L227.651 209.024L155.326 9.62145Z" stroke="#8D8D8D" stroke-miterlimit="10"/>
<path d="M414.879 161.203L253.829 170.274C248.117 170.591 242.516 171.971 237.312 174.318L62.5532 253.167C56.2065 256.021 52.7157 262.92 54.1596 269.723L83.4659 408.247C85.481 417.747 95.9532 422.774 104.632 418.413L277.106 331.555L436.553 326.512C444.931 326.243 451.167 318.678 449.818 310.416L428.128 177.791C426.985 170.924 421.829 161.013 414.879 161.203Z" fill="#373738"/>
<path d="M260.023 194.479L398.209 185.963" stroke="#373738" stroke-width="2" stroke-miterlimit="10" stroke-linecap="round" stroke-linejoin="round"/>
<path d="M243.473 198.047L268.717 313.942" stroke="#696C73" stroke-width="2" stroke-miterlimit="10" stroke-linecap="round" stroke-linejoin="round"/>
<path d="M75.1562 302.682L92.959 391.838C92.959 391.823 106.605 356.442 75.1562 302.682Z" fill="#696C73"/>
<path d="M77.5039 303.729C78.1069 305.362 235.618 237.757 235.618 237.757C235.618 237.757 239.601 286.348 192.206 312.927C144.796 339.49 77.5039 303.729 77.5039 303.729Z" fill="#696C73"/>
<path d="M182.135 306.345C185.903 306.345 188.958 303.292 188.958 299.526C188.958 295.76 185.903 292.707 182.135 292.707C178.367 292.707 175.312 295.76 175.312 299.526C175.312 303.292 178.367 306.345 182.135 306.345Z" fill="#BDBDBD"/>
<path d="M235.695 237.757C235.695 237.757 255.228 267.127 250.499 317.193L235.695 237.757Z" fill="#696C73"/>
<g opacity="0.2">
<g opacity="0.2">
<path opacity="0.2" d="M67.6133 267.666L71.2468 266.065" stroke="#FAFAFA" stroke-linecap="round" stroke-linejoin="round"/>
<path opacity="0.2" d="M78.7852 262.718L225.872 197.746" stroke="#FAFAFA" stroke-linecap="round" stroke-linejoin="round" stroke-dasharray="5.2 5.2"/>
<path opacity="0.2" d="M229.648 196.081L233.282 194.479" stroke="#FAFAFA" stroke-linecap="round" stroke-linejoin="round"/>
</g>
</g>
<path d="M264.656 220.534L402.842 212.018" stroke="#696C73" stroke-width="2" stroke-miterlimit="10" stroke-linecap="round" stroke-linejoin="round"/>
<path d="M270.875 253.011L409.06 244.511" stroke="#696C73" stroke-width="2" stroke-miterlimit="10" stroke-linecap="round" stroke-linejoin="round"/>
<path d="M382.288 54.2904L348.793 170.803C347 177.051 342.462 181.777 336.877 184.029C334.386 184.267 331.799 184.061 329.229 183.331L265.111 164.92C254.337 161.811 248.101 150.568 251.195 139.8L284.706 23.2711C286.499 17.0387 291.021 12.3287 296.622 10.061C299.113 9.82309 301.7 10.0292 304.27 10.7587L368.373 29.1546C379.162 32.2471 385.398 43.4908 382.288 54.2904Z" fill="#BDBDBD"/>
<path d="M351.028 56.5896L347.617 68.4676L343.555 67.3258C339.461 66.1681 337.081 61.918 338.224 57.8265L340.445 49.9448L348.648 52.2919C350.489 52.8311 351.552 54.75 351.028 56.5896Z" fill="#696C73"/>
<path d="M349.078 50.7695L340.875 48.4224L343.334 39.7319C344.477 35.6404 348.745 33.2616 352.839 34.4034L357.059 35.5928L353.378 48.3907C352.855 50.2461 350.935 51.3087 349.078 50.7695Z" fill="#696C73"/>
<path d="M356.852 54.6551L365.103 57.018L362.913 64.7728C361.771 68.8643 357.518 71.259 353.425 70.1013L349.141 68.896L352.552 57.0339C353.076 55.1943 354.996 54.1318 356.852 54.6551Z" fill="#696C73"/>
<path d="M368.025 46.6783L365.534 55.4957L357.283 53.1328C355.442 52.5936 354.379 50.6747 354.903 48.8351L358.584 36.0373L362.694 37.1949C366.787 38.3368 369.167 42.5868 368.025 46.6783Z" fill="#696C73"/>
<path fill-rule="evenodd" clip-rule="evenodd" d="M294.318 130.416C294.427 130.153 294.532 129.899 294.588 129.658C294.864 128.809 295.014 128.01 295.107 127.202C295.217 126.112 295.179 125.015 294.99 123.92C294.879 123.278 294.705 122.645 294.498 122.023C294.456 121.9 294.394 121.811 294.239 121.792C293.815 121.748 293.392 121.702 292.969 121.656C292.547 121.61 292.124 121.565 291.7 121.521C291.234 121.469 290.767 121.419 290.3 121.369C289.833 121.32 289.366 121.27 288.9 121.218C288.055 121.121 287.211 121.025 286.363 120.938C286.206 120.928 286.18 120.88 286.186 120.733C286.202 120.394 286.215 120.057 286.227 119.72C286.24 119.383 286.253 119.046 286.268 118.707C286.285 118.273 286.303 117.839 286.321 117.406C286.344 116.859 286.367 116.312 286.386 115.767C286.398 115.537 286.405 115.305 286.412 115.074C286.419 114.842 286.427 114.61 286.439 114.38C286.445 114.263 286.393 114.206 286.283 114.172C285.965 114.072 285.636 114.004 285.314 113.938C285.256 113.926 285.198 113.914 285.141 113.902C284.346 113.742 283.539 113.657 282.723 113.66C282.442 113.661 282.43 113.667 282.423 113.944C282.394 114.741 282.363 115.548 282.331 116.354C282.295 117.398 282.25 118.439 282.205 119.481L282.205 119.481L282.088 122.55C282.077 122.776 282.086 122.779 282.298 122.746C283.101 122.62 283.856 122.778 284.535 123.21C285.499 123.822 285.994 124.715 286.041 125.845C286.056 125.959 286.094 126.03 286.195 126.092C286.751 126.436 287.297 126.777 287.841 127.128L290.531 128.84C291.293 129.328 292.049 129.805 292.813 130.284C293.163 130.514 293.516 130.735 293.87 130.955C294.014 131.04 294.08 131.021 294.135 130.879C294.191 130.722 294.255 130.567 294.318 130.416ZM288.517 120.146C289.749 120.544 291.008 119.864 291.371 118.674C291.755 117.48 291.104 116.19 289.857 115.808C288.609 115.425 287.387 116.086 287.009 117.292C286.625 118.515 287.263 119.752 288.517 120.146Z" fill="#525459"/>
<path fill-rule="evenodd" clip-rule="evenodd" d="M274.887 125.039C275.271 123.845 274.57 122.52 273.378 122.185C272.17 121.805 270.89 122.458 270.518 123.645C270.155 124.835 270.769 126.114 272.023 126.508C273.304 126.911 274.517 126.187 274.887 125.039ZM281.189 123.127C281.233 123.098 281.277 123.069 281.294 122.989C281.3 122.901 281.303 122.807 281.306 122.708C281.308 122.621 281.311 122.53 281.316 122.438C281.341 121.749 281.369 121.058 281.397 120.367C281.425 119.676 281.453 118.985 281.478 118.296C281.507 117.563 281.539 116.829 281.57 116.094C281.602 115.36 281.634 114.625 281.662 113.892C281.674 113.727 281.643 113.697 281.477 113.714C279.98 113.871 278.56 114.291 277.213 114.963C276.442 115.338 275.733 115.802 275.062 116.338C274.499 116.788 273.97 117.289 273.496 117.838C273.416 117.932 273.403 118.007 273.462 118.106C273.522 118.204 273.57 118.309 273.617 118.413L273.617 118.413C273.805 118.826 273.989 119.24 274.174 119.654C274.358 120.068 274.542 120.482 274.73 120.895C274.87 121.203 275.007 121.51 275.145 121.817C275.282 122.124 275.42 122.431 275.56 122.739C275.75 123.158 275.939 123.575 276.127 123.993C276.315 124.411 276.504 124.829 276.694 125.247C276.699 125.259 276.704 125.27 276.708 125.28C276.794 125.477 276.794 125.477 276.577 125.589C274.717 126.548 272.858 127.507 270.989 128.463C270.848 128.528 270.825 128.6 270.862 128.741C270.996 129.212 271.13 129.682 271.306 130.146C271.572 130.837 271.886 131.504 272.272 132.133C272.319 132.207 272.372 132.264 272.471 132.205C272.558 132.156 272.647 132.114 272.737 132.071C272.798 132.041 272.861 132.012 272.924 131.979L280.266 128.193C280.47 128.088 280.473 128.079 280.327 127.903C279.493 126.874 279.351 125.465 280.036 124.276C280.305 123.803 280.688 123.446 281.152 123.153C281.164 123.144 281.177 123.136 281.189 123.127Z" fill="#525459"/>
<path d="M266.633 139.308C266.872 138.547 267.108 137.794 267.347 137.033C267.415 136.816 267.436 136.812 267.67 136.866C268.048 136.945 268.437 137.018 268.814 137.096C269.213 137.172 269.602 137.245 269.989 137.326C270.396 137.405 270.804 137.483 271.218 137.573C271.787 137.682 272.353 137.801 272.931 137.913C273.29 137.986 273.652 138.05 274.011 138.123C274.409 138.198 274.807 138.274 275.203 138.358C275.58 138.437 275.958 138.516 276.329 138.583C276.718 138.655 277.117 138.731 277.506 138.803C278.111 138.924 278.708 139.042 279.313 139.163C280.004 139.3 280.694 139.437 281.376 139.572C281.935 139.678 282.495 139.785 283.052 139.9C283.828 140.054 284.615 140.202 285.391 140.357C286.271 140.533 287.141 140.707 288.023 140.875C288.601 140.987 289.188 141.102 289.766 141.214C290.21 141.304 290.645 141.391 291.089 141.481C291.175 141.498 291.209 141.548 291.183 141.63C291.172 141.666 291.161 141.702 291.149 141.739C290.754 142.998 290.359 144.258 289.961 145.527C289.89 145.753 289.881 145.75 289.632 145.712C288.935 145.592 288.245 145.485 287.555 145.378C286.735 145.239 285.923 145.103 285.099 144.974C284.421 144.86 283.749 144.758 283.069 144.654C282.391 144.54 281.713 144.427 281.044 144.316C280.509 144.227 279.971 144.148 279.436 144.059C278.624 143.924 277.803 143.785 276.979 143.655C276.301 143.542 275.617 143.446 274.93 143.33C274.261 143.219 273.586 143.096 272.917 142.986C272.239 142.872 271.568 142.77 270.887 142.666C270.361 142.58 269.838 142.486 269.312 142.4C268.74 142.3 268.145 142.212 267.543 142.112C267.044 142.035 266.549 141.949 266.05 141.872C265.898 141.844 265.857 141.782 265.915 141.63C266.156 140.86 266.392 140.078 266.633 139.308Z" fill="#525459"/>
<path fill-rule="evenodd" clip-rule="evenodd" d="M281.192 128.655L281.192 128.655C281.1 128.617 281.023 128.672 280.949 128.725C280.945 128.728 280.94 128.731 280.936 128.734C278.276 130.098 275.626 131.465 272.976 132.832C272.772 132.937 272.769 132.946 272.912 133.131C273.463 133.841 274.068 134.509 274.747 135.101C276.037 136.214 277.493 137.02 279.107 137.547C279.47 137.661 279.834 137.751 280.201 137.841C280.297 137.865 280.394 137.888 280.49 137.912C280.621 137.944 280.696 137.897 280.767 137.8C281.141 137.281 281.515 136.761 281.898 136.245L281.898 136.244C283.071 134.652 284.244 133.06 285.411 131.455C285.484 131.349 285.541 131.327 285.658 131.404C286.018 131.636 286.371 131.857 286.733 132.08C287.298 132.427 287.86 132.783 288.421 133.139L288.422 133.139C289.303 133.694 290.184 134.25 291.062 134.815C291.179 134.892 291.261 134.888 291.362 134.79C292.274 133.932 293.021 132.962 293.629 131.889C293.688 131.798 293.674 131.744 293.573 131.682C293.143 131.418 292.717 131.144 292.29 130.87L292.29 130.87C291.857 130.601 291.428 130.329 291 130.058C290.663 129.845 290.327 129.632 289.99 129.421C289.696 129.234 289.405 129.05 289.113 128.866C288.821 128.682 288.53 128.499 288.236 128.312C287.533 127.862 286.83 127.412 286.124 126.971C285.939 126.853 285.903 126.871 285.829 127.077C285.639 127.585 285.342 128.019 284.916 128.353C283.863 129.177 282.706 129.341 281.464 128.781C281.369 128.731 281.281 128.693 281.192 128.655ZM284.403 134.683C284.031 135.87 284.706 137.148 285.905 137.525C287.092 137.908 288.388 137.27 288.777 136.059C289.161 134.835 288.486 133.587 287.26 133.202C286.025 132.813 284.772 133.504 284.403 134.683Z" fill="#525459"/>
</svg>
