<svg width="450" height="420" viewBox="0 0 450 420" fill="none" xmlns="http://www.w3.org/2000/svg">
<path d="M218.383 134.018H313.539V56L218.383 56V134.018Z" fill="#6D7077"/>
<path d="M265.961 134.018H361.117V56L265.961 56V134.018Z" fill="#BDBDBD"/>
<path d="M125.186 132.158C152.186 94.2563 183.483 81.3636 226.7 83.5379C229.494 83.6785 231.968 85.4149 233.03 88.0049L233.647 89.5048C235.526 94.0881 232.308 99.1356 227.356 99.3675C191.49 101.034 165.684 104.787 136.643 140.852C133.446 144.822 127.217 144.255 124.751 139.777C123.419 137.359 123.59 134.397 125.186 132.158Z" fill="#BDBDBD"/>
<path d="M124.229 112.039L117.364 150.132C117.157 151.291 118.262 152.261 119.389 151.896L154.902 140.468C156.224 140.044 156.589 138.35 155.561 137.416C142.917 130.329 133.526 121.479 126.812 111.173C125.906 110.345 124.445 110.835 124.229 112.039Z" fill="#BDBDBD"/>
<path d="M160.412 260.623H315.109V133.789H160.412L160.412 260.623Z" fill="#616369"/>
<path d="M237.764 260.623H392.461V133.789H237.764L237.764 260.623Z" fill="#85888E"/>
<path d="M392.468 229.82H367.953L370.113 236.676L367.953 241.578H392.468V229.82Z" fill="#8A8A8A"/>
<path fill-rule="evenodd" clip-rule="evenodd" d="M274.222 175.681C274.563 175.711 274.893 175.74 275.191 175.718C276.267 175.729 277.241 175.614 278.203 175.43C279.497 175.165 280.745 174.728 281.937 174.118C282.635 173.761 283.299 173.335 283.941 172.875C284.067 172.783 284.147 172.679 284.113 172.495C284.01 171.994 283.909 171.494 283.809 170.993C283.709 170.492 283.609 169.992 283.506 169.491C283.397 168.938 283.285 168.386 283.173 167.833C283.062 167.281 282.95 166.729 282.841 166.176C282.647 165.175 282.452 164.173 282.246 163.172C282.2 162.988 282.246 162.942 282.418 162.896C282.813 162.792 283.205 162.686 283.597 162.579C283.989 162.473 284.382 162.366 284.777 162.263C285.282 162.125 285.788 161.99 286.293 161.856C286.931 161.685 287.568 161.515 288.201 161.342C288.47 161.273 288.74 161.198 289.009 161.123C289.278 161.048 289.547 160.973 289.816 160.904C289.954 160.87 289.999 160.789 289.999 160.651C289.999 160.251 289.958 159.851 289.918 159.458C289.911 159.387 289.903 159.317 289.896 159.247C289.793 158.28 289.599 157.325 289.301 156.392C289.198 156.07 289.186 156.059 288.866 156.151C287.938 156.404 286.999 156.657 286.06 156.91C284.846 157.244 283.632 157.566 282.418 157.889L282.418 157.889L278.844 158.856C278.581 158.925 278.581 158.936 278.695 159.166C279.131 160.041 279.222 160.962 278.97 161.894C278.615 163.218 277.768 164.104 276.485 164.565C276.359 164.622 276.29 164.691 276.256 164.829C276.061 165.589 275.866 166.337 275.66 167.085L274.664 170.78C274.378 171.828 274.103 172.863 273.828 173.911C273.69 174.394 273.564 174.878 273.438 175.361C273.393 175.557 273.438 175.626 273.622 175.637C273.823 175.646 274.024 175.664 274.222 175.681ZM283.925 165.343C283.914 166.897 285.151 168.094 286.651 168.083C288.163 168.094 289.411 166.886 289.4 165.32C289.388 163.755 288.186 162.592 286.662 162.592C285.116 162.592 283.925 163.766 283.925 165.343Z" fill="#525459"/>
<path fill-rule="evenodd" clip-rule="evenodd" d="M273.383 151.502C274.895 151.514 276.167 150.236 276.121 148.751C276.121 147.232 274.907 146 273.406 146C271.906 146.012 270.658 147.174 270.658 148.751C270.658 150.363 271.929 151.491 273.383 151.502ZM277.856 158.025C277.906 158.065 277.955 158.104 278.053 158.095C278.156 158.071 278.266 158.04 278.38 158.008C278.481 157.98 278.587 157.95 278.694 157.923C279.496 157.704 280.301 157.488 281.105 157.273C281.91 157.057 282.714 156.841 283.516 156.622C284.369 156.392 285.226 156.165 286.082 155.937C286.938 155.71 287.794 155.483 288.647 155.252C288.842 155.206 288.865 155.16 288.785 154.976C288.063 153.319 287.067 151.845 285.807 150.545C285.097 149.797 284.306 149.152 283.447 148.577C282.726 148.093 281.958 147.667 281.157 147.322C281.019 147.264 280.928 147.276 280.836 147.379C280.744 147.483 280.641 147.575 280.538 147.667C280.132 148.03 279.722 148.389 279.313 148.749C278.903 149.109 278.494 149.469 278.087 149.831C277.784 150.102 277.48 150.369 277.177 150.637C276.873 150.904 276.57 151.172 276.266 151.443C275.854 151.811 275.442 152.176 275.029 152.542C274.617 152.907 274.205 153.273 273.792 153.641C273.781 153.651 273.77 153.66 273.76 153.669C273.564 153.837 273.564 153.837 273.357 153.63C271.582 151.845 269.807 150.061 268.032 148.266C267.906 148.128 267.814 148.128 267.665 148.22C267.173 148.542 266.68 148.864 266.211 149.233C265.512 149.785 264.859 150.384 264.275 151.051C264.206 151.132 264.16 151.212 264.264 151.304C264.352 151.387 264.433 151.473 264.515 151.561C264.57 151.621 264.627 151.681 264.687 151.742L271.697 158.786C271.891 158.982 271.903 158.982 272.052 158.752C272.933 157.428 274.503 156.76 276.117 157.117C276.759 157.255 277.309 157.566 277.812 157.992C277.828 158.002 277.842 158.013 277.856 158.025Z" fill="#525459"/>
<path d="M253.99 147.171C254.952 147.171 255.903 147.171 256.865 147.171C257.14 147.171 257.151 147.194 257.174 147.481C257.22 147.942 257.277 148.414 257.323 148.874C257.38 149.358 257.437 149.83 257.483 150.301C257.54 150.796 257.598 151.291 257.644 151.798C257.724 152.488 257.792 153.179 257.873 153.881C257.918 154.319 257.976 154.756 258.021 155.193C258.079 155.677 258.136 156.16 258.182 156.644C258.228 157.104 258.273 157.564 258.331 158.013C258.388 158.485 258.445 158.969 258.503 159.441C258.583 160.177 258.663 160.902 258.743 161.639C258.835 162.479 258.926 163.32 259.018 164.148C259.098 164.827 259.178 165.506 259.247 166.186C259.35 167.129 259.465 168.085 259.568 169.029C259.682 170.099 259.797 171.158 259.923 172.228C260.003 172.931 260.083 173.644 260.163 174.346C260.22 174.887 260.278 175.417 260.335 175.958C260.346 176.061 260.301 176.119 260.198 176.119C260.152 176.119 260.106 176.119 260.06 176.119C258.468 176.119 256.876 176.119 255.273 176.119C254.986 176.119 254.986 176.107 254.941 175.808C254.826 174.968 254.7 174.139 254.574 173.31C254.437 172.32 254.299 171.342 254.15 170.352C254.036 169.535 253.91 168.729 253.784 167.912C253.669 167.095 253.555 166.278 253.44 165.472C253.349 164.827 253.246 164.183 253.154 163.538C253.017 162.56 252.879 161.57 252.73 160.58C252.616 159.763 252.478 158.946 252.364 158.117C252.249 157.311 252.146 156.494 252.032 155.688C251.917 154.871 251.791 154.065 251.665 153.248C251.573 152.615 251.493 151.982 251.402 151.349C251.31 150.658 251.195 149.945 251.092 149.22C251.001 148.621 250.921 148.022 250.829 147.424C250.806 147.24 250.863 147.171 251.058 147.182C252.032 147.182 253.017 147.171 253.99 147.171Z" fill="#525459"/>
<path fill-rule="evenodd" clip-rule="evenodd" d="M271.499 160.02L271.499 160.02C271.51 159.9 271.419 159.832 271.331 159.767C271.326 159.763 271.321 159.759 271.316 159.755C268.785 157.2 266.254 154.656 263.722 152.112C263.528 151.917 263.516 151.917 263.356 152.147C262.738 153.033 262.188 153.965 261.753 154.955C260.939 156.831 260.539 158.788 260.516 160.826C260.516 161.282 260.544 161.73 260.573 162.184C260.581 162.302 260.589 162.421 260.596 162.541C260.607 162.702 260.687 162.771 260.825 162.817C261.558 163.059 262.291 163.3 263.024 163.553L263.024 163.553C265.28 164.325 267.536 165.096 269.804 165.855C269.953 165.902 269.999 165.959 269.953 166.12C269.815 166.615 269.69 167.099 269.564 167.594C269.369 168.365 269.163 169.136 268.957 169.907C268.636 171.116 268.315 172.324 267.983 173.533C267.937 173.694 267.972 173.786 268.12 173.867C269.438 174.603 270.823 175.11 272.278 175.42C272.404 175.455 272.461 175.42 272.496 175.282C272.644 174.695 272.805 174.108 272.965 173.522L272.965 173.521C273.119 172.929 273.276 172.341 273.433 171.754C273.557 171.291 273.68 170.829 273.801 170.368C273.91 169.965 274.016 169.565 274.122 169.165C274.228 168.765 274.334 168.365 274.443 167.962C274.706 166.995 274.969 166.028 275.221 165.061C275.29 164.808 275.256 164.774 274.992 164.762C274.339 164.727 273.732 164.543 273.194 164.175C271.866 163.266 271.259 162 271.453 160.377C271.476 160.25 271.488 160.135 271.499 160.02ZM265.726 165.867C264.226 165.867 263 167.098 263 168.606C262.989 170.103 264.191 171.357 265.726 171.369C267.272 171.369 268.463 170.149 268.463 168.606C268.463 167.052 267.215 165.867 265.726 165.867Z" fill="#525459"/>
<path d="M111.241 230.606L88.5352 285.879L196.873 330.177L219.579 274.904L111.241 230.606Z" fill="#8D8D8D"/>
<path d="M219.534 274.884L196.85 330.251L88.5788 285.88L103.466 249.543L111.27 230.51L114.729 231.919L219.534 274.884Z" fill="#BDBDBD"/>
<path d="M113.744 235.229L93.707 284.001L195.038 325.431L215.075 276.658L113.744 235.229Z" stroke="#8D8D8D" stroke-miterlimit="10"/>
<path opacity="0.1" d="M181.38 300.083L169.476 311.582L103.29 250.759L111.097 231.731L114.554 233.139L181.38 300.083Z" fill="black"/>
<path d="M131.103 184.302L88.6758 226.515L171.458 309.025L213.886 266.812L131.103 184.302Z" fill="#8D8D8D"/>
<path d="M131.103 184.302L88.6758 226.515L171.458 309.025L213.886 266.812L131.103 184.302Z" fill="#BDBDBD"/>
<path d="M131.61 189.53L94.1719 226.779L171.599 303.951L209.038 266.702L131.61 189.53Z" stroke="#8D8D8D" stroke-miterlimit="10"/>
<path d="M339.39 256.42C318.923 295.107 291.334 311.005 250.752 314.336C248.129 314.552 245.605 313.238 244.293 310.958L243.531 309.638C241.205 305.597 243.581 300.489 248.17 299.661C281.414 293.661 305.021 286.963 327.618 249.738C330.105 245.643 335.986 245.399 338.842 249.266C340.394 251.35 340.603 254.133 339.39 256.42Z" fill="#BDBDBD"/>
<path d="M342.789 275.072L344.449 238.689C344.498 237.58 343.343 236.817 342.342 237.294L310.637 252.356C309.458 252.917 309.329 254.54 310.403 255.286C323.08 260.328 332.943 267.422 340.49 276.201C341.435 276.861 342.737 276.223 342.789 275.072Z" fill="#BDBDBD"/>
</svg>
